<?xml version="1.0" standalone="no"?>
<!DOCTYPE svg PUBLIC "-//W3C//DTD SVG 1.1//EN" "http://www.w3.org/Graphics/SVG/1.1/DTD/svg11.dtd" >
<svg xmlns="http://www.w3.org/2000/svg" xmlns:xlink="http://www.w3.org/1999/xlink" version="1.1">
<metadata>
Created by FontForge 20170731 at Sun Jun 27 10:21:16 2021
 By Aleksey,,,
</metadata>
<defs>
<font id="Avenir-Book" horiz-adv-x="2048" >
  <font-face 
    font-family="Avenir"
    font-weight="350"
    font-stretch="normal"
    units-per-em="2048"
    panose-1="2 11 5 3 2 2 3 2 2 4"
    ascent="1638"
    descent="-410"
    x-height="958"
    cap-height="1450"
    bbox="-344 -940 2855 2220"
    underline-thickness="102"
    underline-position="-255"
    unicode-range="U+000D-FEFC"
  />
<missing-glyph horiz-adv-x="1048" 
d="M1049 1470v-1470h-1049v1470h1049zM946 102v1264h-844v-1264h844zM530 1247q111 0 182.5 -74t71.5 -194q0 -74 -29 -127t-102 -121q-55 -51 -73 -77.5t-21 -71.5q-4 -50 -4 -103h-94q-4 32 -4 60q0 24 1.5 44.5t7.5 40.5t8 32.5t14 31.5t14.5 25.5t19.5 26t19 22t23.5 25
t23.5 24.5q4 4 17 17.5t16.5 17t13.5 15t13.5 16.5t10.5 15.5t9.5 17.5t6 17.5t4.5 21t1 22.5q0 72 -46.5 123t-109.5 51q-70 0 -113 -49.5t-55 -145.5l-102 17q12 136 83 208t193 72zM455 377h114v-137h-114v137z" />
    <glyph glyph-name="uniFE8E" unicode="&#x627;" horiz-adv-x="573" arabic-form="final" 
d="M573 0q-213 0 -312 86.5t-99 263.5v1198h135v-1190q0 -117 68 -173t208 -56q41 0 41 -66q0 -29 -10.5 -46t-30.5 -17z" />
    <glyph glyph-name="uniFE84" unicode="&#x623;" horiz-adv-x="573" arabic-form="final" 
d="M162 1548h135v-1190q0 -117 68 -173t208 -56q41 0 41 -66q0 -29 -10.5 -46t-30.5 -17q-213 0 -312 86.5t-99 263.5v1198zM401 1659h-331v72h75q-30 49 -30 104q0 70 48 112t124 42q33 0 96 -13l-14 -69q-30 10 -70 10q-48 0 -78.5 -24t-30.5 -68q0 -43 31 -94h180v-72z
" />
    <glyph glyph-name="uniFE88" unicode="&#x625;" horiz-adv-x="573" arabic-form="final" 
d="M162 350v1198h135v-1190q0 -117 68 -173t208 -56q41 0 41 -66q0 -29 -10.5 -46t-30.5 -17q-213 0 -312 86.5t-99 263.5zM121 -440h78q-31 51 -31 104q0 70 47 112t123 42q33 0 96 -13l-12 -69q-33 10 -72 10q-48 0 -78 -24t-30 -68t30 -94h181v-72h-332v72z" />
    <glyph glyph-name="uniFE82" unicode="&#x622;" horiz-adv-x="573" arabic-form="final" 
d="M354 1675q-55 0 -159.5 27t-135.5 27q-46 0 -96 -37l-49 57q75 70 152 70q38 0 139 -28t141 -28q33 0 55 10.5t60 41.5l55 -52q-58 -88 -162 -88zM573 0q-213 0 -312 86.5t-99 263.5v1198h135v-1190q0 -117 68 -173t208 -56q41 0 41 -66q0 -29 -10.5 -46t-30.5 -17z" />
    <glyph glyph-name="uniFB51" unicode="&#x671;" horiz-adv-x="573" arabic-form="final" 
d="M162 1548h135v-1190q0 -117 68 -173t208 -56q41 0 41 -66q0 -29 -10.5 -46t-30.5 -17q-213 0 -312 86.5t-99 263.5v1198zM-59 1659v72h102v202h72v-92q74 105 180 105q73 0 115.5 -47.5t42.5 -126.5q0 -57 -19 -113h-493zM109 1731h270q6 24 6 43q0 48 -26.5 74t-69.5 26
q-55 0 -103.5 -39.5t-76.5 -103.5z" />
    <glyph glyph-name="uniFE90" unicode="&#x628;" arabic-form="final" 
d="M2048 129q41 0 41 -66q0 -29 -10.5 -46t-30.5 -17q-246 0 -330 156q-47 -74 -133.5 -115t-206.5 -41h-819q-221 0 -345 103.5t-124 281.5q0 143 66 322l125 -35q-54 -182 -54 -262q0 -281 351 -281h786q140 0 207 66.5t67 214.5v415h136v-446q0 -250 274 -250zM901 -182
q40 0 64 -25t24 -65q0 -39 -24.5 -64.5t-63.5 -25.5q-41 0 -66.5 25.5t-25.5 64.5q0 40 25.5 65t66.5 25z" />
    <glyph glyph-name="uniFE92" unicode="&#x628;" horiz-adv-x="667" arabic-form="medial" 
d="M668 129q41 0 41 -66q0 -29 -10.5 -46t-30.5 -17q-244 0 -328 152q-89 -152 -340 -152v129q137 0 197.5 64.5t60.5 216.5v415h135v-446q0 -250 275 -250zM303 -182q40 0 64 -25t24 -65q0 -39 -24.5 -64.5t-63.5 -25.5q-41 0 -66.5 25.5t-25.5 64.5q0 40 25.5 65t66.5 25z
" />
    <glyph glyph-name="uniFE91" unicode="&#x628;" horiz-adv-x="514" arabic-form="initial" 
d="M0 0v129q137 0 197.5 64.5t60.5 216.5v415h135v-436q0 -202 -98.5 -295.5t-294.5 -93.5zM246 -362q-41 0 -66.5 25.5t-25.5 64.5q0 40 25.5 65t66.5 25q40 0 64 -25t24 -65q0 -39 -24.5 -64.5t-63.5 -25.5z" />
    <glyph glyph-name="uniFB57" unicode="&#x67e;" arabic-form="final" 
d="M2048 129q41 0 41 -66q0 -29 -10.5 -46t-30.5 -17q-246 0 -330 156q-47 -74 -133.5 -115t-206.5 -41h-819q-221 0 -345 103.5t-124 281.5q0 143 66 322l125 -35q-54 -182 -54 -262q0 -281 351 -281h786q140 0 207 66.5t67 214.5v415h136v-446q0 -250 274 -250zM846 -272
q0 -40 -25 -66.5t-63 -26.5t-64 26.5t-26 66.5q0 38 26 63t64 25t63 -25t25 -63zM1034 -184q38 0 63 -25t25 -63q0 -40 -25 -66.5t-63 -26.5t-64 26.5t-26 66.5q0 38 26 63t64 25zM899 -393q39 0 63.5 -26t24.5 -66q0 -37 -24.5 -62.5t-63.5 -25.5q-38 0 -64 25.5t-26 62.5
q0 40 26 66t64 26z" />
    <glyph glyph-name="uniFB59" unicode="&#x67e;" horiz-adv-x="665" arabic-form="medial" 
d="M666 129q41 0 41 -66q0 -29 -10.5 -46t-30.5 -17q-244 0 -328 152q-89 -152 -328 -152h-10v129h12q129 0 186.5 66t57.5 215v415h135v-446q0 -250 275 -250zM248 -272q0 -40 -25 -66.5t-63 -26.5t-64 26.5t-26 66.5q0 38 26 63t64 25t63 -25t25 -63zM436 -184
q38 0 63 -25t25 -63q0 -40 -25 -66.5t-63 -26.5t-64 26.5t-26 66.5q0 38 26 63t64 25zM301 -393q39 0 63.5 -26t24.5 -66q0 -37 -24.5 -62.5t-63.5 -25.5q-38 0 -64 25.5t-26 62.5q0 40 26 66t64 26z" />
    <glyph glyph-name="uniFB58" unicode="&#x67e;" horiz-adv-x="638" arabic-form="initial" 
d="M0 0v129h12q129 0 186.5 66t57.5 215v415h135v-436q0 -389 -381 -389h-10zM100 -365q-38 0 -64 26.5t-26 66.5q0 38 26 63t64 25t63 -25t25 -63q0 -40 -25 -66.5t-63 -26.5zM377 -365q-38 0 -64 26.5t-26 66.5q0 38 26 63t64 25t63 -25t25 -63q0 -40 -25 -66.5t-63 -26.5
zM242 -573q-38 0 -64 25.5t-26 62.5q0 40 26 66t64 26q39 0 63.5 -26t24.5 -66q0 -37 -24.5 -62.5t-63.5 -25.5z" />
    <glyph glyph-name="uniFE96" unicode="&#x62a;" arabic-form="final" 
d="M780 883q-39 0 -64.5 25.5t-25.5 64.5q0 38 26 64t64 26t63 -26t25 -64q0 -40 -25 -65t-63 -25zM1057 883q-39 0 -64.5 25.5t-25.5 64.5q0 38 26 64t64 26t63 -26t25 -64q0 -40 -25 -65t-63 -25zM2048 129q41 0 41 -66q0 -29 -10.5 -46t-30.5 -17q-246 0 -330 156
q-47 -74 -133.5 -115t-206.5 -41h-819q-221 0 -345 103.5t-124 281.5q0 143 66 322l125 -35q-54 -182 -54 -262q0 -281 351 -281h786q140 0 207 66.5t67 214.5v415h136v-446q0 -250 274 -250z" />
    <glyph glyph-name="uniFE98" unicode="&#x62a;" horiz-adv-x="665" arabic-form="medial" 
d="M182 1067q-39 0 -64.5 25.5t-25.5 64.5q0 38 26 64t64 26t63 -26t25 -64q0 -40 -25 -65t-63 -25zM459 1067q-39 0 -64.5 25.5t-25.5 64.5q0 38 26 64t64 26t63 -26t25 -64q0 -40 -25 -65t-63 -25zM666 129q41 0 41 -66q0 -29 -10.5 -46t-30.5 -17q-244 0 -328 152
q-89 -152 -328 -152h-10v129h12q129 0 186.5 66t57.5 215v415h135v-446q0 -250 275 -250z" />
    <glyph glyph-name="uniFE97" unicode="&#x62a;" horiz-adv-x="573" arabic-form="initial" 
d="M182 1067q-39 0 -64.5 25.5t-25.5 64.5q0 38 26 64t64 26t63 -26t25 -64q0 -40 -25 -65t-63 -25zM459 1067q-39 0 -64.5 25.5t-25.5 64.5q0 38 26 64t64 26t63 -26t25 -64q0 -40 -25 -65t-63 -25zM0 0v129h12q129 0 186.5 66t57.5 215v415h135v-436q0 -389 -381 -389h-10
z" />
    <glyph glyph-name="uniFE9A" unicode="&#x62b;" arabic-form="final" 
d="M924 1100q-39 0 -64.5 25.5t-25.5 64.5q0 37 26 63.5t64 26.5t63 -26.5t25 -63.5q0 -40 -25 -65t-63 -25zM780 887q-39 0 -64.5 25.5t-25.5 64.5q0 38 26 64t64 26t63 -26t25 -64q0 -40 -25 -65t-63 -25zM967 977q0 38 26 64t64 26t63 -26t25 -64q0 -40 -25 -65t-63 -25
q-39 0 -64.5 25.5t-25.5 64.5zM2048 129q41 0 41 -66q0 -29 -10.5 -46t-30.5 -17q-246 0 -330 156q-47 -74 -133.5 -115t-206.5 -41h-819q-221 0 -345 103.5t-124 281.5q0 143 66 322l125 -35q-54 -182 -54 -262q0 -281 351 -281h786q140 0 207 66.5t67 214.5v415h136v-446
q0 -250 274 -250z" />
    <glyph glyph-name="uniFE9C" unicode="&#x62b;" horiz-adv-x="665" arabic-form="medial" 
d="M326 1284q-39 0 -64.5 25.5t-25.5 64.5q0 37 26 63.5t64 26.5t63 -26.5t25 -63.5q0 -40 -25 -65t-63 -25zM182 1071q-39 0 -64.5 25.5t-25.5 64.5q0 38 26 64t64 26t63 -26t25 -64q0 -40 -25 -65t-63 -25zM369 1161q0 38 26 64t64 26t63 -26t25 -64q0 -40 -25 -65
t-63 -25q-39 0 -64.5 25.5t-25.5 64.5zM666 129q41 0 41 -66q0 -29 -10.5 -46t-30.5 -17q-244 0 -328 152q-89 -152 -328 -152h-10v129h12q129 0 186.5 66t57.5 215v415h135v-446q0 -250 275 -250z" />
    <glyph glyph-name="uniFE9B" unicode="&#x62b;" horiz-adv-x="573" arabic-form="initial" 
d="M326 1284q-39 0 -64.5 25.5t-25.5 64.5q0 37 26 63.5t64 26.5t63 -26.5t25 -63.5q0 -40 -25 -65t-63 -25zM182 1071q-39 0 -64.5 25.5t-25.5 64.5q0 38 26 64t64 26t63 -26t25 -64q0 -40 -25 -65t-63 -25zM459 1071q-39 0 -64.5 25.5t-25.5 64.5q0 38 26 64t64 26t63 -26
t25 -64q0 -40 -25 -65t-63 -25zM0 0v129h12q129 0 186.5 66t57.5 215v415h135v-436q0 -389 -381 -389h-10z" />
    <glyph glyph-name="uniFB67" unicode="&#x679;" arabic-form="final" 
d="M90 385q0 143 66 322l125 -35q-54 -182 -54 -262q0 -281 351 -281h786q140 0 207 66.5t67 214.5v415h136v-446q0 -250 274 -250q41 0 41 -66q0 -29 -10.5 -46t-30.5 -17q-246 0 -330 156q-47 -74 -133.5 -115t-206.5 -41h-819q-221 0 -345 103.5t-124 281.5zM641 965h102
v344h72v-215q77 100 182 100q79 0 125.5 -53t46.5 -140q0 -60 -18 -110h-510v74zM993 1122q-53 0 -101.5 -41t-76.5 -116h281q4 28 4 39q0 54 -29.5 86t-77.5 32z" />
    <glyph glyph-name="uniFB69" unicode="&#x679;" horiz-adv-x="667" arabic-form="medial" 
d="M340 152q-89 -152 -340 -152v129q137 0 197.5 64.5t60.5 216.5v415h135v-446q0 -250 275 -250q41 0 41 -66q0 -29 -10.5 -46t-30.5 -17q-244 0 -328 152zM555 1075h-510v74h102v344h72v-215q77 100 182 100q79 0 125.5 -52.5t46.5 -139.5q0 -61 -18 -111zM219 1149h281
q4 28 4 39q0 54 -29.5 86.5t-77.5 32.5q-53 0 -101.5 -41t-76.5 -117z" />
    <glyph glyph-name="uniFB68" unicode="&#x679;" horiz-adv-x="514" arabic-form="initial" 
d="M0 0v129q137 0 197.5 64.5t60.5 216.5v415h135v-436q0 -202 -98.5 -295.5t-294.5 -93.5zM555 1075h-510v74h102v344h72v-215q77 100 182 100q79 0 125.5 -52.5t46.5 -139.5q0 -61 -18 -111zM219 1149h281q4 28 4 39q0 54 -29.5 86.5t-77.5 32.5q-53 0 -101.5 -41
t-76.5 -117z" />
    <glyph glyph-name="uniFE9E" unicode="&#x62c;" horiz-adv-x="1359" arabic-form="final" 
d="M473 -532q-175 0 -283 88.5t-108 246.5q0 149 95 237.5t255 88.5h543q20 82 20 166q0 193 -104 306.5t-305 113.5q-109 0 -230 -39l-30 123q140 49 280 49q255 0 387.5 -146.5t132.5 -396.5q0 -91 -14 -176h248q41 0 41 -66q0 -29 -10.5 -46t-30.5 -17h-914
q-108 0 -166.5 -51t-58.5 -146q0 -100 69.5 -152t198.5 -52q65 0 121 12l27 -125q-70 -18 -164 -18zM512 -184q0 37 23 59.5t61 22.5q37 0 58.5 -22.5t21.5 -59.5q0 -36 -22 -60t-58 -24q-38 0 -61 24t-23 60z" />
    <glyph glyph-name="uniFEA0" unicode="&#x62c;" horiz-adv-x="1105" arabic-form="medial" 
d="M0 129h719q15 59 18.5 122.5t-4.5 130.5t-36.5 125.5t-73.5 105.5t-120 74.5t-171 27.5q-109 0 -230 -39l-32 123q140 49 282 49q203 0 330.5 -92.5t169.5 -252.5t6 -374h248q41 0 41 -66q0 -29 -10.5 -46t-30.5 -17h-1106v129zM406 -362q-41 0 -67 25.5t-26 64.5
q0 40 26 65t67 25q40 0 64 -25t24 -65q0 -39 -24.5 -64.5t-63.5 -25.5z" />
    <glyph glyph-name="uniFE9F" unicode="&#x62c;" horiz-adv-x="1005" arabic-form="initial" 
d="M0 0v129h719q15 59 18.5 122.5t-4.5 130.5t-36.5 125.5t-73.5 105.5t-120 74.5t-171 27.5q-109 0 -230 -39l-32 123q140 49 282 49q135 0 237.5 -41t165.5 -116.5t93 -180.5t25 -234t-44 -276h-829zM406 -362q-41 0 -67 25.5t-26 64.5q0 40 26 65t67 25q40 0 64 -25
t24 -65q0 -39 -24.5 -64.5t-63.5 -25.5z" />
    <glyph glyph-name="uniFB7B" unicode="&#x686;" horiz-adv-x="1359" arabic-form="final" 
d="M473 -532q-175 0 -283 88.5t-108 246.5q0 149 95 237.5t255 88.5h543q20 82 20 166q0 193 -104 306.5t-305 113.5q-109 0 -230 -39l-30 123q140 49 280 49q255 0 387.5 -146.5t132.5 -396.5q0 -91 -14 -176h248q41 0 41 -66q0 -29 -10.5 -46t-30.5 -17h-914
q-108 0 -166.5 -51t-58.5 -146q0 -100 69.5 -152t198.5 -52q65 0 121 12l27 -125q-70 -18 -164 -18zM702 -387q-26 0 -43.5 17.5t-17.5 43.5q0 28 17.5 47t43.5 19q29 0 46.5 -19t17.5 -47q0 -27 -17.5 -44t-46.5 -17zM735 -176q0 26 18 43.5t46 17.5q26 0 43.5 -17.5
t17.5 -43.5q0 -28 -17.5 -47t-43.5 -19q-28 0 -46 19t-18 47zM604 -242q-26 0 -44.5 19t-18.5 47q0 26 18.5 43.5t44.5 17.5q28 0 45 -17.5t17 -43.5q0 -28 -17.5 -47t-44.5 -19z" />
    <glyph glyph-name="uniFB7D" unicode="&#x686;" horiz-adv-x="1105" arabic-form="medial" 
d="M0 129h719q15 59 18.5 122.5t-4.5 130.5t-36.5 125.5t-73.5 105.5t-120 74.5t-171 27.5q-109 0 -230 -39l-32 123q140 49 282 49q203 0 330.5 -92.5t169.5 -252.5t6 -374h248q41 0 41 -66q0 -29 -10.5 -46t-30.5 -17h-1106v129zM313 -485q0 40 26 66t64 26q39 0 64 -26
t25 -66q0 -37 -25 -62.5t-64 -25.5q-38 0 -64 25.5t-26 62.5zM449 -272q0 38 26 63t64 25t63 -25t25 -63q0 -40 -25 -66.5t-63 -26.5t-64 26.5t-26 66.5zM172 -272q0 38 26 63t64 25t63 -25t25 -63q0 -40 -25 -66.5t-63 -26.5t-64 26.5t-26 66.5z" />
    <glyph glyph-name="uniFB7C" unicode="&#x686;" horiz-adv-x="1005" arabic-form="initial" 
d="M0 0v129h719q15 59 18.5 122.5t-4.5 130.5t-36.5 125.5t-73.5 105.5t-120 74.5t-171 27.5q-109 0 -230 -39l-32 123q140 49 282 49q135 0 237.5 -41t165.5 -116.5t93 -180.5t25 -234t-44 -276h-829zM262 -365q-38 0 -64 26.5t-26 66.5q0 38 26 63t64 25t63 -25t25 -63
q0 -40 -25 -66.5t-63 -26.5zM539 -365q-38 0 -64 26.5t-26 66.5q0 38 26 63t64 25t63 -25t25 -63q0 -40 -25 -66.5t-63 -26.5zM403 -573q-38 0 -64 25.5t-26 62.5q0 40 26 66t64 26q39 0 64 -26t25 -66q0 -37 -25 -62.5t-64 -25.5z" />
    <glyph glyph-name="uniFEA2" unicode="&#x62d;" horiz-adv-x="1359" arabic-form="final" 
d="M473 -532q-175 0 -283 88.5t-108 246.5q0 149 95 237.5t255 88.5h543q20 82 20 166q0 193 -104 306.5t-305 113.5q-109 0 -230 -39l-30 123q140 49 280 49q255 0 387.5 -146.5t132.5 -396.5q0 -91 -14 -176h248q41 0 41 -66q0 -29 -10.5 -46t-30.5 -17h-914
q-108 0 -166.5 -51t-58.5 -146q0 -100 69.5 -152t198.5 -52q69 0 187 28l24 -123q-113 -36 -227 -36z" />
    <glyph glyph-name="uniFEA4" unicode="&#x62d;" horiz-adv-x="1105" arabic-form="medial" 
d="M0 0v129h719q15 59 18.5 122.5t-4.5 130.5t-36.5 125.5t-73.5 105.5t-120 74.5t-171 27.5q-109 0 -230 -39l-32 123q140 49 282 49q203 0 330.5 -92.5t169.5 -252.5t6 -374h248q41 0 41 -66q0 -29 -10.5 -46t-30.5 -17h-1106z" />
    <glyph glyph-name="uniFEA3" unicode="&#x62d;" horiz-adv-x="1005" arabic-form="initial" 
d="M0 0v129h719q15 59 18.5 122.5t-4.5 130.5t-36.5 125.5t-73.5 105.5t-120 74.5t-171 27.5q-109 0 -230 -39l-32 123q140 49 282 49q135 0 237.5 -41t165.5 -116.5t93 -180.5t25 -234t-44 -276h-829z" />
    <glyph glyph-name="uniFEA6" unicode="&#x62e;" horiz-adv-x="1359" arabic-form="final" 
d="M82 -197q0 149 95 237.5t255 88.5h543q20 82 20 166q0 193 -104 306.5t-305 113.5q-109 0 -230 -39l-30 123q140 49 280 49q255 0 387.5 -146.5t132.5 -396.5q0 -91 -14 -176h248q41 0 41 -66q0 -29 -10.5 -46t-30.5 -17h-914q-108 0 -166.5 -51t-58.5 -146
q0 -100 69.5 -152t198.5 -52q69 0 187 28l24 -123q-113 -36 -227 -36q-175 0 -283 88.5t-108 246.5zM606 1090q-41 0 -66.5 25t-25.5 65q0 39 25.5 64.5t66.5 25.5q39 0 63.5 -25.5t24.5 -64.5q0 -40 -24 -65t-64 -25z" />
    <glyph glyph-name="uniFEA8" unicode="&#x62e;" horiz-adv-x="1105" arabic-form="medial" 
d="M0 0v129h719q15 59 18.5 122.5t-4.5 130.5t-36.5 125.5t-73.5 105.5t-120 74.5t-171 27.5q-109 0 -230 -39l-32 123q140 49 282 49q203 0 330.5 -92.5t169.5 -252.5t6 -374h248q41 0 41 -66q0 -29 -10.5 -46t-30.5 -17h-1106zM352 1090q-41 0 -66.5 25t-25.5 65
q0 39 25.5 64.5t66.5 25.5q39 0 63.5 -25.5t24.5 -64.5q0 -40 -24 -65t-64 -25z" />
    <glyph glyph-name="uniFEA7" unicode="&#x62e;" horiz-adv-x="1005" arabic-form="initial" 
d="M352 1090q-41 0 -66.5 25t-25.5 65q0 39 25.5 64.5t66.5 25.5q39 0 63.5 -25.5t24.5 -64.5q0 -40 -24 -65t-64 -25zM0 0v129h719q15 59 18.5 122.5t-4.5 130.5t-36.5 125.5t-73.5 105.5t-120 74.5t-171 27.5q-109 0 -230 -39l-32 123q140 49 282 49q135 0 237.5 -41
t165.5 -116.5t93 -180.5t25 -234t-44 -276h-829z" />
    <glyph glyph-name="uniFEAA" unicode="&#x62f;" horiz-adv-x="1138" arabic-form="final" 
d="M82 129h694v41q0 336 -416 606l80 111q136 -89 228.5 -178.5t145.5 -183.5t75 -188t22 -208h228q41 0 41 -66q0 -29 -10.5 -46t-30.5 -17h-1057v129z" />
    <glyph glyph-name="uniFEAC" unicode="&#x630;" horiz-adv-x="1138" arabic-form="final" 
d="M82 0v129h694v41q0 336 -416 606l80 111q136 -89 228.5 -178.5t145.5 -183.5t75 -188t22 -208h228q41 0 41 -66q0 -29 -10.5 -46t-30.5 -17h-1057zM301 1165q0 39 25.5 64.5t66.5 25.5q39 0 63.5 -25.5t24.5 -64.5q0 -40 -24 -65t-64 -25q-41 0 -66.5 25t-25.5 65z" />
    <glyph glyph-name="uniFB89" unicode="&#x688;" horiz-adv-x="1138" arabic-form="final" 
d="M82 0v129h694v41q0 336 -416 606l80 111q136 -89 228.5 -178.5t145.5 -183.5t75 -188t22 -208h228q41 0 41 -66q0 -29 -10.5 -46t-30.5 -17h-1057zM113 1157h102v344h72v-215q77 100 182 100q79 0 125.5 -52.5t46.5 -139.5q0 -61 -18 -111h-510v74zM465 1315
q-53 0 -101.5 -41t-76.5 -117h280q4 28 4 39q0 54 -29.5 86.5t-76.5 32.5z" />
    <glyph glyph-name="uniFEAE" unicode="&#x631;" horiz-adv-x="698" arabic-form="final" 
d="M698 129q41 0 41 -66q0 -29 -10.5 -46t-30.5 -17h-282v4q-61 -310 -398 -356l-26 125q161 27 232 109t71 255v688h135v-696h268z" />
    <glyph glyph-name="uniFEB0" unicode="&#x632;" horiz-adv-x="698" arabic-form="final" 
d="M362 1067q-41 0 -66.5 25t-25.5 65q0 39 25.5 64.5t66.5 25.5q39 0 64 -25.5t25 -64.5q0 -40 -24.5 -65t-64.5 -25zM698 129q41 0 41 -66q0 -29 -10.5 -46t-30.5 -17h-282v4q-61 -310 -398 -356l-26 125q161 27 232 109t71 255v688h135v-696h268z" />
    <glyph glyph-name="uniFB8D" unicode="&#x691;" horiz-adv-x="698" arabic-form="final" 
d="M18 -352l-26 125q161 27 232 109t71 255v688h135v-696h268q41 0 41 -66q0 -29 -10.5 -46t-30.5 -17h-282v4q-61 -310 -398 -356zM592 1075h-510v74h102v344h72v-215q77 100 182 100q79 0 125.5 -52.5t46.5 -139.5q0 -61 -18 -111zM256 1149h281q4 28 4 39
q0 54 -29.5 86.5t-77.5 32.5q-53 0 -101.5 -41t-76.5 -117z" />
    <glyph glyph-name="uniFB8B" unicode="&#x698;" horiz-adv-x="698" arabic-form="final" 
d="M365 1284q-39 0 -65 25.5t-26 64.5q0 37 26.5 63.5t64.5 26.5t63 -26.5t25 -63.5q0 -40 -25 -65t-63 -25zM221 1071q-39 0 -64.5 25.5t-25.5 64.5q0 38 26 64t64 26t63 -26t25 -64q0 -40 -25 -65t-63 -25zM408 1161q0 38 26 64t64 26t63 -26t25 -64q0 -40 -25 -65
t-63 -25q-39 0 -64.5 25.5t-25.5 64.5zM698 129q41 0 41 -66q0 -29 -10.5 -46t-30.5 -17h-282v4q-61 -310 -398 -356l-26 125q161 27 232 109t71 255v688h135v-696h268z" />
    <glyph glyph-name="uniFEB2" unicode="&#x633;" horiz-adv-x="2598" arabic-form="final" 
d="M90 131q0 161 84 363l121 -41q-68 -172 -68 -306q0 -176 106.5 -264t297.5 -88q407 0 407 395v486h136v-354q0 -193 212 -193q111 0 167.5 60t56.5 208v279h135v-348q0 -199 223 -199q117 0 169 66t52 215v415h135v-446q0 -250 275 -250q41 0 41 -66q0 -29 -10.5 -46
t-30.5 -17q-240 0 -326 147q-89 -147 -303 -147q-101 0 -174 36.5t-110 104.5q-84 -145 -300 -145q-151 0 -217 84q-24 -202 -168 -309t-374 -107q-258 0 -397.5 128.5t-139.5 338.5z" />
    <glyph glyph-name="uniFEB4" unicode="&#x633;" horiz-adv-x="1828" arabic-form="medial" 
d="M0 0v129h29q123 0 182 58.5t59 209.5v279h136v-350q0 -197 210 -197q113 0 169.5 60t56.5 208v279h135v-348q0 -199 221 -199q118 0 169.5 65.5t51.5 215.5v415h135v-446q0 -250 275 -250q41 0 41 -66q0 -29 -10.5 -46t-30.5 -17q-240 0 -326 147q-89 -147 -303 -147
q-100 0 -173 37.5t-109 105.5q-82 -143 -300 -143q-210 0 -274 133q-39 -59 -121.5 -96t-195.5 -37h-27z" />
    <glyph glyph-name="uniFEB3" unicode="&#x633;" horiz-adv-x="1675" arabic-form="initial" 
d="M0 129h29q123 0 182 58.5t59 209.5v279h136v-350q0 -197 210 -197q113 0 169.5 60t56.5 208v279h135v-348q0 -199 221 -199q118 0 169.5 65.5t51.5 215.5v415h135v-471q0 -168 -93 -261t-261 -93q-100 0 -173 37.5t-109 105.5q-82 -143 -300 -143q-210 0 -274 133
q-39 -59 -121.5 -96t-195.5 -37h-27v129z" />
    <glyph glyph-name="uniFEB6" unicode="&#x634;" horiz-adv-x="2598" arabic-form="final" 
d="M90 131q0 161 84 363l121 -41q-68 -172 -68 -306q0 -176 106.5 -264t297.5 -88q407 0 407 395v486h136v-354q0 -193 212 -193q111 0 167.5 60t56.5 208v279h135v-348q0 -199 223 -199q117 0 169 66t52 215v415h135v-446q0 -250 275 -250q41 0 41 -66q0 -29 -10.5 -46
t-30.5 -17q-240 0 -326 147q-89 -147 -303 -147q-101 0 -174 36.5t-110 104.5q-84 -145 -300 -145q-151 0 -217 84q-24 -202 -168 -309t-374 -107q-258 0 -397.5 128.5t-139.5 338.5zM1448 1012q0 38 26 64t64 26t63 -26t25 -64q0 -40 -25 -65t-63 -25q-39 0 -64.5 25.5
t-25.5 64.5zM1815 922q-39 0 -65 25.5t-26 64.5q0 38 26.5 64t64.5 26t63 -26t25 -64q0 -40 -25 -65t-63 -25zM1591 1225q0 37 26 63.5t64 26.5t63 -26.5t25 -63.5q0 -40 -25 -65t-63 -25q-39 0 -64.5 25.5t-25.5 64.5z" />
    <glyph glyph-name="uniFEB8" unicode="&#x634;" horiz-adv-x="1828" arabic-form="medial" 
d="M0 0v129h29q123 0 182 58.5t59 209.5v279h136v-350q0 -197 210 -197q113 0 169.5 60t56.5 208v279h135v-348q0 -199 221 -199q118 0 169.5 65.5t51.5 215.5v415h135v-446q0 -250 275 -250q41 0 41 -66q0 -29 -10.5 -46t-30.5 -17q-240 0 -326 147q-89 -147 -303 -147
q-100 0 -173 37.5t-109 105.5q-82 -143 -300 -143q-210 0 -274 133q-39 -59 -121.5 -96t-195.5 -37h-27zM678 1012q0 38 26 64t64 26t63 -26t25 -64q0 -40 -25 -65t-63 -25q-39 0 -64.5 25.5t-25.5 64.5zM1044 922q-39 0 -64.5 25.5t-25.5 64.5q0 38 26 64t64 26t63.5 -26
t25.5 -64q0 -40 -25.5 -65t-63.5 -25zM911 1135q-39 0 -64.5 25.5t-25.5 64.5q0 37 26 63.5t64 26.5t63 -26.5t25 -63.5q0 -40 -25 -65t-63 -25z" />
    <glyph glyph-name="uniFEB7" unicode="&#x634;" horiz-adv-x="1675" arabic-form="initial" 
d="M0 0v129h29q123 0 182 58.5t59 209.5v279h136v-350q0 -197 210 -197q113 0 169.5 60t56.5 208v279h135v-348q0 -199 221 -199q118 0 169.5 65.5t51.5 215.5v415h135v-471q0 -168 -93 -261t-261 -93q-100 0 -173 37.5t-109 105.5q-82 -143 -300 -143q-210 0 -274 133
q-39 -59 -121.5 -96t-195.5 -37h-27zM678 1012q0 38 26 64t64 26t63 -26t25 -64q0 -40 -25 -65t-63 -25q-39 0 -64.5 25.5t-25.5 64.5zM954 1012q0 38 26 64t64 26t63.5 -26t25.5 -64q0 -40 -25.5 -65t-63.5 -25q-39 0 -64.5 25.5t-25.5 64.5zM911 1135q-39 0 -64.5 25.5
t-25.5 64.5q0 37 26 63.5t64 26.5t63 -26.5t25 -63.5q0 -40 -25 -65t-63 -25z" />
    <glyph glyph-name="uniFEBA" unicode="&#x635;" horiz-adv-x="2813" arabic-form="final" 
d="M90 131q0 161 84 363l121 -41q-68 -172 -68 -306q0 -176 106.5 -264t297.5 -88q407 0 407 395v486h136v-383q0 -120 124 -154q93 170 192 299t185.5 205t175.5 124t159 64.5t140 16.5q144 0 245 -65.5t149.5 -177t48.5 -259.5q0 -98 -25 -217h246q41 0 41 -66
q0 -29 -10.5 -46t-30.5 -17h-1421q-144 0 -226 66q-27 -195 -171 -298.5t-369 -103.5q-258 0 -397.5 128.5t-139.5 338.5zM2136 715q-170 0 -346.5 -142t-347.5 -444h981q33 106 33 211q0 167 -83.5 271t-236.5 104z" />
    <glyph glyph-name="uniFEBC" unicode="&#x635;" horiz-adv-x="1992" arabic-form="medial" 
d="M0 0v129q116 0 167.5 62t51.5 206v287h135v-358q0 -149 125 -185q92 169 190.5 298t185 205t175.5 123.5t159 64t140 16.5q144 0 245 -65.5t149.5 -177t48.5 -259.5q0 -98 -25 -217h246q41 0 41 -66q0 -29 -10.5 -46t-30.5 -17h-1422q-209 0 -274 129q-68 -129 -297 -129
zM621 129h981q32 103 32 211q0 167 -83 271t-236 104q-170 0 -346.5 -142t-347.5 -444z" />
    <glyph glyph-name="uniFEBB" unicode="&#x635;" horiz-adv-x="1902" arabic-form="initial" 
d="M1329 848q144 0 245 -65.5t149.5 -177t48.5 -259.5q0 -160 -62 -346h-1139q-209 0 -274 129q-68 -129 -297 -129v129q116 0 167.5 62t51.5 206v287h135v-358q0 -149 125 -185q92 169 190.5 298t185 205t175.5 123.5t159 64t140 16.5zM1602 129q32 103 32 211
q0 167 -83 271t-236 104q-170 0 -346.5 -142t-347.5 -444h981z" />
    <glyph glyph-name="uniFEBE" unicode="&#x636;" horiz-adv-x="2813" arabic-form="final" 
d="M90 131q0 161 84 363l121 -41q-68 -172 -68 -306q0 -176 106.5 -264t297.5 -88q407 0 407 395v486h136v-383q0 -120 124 -154q93 170 192 299t185.5 205t175.5 124t159 64.5t140 16.5q144 0 245 -65.5t149.5 -177t48.5 -259.5q0 -98 -25 -217h246q41 0 41 -66
q0 -29 -10.5 -46t-30.5 -17h-1421q-144 0 -226 66q-27 -195 -171 -298.5t-369 -103.5q-258 0 -397.5 128.5t-139.5 338.5zM2136 715q-170 0 -346.5 -142t-347.5 -444h981q33 106 33 211q0 167 -83.5 271t-236.5 104zM1878 1180q0 39 25.5 64.5t66.5 25.5q39 0 63.5 -25.5
t24.5 -64.5q0 -40 -24 -65t-64 -25q-41 0 -66.5 25t-25.5 65z" />
    <glyph glyph-name="uniFEC0" unicode="&#x636;" horiz-adv-x="1992" arabic-form="medial" 
d="M0 0v129q116 0 167.5 62t51.5 206v287h135v-358q0 -149 125 -185q92 169 190.5 298t185 205t175.5 123.5t159 64t140 16.5q144 0 245 -65.5t149.5 -177t48.5 -259.5q0 -98 -25 -217h246q41 0 41 -66q0 -29 -10.5 -46t-30.5 -17h-1422q-209 0 -274 129q-68 -129 -297 -129
zM621 129h981q32 103 32 211q0 167 -83 271t-236 104q-170 0 -346.5 -142t-347.5 -444zM1149 1090q-41 0 -66.5 25t-25.5 65q0 39 25.5 64.5t66.5 25.5q39 0 63.5 -25.5t24.5 -64.5q0 -40 -24 -65t-64 -25z" />
    <glyph glyph-name="uniFEBF" unicode="&#x636;" horiz-adv-x="1902" arabic-form="initial" 
d="M1149 1090q-41 0 -66.5 25t-25.5 65q0 39 25.5 64.5t66.5 25.5q39 0 63.5 -25.5t24.5 -64.5q0 -40 -24 -65t-64 -25zM1329 848q144 0 245 -65.5t149.5 -177t48.5 -259.5q0 -160 -62 -346h-1139q-209 0 -274 129q-68 -129 -297 -129v129q116 0 167.5 62t51.5 206v287h135
v-358q0 -149 125 -185q92 169 190.5 298t185 205t175.5 123.5t159 64t140 16.5zM1602 129q32 103 32 211q0 167 -83 271t-236 104q-170 0 -346.5 -142t-347.5 -444h981z" />
    <glyph glyph-name="uniFEC2" unicode="&#x637;" horiz-adv-x="1832" arabic-form="final" 
d="M90 129h225v1419h136v-1196q157 245 344.5 370.5t373.5 125.5q108 0 193.5 -39.5t139 -108.5t81 -159t27.5 -195q0 -95 -25 -217h248q41 0 41 -66q0 -29 -10.5 -46t-30.5 -17h-1743v129zM455 129h987q31 115 31 217q0 166 -81.5 267.5t-234.5 101.5q-114 0 -236 -64.5
t-245 -199t-221 -322.5z" />
    <glyph glyph-name="uniFEC4" unicode="&#x637;" horiz-adv-x="1720" arabic-form="medial" 
d="M0 129h213v1419h135v-1196q157 244 344.5 370t374.5 126q108 0 193.5 -39.5t138.5 -108.5t80.5 -159t27.5 -195q0 -100 -24 -217h237q41 0 41 -66q0 -29 -10.5 -46t-30.5 -17h-1720v129zM352 129h987q31 115 31 217q0 166 -81 267.5t-234 101.5q-114 0 -236 -64.5
t-246 -199t-221 -322.5z" />
    <glyph glyph-name="uniFEC3" unicode="&#x637;" horiz-adv-x="1638" arabic-form="initial" 
d="M0 0v129h213v1419h135v-1196q157 244 344.5 370t374.5 126q108 0 193.5 -39.5t138.5 -108.5t80.5 -159t27.5 -195q0 -166 -59 -346h-1448zM352 129h987q31 115 31 217q0 166 -81 267.5t-234 101.5q-114 0 -236 -64.5t-246 -199t-221 -322.5z" />
    <glyph glyph-name="uniFEC6" unicode="&#x638;" horiz-adv-x="1832" arabic-form="final" 
d="M90 129h225v1419h136v-1196q157 245 344.5 370.5t373.5 125.5q108 0 193.5 -39.5t139 -108.5t81 -159t27.5 -195q0 -95 -25 -217h248q41 0 41 -66q0 -29 -10.5 -46t-30.5 -17h-1743v129zM455 129h987q31 115 31 217q0 166 -81.5 267.5t-234.5 101.5q-114 0 -236 -64.5
t-245 -199t-221 -322.5zM1026 1090q-41 0 -66.5 25t-25.5 65q0 39 25.5 64.5t66.5 25.5q39 0 63.5 -25.5t24.5 -64.5q0 -40 -24 -65t-64 -25z" />
    <glyph glyph-name="uniFEC8" unicode="&#x638;" horiz-adv-x="1720" arabic-form="medial" 
d="M0 129h213v1419h135v-1196q157 244 344.5 370t374.5 126q108 0 193.5 -39.5t138.5 -108.5t80.5 -159t27.5 -195q0 -100 -24 -217h237q41 0 41 -66q0 -29 -10.5 -46t-30.5 -17h-1720v129zM352 129h987q31 115 31 217q0 166 -81 267.5t-234 101.5q-114 0 -236 -64.5
t-246 -199t-221 -322.5zM924 1090q-41 0 -67 25t-26 65q0 39 26 64.5t67 25.5q39 0 63.5 -25.5t24.5 -64.5q0 -40 -24 -65t-64 -25z" />
    <glyph glyph-name="uniFEC7" unicode="&#x638;" horiz-adv-x="1638" arabic-form="initial" 
d="M0 0v129h213v1419h135v-1196q157 244 344.5 370t374.5 126q108 0 193.5 -39.5t138.5 -108.5t80.5 -159t27.5 -195q0 -166 -59 -346h-1448zM352 129h987q31 115 31 217q0 166 -81 267.5t-234 101.5q-114 0 -236 -64.5t-246 -199t-221 -322.5zM831 1180q0 39 26 64.5
t67 25.5q39 0 63.5 -25.5t24.5 -64.5q0 -40 -24 -65t-64 -25q-41 0 -67 25t-26 65z" />
    <glyph glyph-name="uniFECA" unicode="&#x639;" horiz-adv-x="1181" arabic-form="final" 
d="M1182 129q41 0 41 -66q0 -63 -41 -63h-176q-276 0 -453 88q-332 -111 -332 -295q0 -98 72.5 -146t202.5 -48q96 0 184 24l25 -123q-100 -32 -209 -32q-194 0 -304 82t-110 241q0 258 377 397q-32 46 -74 98t-72 86.5t-84 95t-79 89.5q7 84 28 145q218 146 440 146
q173 0 279.5 -79.5t106.5 -215.5q0 -115 -75.5 -215t-205.5 -178q113 -31 272 -31h187zM264 612q124 -105 328 -374q125 58 198.5 136t73.5 158q0 79 -69 131t-193 52q-174 0 -336 -90z" />
    <glyph glyph-name="uniFECC" unicode="&#x639;" horiz-adv-x="1196" arabic-form="medial" 
d="M70 0h-70v129h82q233 0 385 51q-34 47 -77 100t-74 87t-87.5 95t-81.5 89q12 99 31 149q82 55 196 99.5t244 44.5q174 0 278.5 -80t104.5 -219q0 -215 -272 -381q137 -35 313 -35h154q41 0 41 -66q0 -29 -10.5 -46t-30.5 -17h-143q-123 0 -254.5 21t-227.5 61
q-110 -45 -228 -63.5t-273 -18.5zM264 614l-2 -12q156 -132 336 -366q124 61 194 136.5t70 153.5q0 80 -70.5 133.5t-199.5 53.5q-162 0 -328 -99z" />
    <glyph glyph-name="uniFECB" unicode="&#x639;" horiz-adv-x="983" arabic-form="initial" 
d="M0 129h283q-103 150 -103 311q0 181 121.5 294.5t343.5 113.5q105 0 223 -31l-26 -127q-102 25 -195 25q-155 0 -242.5 -75t-87.5 -202q0 -147 125 -309h471v-129h-913v129z" />
    <glyph glyph-name="uniFECE" unicode="&#x63a;" horiz-adv-x="1181" arabic-form="final" 
d="M614 1090q-41 0 -66.5 25t-25.5 65q0 39 25.5 64.5t66.5 25.5q39 0 63.5 -25.5t24.5 -64.5q0 -40 -24 -65t-64 -25zM1182 129q41 0 41 -66q0 -63 -41 -63h-176q-276 0 -453 88q-332 -111 -332 -295q0 -98 72.5 -146t202.5 -48q96 0 184 24l25 -123q-100 -32 -209 -32
q-194 0 -304 82t-110 241q0 258 377 397q-32 46 -74 98t-72 86.5t-84 95t-79 89.5q7 84 28 145q218 146 440 146q173 0 279.5 -79.5t106.5 -215.5q0 -115 -75.5 -215t-205.5 -178q113 -31 272 -31h187zM264 612q124 -105 328 -374q125 58 198.5 136t73.5 158q0 79 -69 131
t-193 52q-174 0 -336 -90z" />
    <glyph glyph-name="uniFED0" unicode="&#x63a;" horiz-adv-x="1196" arabic-form="medial" 
d="M0 129h82q233 0 385 51q-34 47 -77 100t-74 87t-87.5 95t-81.5 89q12 99 31 149q82 55 196 99.5t244 44.5q174 0 278.5 -80t104.5 -219q0 -215 -272 -381q137 -35 313 -35h154q41 0 41 -66q0 -29 -10.5 -46t-30.5 -17h-143q-123 0 -254.5 21t-227.5 61
q-110 -45 -228 -63.5t-273 -18.5h-70v129zM262 602q156 -132 336 -366q124 61 194 136.5t70 153.5q0 80 -70.5 133.5t-199.5 53.5q-162 0 -328 -99zM606 1085q-41 0 -66.5 25.5t-25.5 65.5q0 39 25.5 64.5t66.5 25.5q39 0 63.5 -25.5t24.5 -64.5q0 -40 -24.5 -65.5
t-63.5 -25.5z" />
    <glyph glyph-name="uniFECF" unicode="&#x63a;" horiz-adv-x="983" arabic-form="initial" 
d="M0 0v129h283q-103 150 -103 311q0 181 121.5 294.5t343.5 113.5q105 0 223 -31l-26 -127q-102 25 -195 25q-155 0 -242.5 -75t-87.5 -202q0 -147 125 -309h471v-129h-913zM553 1180q0 39 25.5 64.5t66.5 25.5q39 0 63.5 -25.5t24.5 -64.5q0 -40 -24 -65t-64 -25
q-41 0 -66.5 25t-25.5 65z" />
    <glyph glyph-name="uniFED2" unicode="&#x641;" horiz-adv-x="2201" arabic-form="final" 
d="M90 385q0 143 66 322l125 -35q-54 -182 -54 -262q0 -281 351 -281h665q101 0 160 10q-92 59 -147.5 146.5t-55.5 195.5q0 160 114.5 263.5t297.5 103.5t292 -103t109 -264q0 -110 -53.5 -197.5t-147.5 -146.5q90 -8 150 -8h240q41 0 41 -66q0 -63 -41 -63h-230
q-200 0 -364 41q-155 -41 -373 -41h-676q-221 0 -345 103.5t-124 281.5zM1610 715q-121 0 -196 -64.5t-75 -169.5q0 -109 78.5 -191.5t190.5 -115.5q105 29 185.5 113.5t80.5 195.5q0 105 -73 168.5t-191 63.5zM1520 1180q0 39 25.5 64.5t66.5 25.5q39 0 63.5 -25.5
t24.5 -64.5q0 -40 -24 -65t-64 -25q-41 0 -66.5 25t-25.5 65z" />
    <glyph glyph-name="uniFED4" unicode="&#x641;" horiz-adv-x="1179" arabic-form="medial" 
d="M0 129h221q101 0 160 10q-92 59 -147.5 146.5t-55.5 195.5q0 160 114.5 263.5t297.5 103.5t292 -103t109 -264q0 -218 -200 -344q90 -8 149 -8h240q41 0 41 -66q0 -63 -41 -63h-230q-200 0 -364 41q-155 -41 -373 -41h-213v129zM317 481q0 -109 78.5 -191.5t190.5 -115.5
q105 29 185.5 113.5t80.5 195.5q0 105 -73 168.5t-191 63.5q-121 0 -196 -64.5t-75 -169.5zM498 1180q0 39 25.5 64.5t66.5 25.5q39 0 63.5 -25.5t24.5 -64.5q0 -40 -24 -65t-64 -25q-41 0 -66.5 25t-25.5 65z" />
    <glyph glyph-name="uniFED3" unicode="&#x641;" horiz-adv-x="1132" arabic-form="initial" 
d="M0 0v129h285q-107 116 -107 289q0 188 120.5 309t313.5 121q100 0 176 -35t121.5 -96.5t68.5 -140t23 -170.5q0 -189 -90 -406h-911zM602 715q-131 0 -208 -83.5t-77 -217.5q0 -154 121 -285h379q45 145 45 268q0 147 -66 232.5t-194 85.5zM520 1180q0 39 25.5 64.5
t66.5 25.5q39 0 63.5 -25.5t24.5 -64.5q0 -40 -24 -65t-64 -25q-41 0 -66.5 25t-25.5 65z" />
    <glyph glyph-name="uniFB6B" unicode="&#x6a4;" horiz-adv-x="2201" arabic-form="final" 
d="M90 385q0 143 66 322l125 -35q-54 -182 -54 -262q0 -281 351 -281h665q101 0 160 10q-92 59 -147.5 146.5t-55.5 195.5q0 160 114.5 263.5t297.5 103.5t292 -103t109 -264q0 -110 -53.5 -197.5t-147.5 -146.5q90 -8 150 -8h240q41 0 41 -66q0 -63 -41 -63h-230
q-200 0 -364 41q-155 -41 -373 -41h-676q-221 0 -345 103.5t-124 281.5zM1339 481q0 -109 78.5 -191.5t190.5 -115.5q105 29 185.5 113.5t80.5 195.5q0 105 -73 168.5t-191 63.5q-121 0 -196 -64.5t-75 -169.5zM1470 1094q-39 0 -64.5 25.5t-25.5 64.5q0 38 26 64t64 26
t63.5 -26t25.5 -64q0 -40 -25.5 -65t-63.5 -25zM1747 1094q-39 0 -64.5 25.5t-25.5 64.5q0 38 26 64t64 26t63 -26t25 -64q0 -40 -25 -65t-63 -25zM1614 1307q-39 0 -64.5 25.5t-25.5 64.5q0 37 26 63.5t64 26.5t63 -26.5t25 -63.5q0 -40 -25 -65t-63 -25z" />
    <glyph glyph-name="uniFB6D" unicode="&#x6a4;" horiz-adv-x="1179" arabic-form="medial" 
d="M213 0h-213v129h221q101 0 160 10q-92 59 -147.5 146.5t-55.5 195.5q0 160 114.5 263.5t297.5 103.5t292 -103t109 -264q0 -218 -200 -344q90 -8 149 -8h240q41 0 41 -66q0 -63 -41 -63h-230q-200 0 -364 41q-155 -41 -373 -41zM588 715q-121 0 -196 -64.5t-75 -169.5
q0 -109 78.5 -191.5t190.5 -115.5q105 29 185.5 113.5t80.5 195.5q0 105 -73 168.5t-191 63.5zM449 1094q-39 0 -65 25.5t-26 64.5q0 38 26.5 64t64.5 26t63 -26t25 -64q0 -40 -25 -65t-63 -25zM725 1094q-39 0 -64.5 25.5t-25.5 64.5q0 38 26 64t64 26t63 -26t25 -64
q0 -40 -25 -65t-63 -25zM592 1307q-39 0 -64.5 25.5t-25.5 64.5q0 37 26 63.5t64 26.5t63 -26.5t25 -63.5q0 -40 -25 -65t-63 -25z" />
    <glyph glyph-name="uniFB6C" unicode="&#x6a4;" horiz-adv-x="1132" arabic-form="initial" 
d="M0 0v129h285q-107 116 -107 289q0 188 120.5 309t313.5 121q100 0 176 -35t121.5 -96.5t68.5 -140t23 -170.5q0 -189 -90 -406h-911zM602 715q-131 0 -208 -83.5t-77 -217.5q0 -154 121 -285h379q45 145 45 268q0 147 -66 232.5t-194 85.5zM471 1094q-39 0 -64.5 25.5
t-25.5 64.5q0 38 26 64t64 26t63 -26t25 -64q0 -40 -25 -65t-63 -25zM657 1184q0 38 26.5 64t64.5 26t63 -26t25 -64q0 -40 -25 -65t-63 -25q-39 0 -65 25.5t-26 64.5zM614 1307q-39 0 -64.5 25.5t-25.5 64.5q0 37 26 63.5t64 26.5t63 -26.5t25 -63.5q0 -40 -25 -65t-63 -25
z" />
    <glyph glyph-name="uniFED6" unicode="&#x642;" horiz-adv-x="1693" arabic-form="final" 
d="M90 139q0 128 47 267l125 -33q-35 -112 -35 -215q0 -184 136 -273.5t430 -89.5q252 0 378 49.5t146 155.5h-162q-479 0 -479 414q0 83 27 160t76.5 138.5t129 98.5t176.5 37q171 0 272 -107t101 -301v-311h236q41 0 41 -66q0 -29 -10.5 -46t-30.5 -17h-244
q-30 -185 -187.5 -260.5t-469.5 -75.5q-703 0 -703 475zM815 416q0 -151 89 -219t267 -68h152v281q0 147 -62.5 226t-185.5 79q-117 0 -188.5 -80t-71.5 -219zM1221 1090q-39 0 -65 25.5t-26 64.5q0 38 26.5 64t64.5 26t63 -26t25 -64q0 -40 -25 -65t-63 -25zM944 1090
q-39 0 -64.5 25.5t-25.5 64.5q0 38 26 64t64 26t63 -26t25 -64q0 -40 -25 -65t-63 -25z" />
    <glyph glyph-name="uniFED8" unicode="&#x642;" horiz-adv-x="1179" arabic-form="medial" 
d="M213 0h-213v129h221q101 0 160 10q-92 59 -147.5 146.5t-55.5 195.5q0 160 114.5 263.5t297.5 103.5t292 -103t109 -264q0 -218 -200 -344q90 -8 149 -8h240q41 0 41 -66q0 -63 -41 -63h-230q-200 0 -364 41q-155 -41 -373 -41zM317 481q0 -109 78.5 -191.5t190.5 -115.5
q105 29 185.5 113.5t80.5 195.5q0 105 -73 168.5t-191 63.5q-121 0 -196 -64.5t-75 -169.5zM635 1180q0 38 26 64t64 26t63 -26t25 -64q0 -40 -25 -65t-63 -25q-39 0 -64.5 25.5t-25.5 64.5zM358 1180q0 38 26.5 64t64.5 26t63 -26t25 -64q0 -40 -25 -65t-63 -25
q-39 0 -65 25.5t-26 64.5z" />
    <glyph glyph-name="uniFED7" unicode="&#x642;" horiz-adv-x="1132" arabic-form="initial" 
d="M0 0v129h285q-107 116 -107 289q0 188 120.5 309t313.5 121q100 0 176 -35t121.5 -96.5t68.5 -140t23 -170.5q0 -189 -90 -406h-911zM317 414q0 -154 121 -285h379q45 145 45 268q0 147 -66 232.5t-194 85.5q-131 0 -208 -83.5t-77 -217.5zM657 1180q0 38 26.5 64
t64.5 26t63 -26t25 -64q0 -40 -25 -65t-63 -25q-39 0 -65 25.5t-26 64.5zM381 1180q0 38 26 64t64 26t63 -26t25 -64q0 -40 -25 -65t-63 -25q-39 0 -64.5 25.5t-25.5 64.5z" />
    <glyph glyph-name="uniFEDA" unicode="&#x643;" horiz-adv-x="1806" arabic-form="final" 
d="M559 0q-221 0 -345 103.5t-124 281.5q0 143 66 322l125 -35q-54 -182 -54 -262q0 -281 351 -281h571q142 0 195 62t53 219v1138h135v-1169q0 -250 274 -250q41 0 41 -66q0 -29 -10.5 -46t-30.5 -17q-236 0 -323 145q-86 -145 -334 -145h-590zM635 737h110q-36 53 -36 121
q0 80 56.5 135.5t149.5 55.5q35 0 101 -17l-17 -84q-54 13 -81 13q-54 0 -87.5 -28t-33.5 -81q0 -62 47 -115h194v-86h-403v86z" />
    <glyph glyph-name="uniFEDC" unicode="&#x643;" horiz-adv-x="1087" arabic-form="medial" 
d="M0 0v129h696v84q0 155 -59.5 264.5t-194 193.5t-364.5 154v133l579 560l88 -91l-530 -514q179 -60 300.5 -134.5t189 -167t95 -192.5t27.5 -229v-61h260q41 0 41 -66q0 -29 -10.5 -46t-30.5 -17h-1087z" />
    <glyph glyph-name="uniFEDB" unicode="&#x643;" horiz-adv-x="958" arabic-form="initial" 
d="M215 913q179 -60 300.5 -134.5t189 -167t95 -192.5t27.5 -229v-190h-827v129h696v84q0 155 -59.5 264.5t-194 193.5t-364.5 154v133l579 560l88 -91z" />
    <glyph glyph-name="uniFB8F" unicode="&#x6a9;" horiz-adv-x="1880" arabic-form="final" 
d="M90 385q0 143 66 322l125 -35q-54 -182 -54 -262q0 -281 351 -281h899v84q0 230 -139 369t-480 243v133l580 560l88 -91l-531 -514q144 -48 250.5 -106.5t175.5 -123.5t111 -145t59 -163t17 -185v-61h272q41 0 41 -66q0 -29 -10.5 -46t-30.5 -17h-1321q-221 0 -345 103.5
t-124 281.5z" />
    <glyph glyph-name="uniFB91" unicode="&#x6a9;" horiz-adv-x="1087" arabic-form="medial" 
d="M0 0v129h696v84q0 155 -59.5 264.5t-194 193.5t-364.5 154v133l579 560l88 -91l-530 -514q179 -60 300.5 -134.5t189 -167t95 -192.5t27.5 -229v-61h260q41 0 41 -66q0 -29 -10.5 -46t-30.5 -17h-1087z" />
    <glyph glyph-name="uniFB90" unicode="&#x6a9;" horiz-adv-x="958" arabic-form="initial" 
d="M215 913q179 -60 300.5 -134.5t189 -167t95 -192.5t27.5 -229v-190h-827v129h696v84q0 155 -59.5 264.5t-194 193.5t-364.5 154v133l579 560l88 -91z" />
    <glyph glyph-name="uniFB93" unicode="&#x6af;" horiz-adv-x="1880" arabic-form="final" 
d="M559 0q-221 0 -345 103.5t-124 281.5q0 143 66 322l125 -35q-54 -182 -54 -262q0 -281 351 -281h899v84q0 230 -139 369t-480 243v133l580 560l88 -91l-531 -514q144 -48 250.5 -106.5t175.5 -123.5t111 -145t59 -163t17 -185v-61h272q41 0 41 -66q0 -29 -10.5 -46
t-30.5 -17h-1321zM852 1096l-94 92l520 493l90 -90z" />
    <glyph glyph-name="uniFB95" unicode="&#x6af;" horiz-adv-x="1087" arabic-form="medial" 
d="M0 129h696v84q0 155 -59.5 264.5t-194 193.5t-364.5 154v133l579 560l88 -91l-530 -514q179 -60 300.5 -134.5t189 -167t95 -192.5t27.5 -229v-61h260q41 0 41 -66q0 -29 -10.5 -46t-30.5 -17h-1087v129zM-23 1188l521 493l90 -90l-516 -495z" />
    <glyph glyph-name="uniFB94" unicode="&#x6af;" horiz-adv-x="958" arabic-form="initial" 
d="M72 1096l-95 92l521 493l90 -90zM215 913q179 -60 300.5 -134.5t189 -167t95 -192.5t27.5 -229v-190h-827v129h696v84q0 155 -59.5 264.5t-194 193.5t-364.5 154v133l579 560l88 -91z" />
    <glyph glyph-name="uniFEDE" unicode="&#x644;" horiz-adv-x="1402" arabic-form="final" 
d="M1403 129q41 0 41 -66q0 -29 -10.5 -46t-30.5 -17h-250q-47 -160 -186 -248t-346 -88q-244 0 -387.5 126.5t-143.5 340.5q0 161 84 363l119 -41q-35 -104 -50.5 -172t-15.5 -136q0 -175 103.5 -262.5t298.5 -87.5q202 0 305.5 100.5t103.5 297.5v1355h136v-1419h229z" />
    <glyph glyph-name="uniFEE0" unicode="&#x644;" horiz-adv-x="657" arabic-form="medial" 
d="M657 129q41 0 41 -66q0 -29 -10.5 -46t-30.5 -17q-236 0 -323 145q-86 -145 -334 -145v129q142 0 195 62t53 219v1138h135v-1169q0 -250 274 -250z" />
    <glyph glyph-name="uniFEDF" unicode="&#x644;" horiz-adv-x="544" arabic-form="initial" 
d="M0 0v129q142 0 195 62t53 219v1138h135v-1194q0 -354 -383 -354z" />
    <glyph glyph-name="uniFEE2" unicode="&#x645;" horiz-adv-x="1429" arabic-form="final" 
d="M82 -532v335q0 155 83 240.5t236 85.5h84q-45 102 -45 209q0 185 123.5 303.5t306.5 118.5q101 0 179 -35t124 -95.5t68.5 -133.5t22.5 -156q0 -126 -39 -211h205q40 0 40 -66q0 -63 -40 -63h-302q-123 -102 -350 -102h-112q-63 50 -105 102h-158q-91 0 -140.5 -50
t-49.5 -147v-335h-131zM702 27h107q153 0 236 85.5t83 237.5q0 129 -71 205t-197 76q-127 0 -206 -80t-79 -217q0 -180 127 -307z" />
    <glyph glyph-name="uniFEE4" unicode="&#x645;" horiz-adv-x="1169" arabic-form="medial" 
d="M0 129h225q-45 102 -45 209q0 185 123.5 303.5t306.5 118.5q101 0 179 -35t124 -95.5t68.5 -133.5t22.5 -156q0 -118 -43 -211h208q41 0 41 -66q0 -63 -41 -63h-309q-126 -102 -340 -102h-112q-56 41 -107 102h-301v129zM602 631q-128 0 -207.5 -80t-79.5 -217
q0 -178 129 -307h105q154 0 236.5 85t82.5 238q0 129 -70.5 205t-195.5 76z" />
    <glyph glyph-name="uniFEE3" unicode="&#x645;" horiz-adv-x="1122" arabic-form="initial" 
d="M543 0h-543v129h279q-99 133 -99 289q0 190 121 310t307 120q185 0 290.5 -121t105.5 -309q0 -88 -26 -161.5t-79.5 -132t-144 -91.5t-211.5 -33zM319 420q0 -150 117 -291h121q156 0 231.5 81t75.5 210q0 135 -73 215t-197 80q-123 0 -199 -78.5t-76 -216.5z" />
    <glyph glyph-name="uniFEE6" unicode="&#x646;" horiz-adv-x="1435" arabic-form="final" 
d="M651 842q-41 0 -66.5 25t-25.5 65q0 39 25.5 64.5t66.5 25.5q39 0 63.5 -25.5t24.5 -64.5q0 -40 -24 -65t-64 -25zM1436 129q41 0 41 -66q0 -29 -10.5 -46t-30.5 -17h-283q-44 -163 -182 -249.5t-344 -86.5q-258 0 -397.5 128.5t-139.5 338.5q0 161 84 363l121 -41
q-68 -172 -68 -306q0 -176 106.5 -264t297.5 -88q407 0 407 395v486h136v-547h262z" />
    <glyph glyph-name="uniFEE8" unicode="&#x646;" horiz-adv-x="667" arabic-form="medial" 
d="M326 1067q-41 0 -67 25t-26 65q0 39 26 64.5t67 25.5q39 0 63.5 -25.5t24.5 -64.5q0 -40 -24 -65t-64 -25zM668 129q41 0 41 -66q0 -29 -10.5 -46t-30.5 -17q-244 0 -328 152q-89 -152 -340 -152v129q137 0 197.5 64.5t60.5 216.5v415h135v-446q0 -250 275 -250z" />
    <glyph glyph-name="uniFEE7" unicode="&#x646;" horiz-adv-x="514" arabic-form="initial" 
d="M326 1067q-41 0 -67 25t-26 65q0 39 26 64.5t67 25.5q39 0 63.5 -25.5t24.5 -64.5q0 -40 -24 -65t-64 -25zM0 0v129q137 0 197.5 64.5t60.5 216.5v415h135v-436q0 -202 -98.5 -295.5t-294.5 -93.5z" />
    <glyph glyph-name="uniFB9F" unicode="&#x6ba;" horiz-adv-x="1435" arabic-form="final" 
d="M1436 129q41 0 41 -66q0 -29 -10.5 -46t-30.5 -17h-283q-44 -163 -182 -249.5t-344 -86.5q-258 0 -397.5 128.5t-139.5 338.5q0 161 84 363l121 -41q-68 -172 -68 -306q0 -176 106.5 -264t297.5 -88q407 0 407 395v486h136v-547h262z" />
    <glyph glyph-name="uniFEE9" unicode="&#x647;" horiz-adv-x="1042" arabic-form="isolated" 
d="M502 -10q-136 0 -232.5 55t-142 145.5t-45.5 206.5q0 90 27.5 170.5t79 143.5t132.5 100t181 37t181.5 -37.5t133.5 -101t79.5 -143.5t27.5 -169q0 -183 -113.5 -295t-308.5 -112zM506 121q132 0 205 69.5t73 210.5t-72 227.5t-210 86.5t-209.5 -87t-71.5 -225
q0 -143 75.5 -212.5t209.5 -69.5z" />
    <glyph glyph-name="uniFEEA" unicode="&#x647;" horiz-adv-x="1128" arabic-form="final" 
d="M1128 129q41 0 41 -66q0 -29 -10.5 -46t-30.5 -17q-148 0 -231 27t-113 88q-139 -68 -284 -68q-191 0 -304.5 95.5t-113.5 265.5q0 191 126.5 304t348.5 113h334v-499q0 -115 51.5 -156t185.5 -41zM748 236v460h-216q-143 0 -227 -70t-84 -204q0 -119 75 -180.5
t214 -61.5t238 56z" />
    <glyph glyph-name="uniFEEC" unicode="&#x647;" horiz-adv-x="1036" arabic-form="medial" 
d="M0 129h176v258q0 208 94.5 330.5t278.5 122.5q87 0 155.5 -31.5t111 -85t64 -121.5t21.5 -145q0 -98 -31.5 -183.5t-87.5 -144.5h254q41 0 41 -66q0 -63 -41 -63h-174q53 -95 53 -186q0 -139 -99.5 -222.5t-268.5 -83.5q-187 0 -279 97t-92 280v115h-176v129zM537 707
q-107 0 -166.5 -77t-59.5 -227v-274h176q127 0 203 89.5t76 225.5q0 117 -61 190t-168 73zM311 -104q0 -132 59.5 -194t184.5 -62q115 0 169 49.5t54 136.5q0 88 -61 174h-406v-104z" />
    <glyph glyph-name="uniFEEB" unicode="&#x647;" horiz-adv-x="1271" arabic-form="initial" 
d="M0 129h186q75 0 136 10q-64 48 -104 127.5t-40 173.5q0 92 45.5 173.5t122.5 125.5q-135 13 -192 15l22 118q186 -14 334 -43t272 -79.5t206 -122t127.5 -173t45.5 -229.5q0 -107 -26 -225h-365q-171 0 -291 45q-116 -45 -293 -45h-186v129zM489 676q-82 0 -135 -66.5
t-53 -165.5q0 -96 49 -165.5t127 -108.5q88 34 144.5 104t56.5 172q0 101 -54 165.5t-135 64.5zM637 135q55 -6 104 -6h285q10 58 10 111q0 281 -299 409q62 -91 62 -203q0 -97 -45.5 -180t-116.5 -131z" />
    <glyph glyph-name="uniFBA7" unicode="&#x6c1;" horiz-adv-x="1179" arabic-form="final" 
d="M188 -18l-106 45q106 231 246.5 365t294.5 134q94 0 158.5 -47.5t131.5 -165.5q67 -116 117 -150t150 -34q41 0 41 -68q0 -61 -41 -61q-141 0 -216 45t-151 178q-57 101 -99 137.5t-102 36.5q-108 0 -221 -113t-203 -302z" />
    <glyph glyph-name="uniFBA9" unicode="&#x6c1;" horiz-adv-x="792" arabic-form="medial" 
d="M82 0h-82v129h231q-22 -104 -22 -176q0 -102 41.5 -182t132.5 -119q-2 14 -2 43q0 123 41.5 219.5t130 155.5t213.5 59h27q41 0 41 -66q0 -63 -41 -63h-27q-125 0 -196.5 -82.5t-71.5 -243.5q0 -85 16 -166q-91 5 -169 33.5t-139 79t-95.5 130t-34.5 179.5q0 32 6 70z
" />
    <glyph glyph-name="uniFBA8" unicode="&#x6c1;" horiz-adv-x="514" arabic-form="initial" 
d="M0 0v129q137 0 197.5 64.5t60.5 216.5v415h135v-436q0 -202 -98.5 -295.5t-294.5 -93.5zM188 -510q-63 92 -63 217q0 103 49 203l96 -27q-30 -78 -30 -151q0 -93 55 -189z" />
    <glyph glyph-name="uniFBAB" unicode="&#x6be;" horiz-adv-x="1312" arabic-form="final" 
d="M82 59l41 121q127 -51 285 -51h45v258q0 208 94 330.5t278 122.5q87 0 156 -31.5t111 -85t64 -121.5t22 -145q0 -98 -31.5 -183.5t-87.5 -144.5h254q41 0 41 -66q0 -63 -41 -63h-174q53 -95 53 -186q0 -139 -100 -222.5t-269 -83.5q-187 0 -278.5 96.5t-91.5 280.5v115
h-45q-190 0 -326 59zM588 129h176q126 0 202 89t76 226q0 117 -61 190t-168 73t-166 -76.5t-59 -227.5v-274zM993 0h-405v-104q0 -132 59 -194t184 -62q115 0 169.5 50t54.5 136q0 87 -62 174z" />
    <glyph glyph-name="uniFBAD" unicode="&#x6be;" horiz-adv-x="1036" arabic-form="medial" 
d="M0 129h176v258q0 208 94.5 330.5t278.5 122.5q87 0 155.5 -31.5t111 -85t64 -121.5t21.5 -145q0 -98 -31.5 -183.5t-87.5 -144.5h254q41 0 41 -66q0 -63 -41 -63h-174q53 -95 53 -186q0 -139 -99.5 -222.5t-268.5 -83.5q-187 0 -279 97t-92 280v115h-176v129zM537 707
q-107 0 -166.5 -77t-59.5 -227v-274h176q127 0 203 89.5t76 225.5q0 117 -61 190t-168 73zM311 -104q0 -132 59.5 -194t184.5 -62q115 0 169 49.5t54 136.5q0 88 -61 174h-406v-104z" />
    <glyph glyph-name="uniFBAC" unicode="&#x6be;" horiz-adv-x="1271" arabic-form="initial" 
d="M0 129h186q75 0 136 10q-64 48 -104 127.5t-40 173.5q0 92 45.5 173.5t122.5 125.5q-135 13 -192 15l22 118q186 -14 334 -43t272 -79.5t206 -122t127.5 -173t45.5 -229.5q0 -107 -26 -225h-365q-171 0 -291 45q-116 -45 -293 -45h-186v129zM489 676q-82 0 -135 -66.5
t-53 -165.5q0 -96 49 -165.5t127 -108.5q88 34 144.5 104t56.5 172q0 101 -54 165.5t-135 64.5zM637 135q55 -6 104 -6h285q10 58 10 111q0 281 -299 409q62 -91 62 -203q0 -97 -45.5 -180t-116.5 -131z" />
    <glyph glyph-name="uniFE94" unicode="&#x629;" horiz-adv-x="1128" arabic-form="final" 
d="M416 1067q-39 0 -64.5 25.5t-25.5 64.5q0 38 26 64t64 26t63 -26t25 -64q0 -40 -25 -65t-63 -25zM692 1067q-39 0 -64.5 25.5t-25.5 64.5q0 38 26 64t64 26t63 -26t25 -64q0 -40 -25 -65t-63 -25zM1128 129q41 0 41 -66q0 -29 -10.5 -46t-30.5 -17q-148 0 -231 27
t-113 88q-139 -68 -284 -68q-191 0 -304.5 95.5t-113.5 265.5q0 191 126.5 304t348.5 113h334v-499q0 -115 51.5 -156t185.5 -41zM748 236v460h-216q-143 0 -227 -70t-84 -204q0 -119 75 -180.5t214 -61.5t238 56z" />
    <glyph glyph-name="uniFEEE" unicode="&#x648;" horiz-adv-x="1099" arabic-form="final" 
d="M602 0q-247 0 -368 108t-121 300q0 185 112.5 312.5t292.5 127.5q171 0 274 -104t103 -287v-328h205q41 0 41 -66q0 -29 -10.5 -46t-30.5 -17h-209q-23 -164 -157 -260t-400 -96q-43 0 -90 4l-6 123q29 -2 84 -2q405 0 434 231h-154zM252 424q0 -150 87.5 -222.5
t278.5 -72.5h142v281q0 146 -64 226.5t-182 80.5q-112 0 -187 -80.5t-75 -212.5z" />
    <glyph glyph-name="uniFE86" unicode="&#x624;" horiz-adv-x="1099" arabic-form="final" 
d="M113 408q0 185 112.5 312.5t292.5 127.5q171 0 274 -104t103 -287v-328h205q41 0 41 -66q0 -29 -10.5 -46t-30.5 -17h-209q-23 -164 -157 -260t-400 -96q-43 0 -90 4l-6 123q29 -2 84 -2q405 0 434 231h-154q-247 0 -368 108t-121 300zM514 717q-112 0 -187 -80.5
t-75 -212.5q0 -150 87.5 -222.5t278.5 -72.5h142v281q0 146 -64 226.5t-182 80.5zM293 1108v88h100q-41 68 -41 139q0 88 58.5 139.5t152.5 51.5q54 0 127 -15l-16 -86q-74 11 -92 11q-58 0 -98 -28.5t-40 -88.5q0 -55 41 -123h230v-88h-422z" />
    <glyph glyph-name="uniFEF0" unicode="&#x649;" horiz-adv-x="1566" arabic-form="final" 
d="M1567 129q41 0 41 -66q0 -29 -10.5 -46t-30.5 -17h-193q88 -60 88 -170q0 -152 -191 -257t-505 -105q-343 0 -509.5 122t-166.5 347q0 118 47 264l125 -33q-35 -134 -35 -215q0 -181 129 -267.5t418 -86.5q253 0 402 67.5t149 169.5q0 63 -63.5 117t-190.5 86l-240 59
l33 115l277 -66q79 -18 198 -18h228z" />
    <glyph glyph-name="uniFEF2" unicode="&#x64a;" horiz-adv-x="1566" arabic-form="final" 
d="M1567 129q41 0 41 -66q0 -29 -10.5 -46t-30.5 -17h-193q88 -60 88 -170q0 -152 -191 -257t-505 -105q-343 0 -509.5 122t-166.5 347q0 118 47 264l125 -33q-35 -134 -35 -215q0 -181 129 -267.5t418 -86.5q253 0 402 67.5t149 169.5q0 63 -63.5 117t-190.5 86l-240 59
l33 115l277 -66q79 -18 198 -18h228zM621 -715q38 0 63 -25t25 -65q0 -38 -25 -64t-63 -26t-64.5 26t-26.5 64q0 39 26 64.5t65 25.5zM897 -715q38 0 63 -25t25 -65q0 -38 -25 -64t-63 -26t-64 26t-26 64q0 39 25.5 64.5t64.5 25.5z" />
    <glyph glyph-name="uniFEF4" unicode="&#x64a;" horiz-adv-x="665" arabic-form="medial" 
d="M666 129q41 0 41 -66q0 -29 -10.5 -46t-30.5 -17q-244 0 -328 152q-89 -152 -328 -152h-10v129h12q129 0 186.5 66t57.5 215v415h135v-446q0 -250 275 -250zM160 -182q38 0 63 -25t25 -65q0 -38 -25 -64t-63 -26t-64 26t-26 64q0 39 25.5 64.5t64.5 25.5zM436 -182
q38 0 63 -25t25 -65q0 -38 -25 -64t-63 -26t-64 26t-26 64q0 39 25.5 64.5t64.5 25.5z" />
    <glyph glyph-name="uniFEF3" unicode="&#x64a;" horiz-adv-x="573" arabic-form="initial" 
d="M0 0v129h12q129 0 186.5 66t57.5 215v415h135v-436q0 -389 -381 -389h-10zM100 -362q-38 0 -64 26t-26 64q0 39 25.5 64.5t64.5 25.5q38 0 63 -25t25 -65q0 -38 -25 -64t-63 -26zM377 -362q-38 0 -64 26t-26 64q0 39 25.5 64.5t64.5 25.5q38 0 63 -25t25 -65
q0 -38 -25 -64t-63 -26z" />
    <glyph glyph-name="uniFE8A" unicode="&#x626;" horiz-adv-x="1566" arabic-form="final" 
d="M766 -532q-343 0 -509.5 122t-166.5 347q0 118 47 264l125 -33q-35 -134 -35 -215q0 -181 129 -267.5t418 -86.5q253 0 402 67.5t149 169.5q0 63 -63.5 117t-190.5 86l-240 59l33 115l277 -66q79 -18 198 -18h228q41 0 41 -66q0 -29 -10.5 -46t-30.5 -17h-193
q88 -60 88 -170q0 -152 -191 -257t-505 -105zM571 428h-421v88h100q-41 68 -41 139q0 88 58.5 139.5t152.5 51.5q54 0 127 -15l-17 -86q-74 11 -92 11q-57 0 -97 -28.5t-40 -88.5q0 -55 41 -123h229v-88z" />
    <glyph glyph-name="uniFE8C" unicode="&#x626;" horiz-adv-x="665" arabic-form="medial" 
d="M10 0h-10v129h12q129 0 186.5 66t57.5 215v415h135v-446q0 -250 275 -250q41 0 41 -66q0 -29 -10.5 -46t-30.5 -17q-244 0 -328 152q-89 -152 -328 -152zM98 1085v89h101q-41 68 -41 139q0 88 58.5 139t152.5 51q59 0 127 -14l-17 -86q-67 10 -92 10q-57 0 -97 -28.5
t-40 -88.5q0 -54 41 -122h229v-89h-422z" />
    <glyph glyph-name="uniFE8B" unicode="&#x626;" horiz-adv-x="573" arabic-form="initial" 
d="M0 0v129h12q129 0 186.5 66t57.5 215v415h135v-436q0 -389 -381 -389h-10zM98 1085v89h101q-41 68 -41 139q0 88 58.5 139t152.5 51q59 0 127 -14l-17 -86q-67 10 -92 10q-57 0 -97 -28.5t-40 -88.5q0 -54 41 -122h229v-89h-422z" />
    <glyph glyph-name="uniFBFD" unicode="&#x6cc;" horiz-adv-x="1566" arabic-form="final" 
d="M1567 129q41 0 41 -66q0 -29 -10.5 -46t-30.5 -17h-193q88 -60 88 -170q0 -152 -191 -257t-505 -105q-343 0 -509.5 122t-166.5 347q0 118 47 264l125 -33q-35 -134 -35 -215q0 -181 129 -267.5t418 -86.5q253 0 402 67.5t149 169.5q0 63 -63.5 117t-190.5 86l-240 59
l33 115l277 -66q79 -18 198 -18h228z" />
    <glyph glyph-name="uniFBFF" unicode="&#x6cc;" horiz-adv-x="665" arabic-form="medial" 
d="M666 129q41 0 41 -66q0 -29 -10.5 -46t-30.5 -17q-244 0 -328 152q-89 -152 -328 -152h-10v129h12q129 0 186.5 66t57.5 215v415h135v-446q0 -250 275 -250zM160 -182q38 0 63 -25t25 -65q0 -38 -25 -64t-63 -26t-64 26t-26 64q0 39 25.5 64.5t64.5 25.5zM436 -182
q38 0 63 -25t25 -65q0 -38 -25 -64t-63 -26t-64 26t-26 64q0 39 25.5 64.5t64.5 25.5z" />
    <glyph glyph-name="uniFBFE" unicode="&#x6cc;" horiz-adv-x="573" arabic-form="initial" 
d="M0 0v129h12q129 0 186.5 66t57.5 215v415h135v-436q0 -389 -381 -389h-10zM100 -362q-38 0 -64 26t-26 64q0 39 25.5 64.5t64.5 25.5q38 0 63 -25t25 -65q0 -38 -25 -64t-63 -26zM377 -362q-38 0 -64 26t-26 64q0 39 25.5 64.5t64.5 25.5q38 0 63 -25t25 -65
q0 -38 -25 -64t-63 -26z" />
    <glyph glyph-name="uniFBAF" unicode="&#x6d2;" horiz-adv-x="851" arabic-form="final" 
d="M709 -532q-330 0 -486.5 80t-156.5 259q0 155 116 238.5t326 83.5h344q41 0 41 -66q0 -63 -41 -63h-358q-157 0 -228 -48t-71 -140q0 -114 124 -163.5t422 -49.5q323 0 748 73l8 -129q-454 -75 -788 -75z" />
    <glyph glyph-name="uniFBB1" unicode="&#x6d3;" horiz-adv-x="851" arabic-form="final" 
d="M66 -193q0 155 116 238.5t326 83.5h344q41 0 41 -66q0 -63 -41 -63h-358q-157 0 -228 -48t-71 -140q0 -114 124 -163.5t422 -49.5q323 0 748 73l8 -129q-454 -75 -788 -75q-330 0 -486.5 80t-156.5 259zM659 389h-421v88h100q-41 68 -41 139q0 88 58.5 139.5t152.5 51.5
q59 0 127 -14l-17 -86q-68 10 -92 10q-57 0 -97 -28.5t-40 -88.5q0 -55 41 -123h229v-88z" />
    <glyph glyph-name="uniFEFB" unicode="&#xfefb;" horiz-adv-x="1349" arabic-form="isolated" 
d="M784 0h-723v129h441v997h135v-997h133q144 0 213.5 67.5t69.5 219.5v1132h135v-1169q0 -180 -104.5 -279.5t-299.5 -99.5z" />
    <glyph glyph-name="uniFEFC" unicode="&#xfefc;" horiz-adv-x="1462" arabic-form="final" 
d="M61 0v129h441v997h135v-997h133q144 0 213.5 67.5t69.5 219.5v1132h135v-1169q0 -250 274 -250q41 0 41 -66q0 -29 -10.5 -46t-30.5 -17q-248 0 -329 158q-104 -158 -349 -158h-723z" />
    <glyph glyph-name="uniFEF7" unicode="&#xfef7;" horiz-adv-x="1349" arabic-form="isolated" 
d="M784 0h-723v129h441v997h135v-997h133q144 0 213.5 67.5t69.5 219.5v1132h135v-1169q0 -180 -104.5 -279.5t-299.5 -99.5zM410 1352h75q-30 50 -30 104q0 70 48 112t124 42q33 0 96 -13l-14 -69q-30 10 -70 10q-48 0 -78.5 -24t-30.5 -68q0 -43 31 -94h180v-72h-331v72z
" />
    <glyph glyph-name="uniFEF8" unicode="&#xfef8;" horiz-adv-x="1462" arabic-form="final" 
d="M61 0v129h441v997h135v-997h133q144 0 213.5 67.5t69.5 219.5v1132h135v-1169q0 -250 274 -250q41 0 41 -66q0 -29 -10.5 -46t-30.5 -17q-248 0 -329 158q-104 -158 -349 -158h-723zM410 1280v72h75q-30 50 -30 104q0 70 48 112t124 42q33 0 96 -13l-14 -69
q-30 10 -70 10q-48 0 -78.5 -24t-30.5 -68q0 -43 31 -94h180v-72h-331z" />
    <glyph glyph-name="uniFEF9" unicode="&#xfef9;" horiz-adv-x="1349" arabic-form="isolated" 
d="M784 0h-723v129h441v997h135v-997h133q144 0 213.5 67.5t69.5 219.5v1132h135v-1169q0 -180 -104.5 -279.5t-299.5 -99.5zM733 -512h-332v72h78q-30 50 -30 104q0 70 46.5 112t122.5 42q34 0 97 -13l-13 -69q-33 10 -71 10q-48 0 -78.5 -24t-30.5 -68q0 -43 31 -94h180
v-72z" />
    <glyph glyph-name="uniFEFA" unicode="&#xfefa;" horiz-adv-x="1462" arabic-form="final" 
d="M61 0v129h441v997h135v-997h133q144 0 213.5 67.5t69.5 219.5v1132h135v-1169q0 -250 274 -250q41 0 41 -66q0 -29 -10.5 -46t-30.5 -17q-248 0 -329 158q-104 -158 -349 -158h-723zM733 -512h-332v72h78q-30 50 -30 104q0 70 46.5 112t122.5 42q34 0 97 -13l-13 -69
q-33 10 -71 10q-48 0 -78.5 -24t-30.5 -68q0 -43 31 -94h180v-72z" />
    <glyph glyph-name="uniFEF5" unicode="&#xfef5;" horiz-adv-x="1349" arabic-form="isolated" 
d="M784 0h-723v129h441v997h135v-997h133q144 0 213.5 67.5t69.5 219.5v1132h135v-1169q0 -180 -104.5 -279.5t-299.5 -99.5zM254 1370q75 70 152 70q37 0 138.5 -28t141.5 -28q33 0 55 10.5t60 41.5l55 -52q-58 -88 -162 -88q-55 0 -159.5 27t-135.5 27q-46 0 -96 -37z" />
    <glyph glyph-name="uniFEF6" unicode="&#xfef6;" horiz-adv-x="1462" arabic-form="final" 
d="M61 129h441v997h135v-997h133q144 0 213.5 67.5t69.5 219.5v1132h135v-1169q0 -250 274 -250q41 0 41 -66q0 -29 -10.5 -46t-30.5 -17q-248 0 -329 158q-104 -158 -349 -158h-723v129zM254 1370q75 70 152 70q37 0 138.5 -28t141.5 -28q33 0 55 10.5t60 41.5l55 -52
q-58 -88 -162 -88q-55 0 -159.5 27t-135.5 27q-46 0 -96 -37z" />
    <glyph glyph-name="uniFDF2" unicode="&#xfdf2;" horiz-adv-x="2840" arabic-form="isolated" 
d="M82 408q0 191 126.5 304t348.5 113h334v-499q0 -115 51.5 -156t185.5 -41q142 0 195 62t53 219v790h135v-821q0 -250 273 -250q143 0 195.5 62t52.5 219v1138h135v-1194q0 -354 -383 -354q-239 0 -324 150q-86 -150 -332 -150q-148 0 -230.5 27.5t-111.5 87.5
q-143 -68 -286 -68q-191 0 -304.5 95.5t-113.5 265.5zM532 696q-143 0 -227 -70t-84 -204q0 -119 75 -180.5t214 -61.5t238 56v460h-216zM2544 0v1548h135v-1548h-135zM1212 1438q0 44 21 96l51 -12q-10 -31 -10 -62q0 -38 20 -58t56 -20q63 0 63 78q0 29 -4 45l53 13
q13 -44 13 -76v-8q26 -33 75 -33q64 0 64 67q0 40 -17 93l52 22q30 -62 30 -117q0 -62 -33 -100.5t-92 -38.5q-55 0 -98 37q-29 -59 -106 -59q-66 0 -102 36.5t-36 96.5zM1407 1618v299h70v-277l-60 -22h-10z" />
    <glyph glyph-name="uniFDFA" unicode="&#xfdfa;" horiz-adv-x="2299" arabic-form="isolated" 
d="M82 524q0 77 49.5 120.5t144.5 43.5h132v-168q0 -33 15 -46t56 -13h4q42 0 60 19.5t18 64.5v143h90v-151q0 -76 78 -76h283v160h92v-160h319q40 0 58 19.5t18 64.5v303h90v-318q0 -69 74 -69h272q-24 46 -24 90q0 70 44.5 112t127.5 42q36 0 90 -15l-16 -80q-36 8 -62 8
q-42 0 -66 -20.5t-24 -56.5q0 -43 29 -80h157v-88h-530q-82 0 -111 45q-34 -45 -123 -45h-323v-412q0 -72 74 -72h34q64 0 64 68v113h90v-123q0 -58 59 -58q62 0 62 68v113h90v-123q0 -58 59 -58q32 0 46 16.5t14 53.5v164h92v-195q0 -62 -36 -94.5t-103 -32.5
q-63 0 -101 47q-38 -47 -106 -47q-74 0 -105 47q-44 -47 -120 -47h-39q-83 0 -113 47q-36 -47 -125 -47h-381q-47 -47 -135 -47h-78q-20 18 -41 49l-39 -2q-29 -2 -42 -16t-13 -47v-127h-88v143q0 135 131 135h22q-2 12 -2 35q0 74 47.5 122t124.5 48q73 0 115.5 -46
t42.5 -122q0 -25 -2 -37h336q41 0 57.5 18.5t16.5 63.5v402h-287q-85 0 -111 47q-36 -47 -127 -47h-18q-50 0 -77 8.5t-46 30.5q-56 -27 -113 -27q-69 0 -110 37t-41 102zM848 870q0 38 14 70l84 -16q-6 -18 -6 -37q0 -76 127 -76q86 0 134 26t48 66q0 22 -25.5 35.5
t-103.5 34.5l23 80q84 -21 145 -21q40 0 56 19t16 65v340h90v-354q0 -70 76 -70q39 0 56 16.5t17 55.5v117h91v-127q0 -54 43 -60q123 240 288 240q82 0 127 -51.5t45 -141.5q0 -65 -24 -139h-414q-75 0 -102 45q-18 -23 -46 -34t-79 -11q-78 0 -105 47q-34 -47 -110 -47
q30 -18 30 -59q0 -68 -76 -114t-206 -46q-105 0 -159 38.5t-54 108.5zM70 1094q0 78 49.5 120.5t144.5 42.5h131v-174q0 -29 14 -40t52 -11t52.5 17t14.5 59v254h90v-260q0 -70 72 -70q38 0 54 18t16 64v342h90v-362q0 -83 -38 -117.5t-122 -34.5q-80 0 -110 47
q-33 -47 -123 -47q-50 0 -77 8.5t-46 30.5q-52 -25 -113 -25q-70 0 -110.5 36.5t-40.5 101.5zM2011 -186q-69 0 -110 40.5t-41 114.5q0 71 44 116.5t119 45.5q76 0 113 -46.5t37 -121.5v-119q0 -51 -15.5 -87t-38.5 -56t-61.5 -31t-72.5 -13.5t-84 -2.5l-5 84h33
q154 0 154 86q-25 -10 -72 -10zM1042 975h-92v481h92v-481zM1825 1032l268 -2q10 33 10 60q0 46 -23.5 73t-64.5 27q-100 0 -190 -158zM391 -168h31q44 0 71 25.5t27 68.5q0 39 -21 62.5t-59 23.5t-60 -25t-22 -65q0 -45 33 -90zM1944 -35q0 -37 21.5 -58.5t59.5 -21.5
q37 0 66 13v67q0 42 -18.5 65t-51.5 23q-35 0 -56 -23.5t-21 -64.5zM156 1106q0 -34 22 -52t62 -18q31 0 65 17v133h-53q-96 0 -96 -80zM170 537q0 -70 82 -70q31 0 67 16v131h-55q-46 0 -70 -20t-24 -57zM528 1391q-49 0 -49 53q0 23 8 39l33 -6q-6 -15 -6 -23
q0 -22 18 -22q21 0 21 22v19l31 4q2 -18 2 -33q8 -8 18 -8q21 0 21 24q0 15 -7 29l37 12q11 -33 11 -49q0 -27 -15 -42t-39 -15q-20 0 -37 14q-18 -18 -47 -18zM530 221q-20 0 -33.5 13.5t-13.5 35.5q0 19 13 33t34 14t33 -13.5t12 -33.5q0 -22 -12.5 -35.5t-32.5 -13.5z
M659 221q-20 0 -33.5 13.5t-13.5 35.5q0 19 13 33t34 14q20 0 31.5 -13.5t11.5 -33.5q0 -22 -12 -35.5t-31 -13.5z" />
    <glyph glyph-name=".notdef" horiz-adv-x="1048" 
d="M1049 1470v-1470h-1049v1470h1049zM946 102v1264h-844v-1264h844zM530 1247q111 0 182.5 -74t71.5 -194q0 -74 -29 -127t-102 -121q-55 -51 -73 -77.5t-21 -71.5q-4 -50 -4 -103h-94q-4 32 -4 60q0 24 1.5 44.5t7.5 40.5t8 32.5t14 31.5t14.5 25.5t19.5 26t19 22t23.5 25
t23.5 24.5q4 4 17 17.5t16.5 17t13.5 15t13.5 16.5t10.5 15.5t9.5 17.5t6 17.5t4.5 21t1 22.5q0 72 -46.5 123t-109.5 51q-70 0 -113 -49.5t-55 -145.5l-102 17q12 136 83 208t193 72zM455 377h114v-137h-114v137z" />
    <glyph glyph-name="uni0000" horiz-adv-x="1000" 
 />
    <glyph glyph-name="uni0000" horiz-adv-x="1000" 
 />
    <glyph glyph-name="uni000D" unicode="&#xd;" horiz-adv-x="569" 
 />
    <glyph glyph-name="uniFBE9" horiz-adv-x="667" 
d="M668 129q41 0 41 -66q0 -29 -10.5 -46t-30.5 -17q-244 0 -328 152q-89 -152 -340 -152v129q137 0 197.5 64.5t60.5 216.5v415h135v-446q0 -250 275 -250z" />
    <glyph glyph-name="uniFBE8" horiz-adv-x="514" 
d="M0 0v129q137 0 197.5 64.5t60.5 216.5v415h135v-436q0 -202 -98.5 -295.5t-294.5 -93.5z" />
    <glyph glyph-name="glyph131" horiz-adv-x="1048" 
d="M1049 1470v-1470h-1049v1470h1049zM946 102v1264h-844v-1264h844zM530 1247q111 0 182.5 -74t71.5 -194q0 -74 -29 -127t-102 -121q-55 -51 -73 -77.5t-21 -71.5q-4 -50 -4 -103h-94q-4 32 -4 60q0 24 1.5 44.5t7.5 40.5t8 32.5t14 31.5t14.5 25.5t19.5 26t19 22t23.5 25
t23.5 24.5q4 4 17 17.5t16.5 17t13.5 15t13.5 16.5t10.5 15.5t9.5 17.5t6 17.5t4.5 21t1 22.5q0 72 -46.5 123t-109.5 51q-70 0 -113 -49.5t-55 -145.5l-102 17q12 136 83 208t193 72zM455 377h114v-137h-114v137z" />
    <glyph glyph-name="space" unicode=" " horiz-adv-x="569" 
 />
    <glyph glyph-name="exclam" unicode="!" horiz-adv-x="569" 
d="M358 1450v-1057h-147v1057h147zM285 209q46 0 78 -33t32 -78t-31.5 -77.5t-78.5 -32.5q-48 0 -79.5 32.5t-31.5 77.5t32 78t79 33z" />
    <glyph glyph-name="quotedbl" unicode="&#x22;" horiz-adv-x="1062" 
d="M618 969v481h123v-481h-123zM444 969h-122v481h122v-481z" />
    <glyph glyph-name="numbersign" unicode="#" horiz-adv-x="1138" 
d="M72 561h225l45 332h-221v123h239l60 434h125l-60 -434h273l59 434h125l-59 -434h184v-123h-203l-45 -332h195v-123h-211l-62 -438h-125l62 438h-272l-62 -438h-125l62 438h-209v123zM467 893l-45 -332h272l45 332h-272z" />
    <glyph glyph-name="dollar" unicode="$" horiz-adv-x="1138" 
d="M520 -37q-134 7 -248 67t-184 158l123 88q63 -78 150 -127t159 -49v572q-209 65 -302 164t-93 243q0 158 110 269.5t285 130.5v143h98v-139q118 0 209.5 -41t169.5 -133l-114 -99q-41 66 -110 102t-155 36v-547q122 -43 203.5 -90t128 -101.5t65.5 -112.5t19 -132
q0 -158 -113.5 -270.5t-302.5 -127.5v-139h-98v135zM618 643v-541q122 2 196.5 74t74.5 193q0 91 -69.5 161t-201.5 113zM272 1083q0 -85 57.5 -145t190.5 -111v519q-111 -10 -179.5 -84t-68.5 -179z" />
    <glyph glyph-name="percent" unicode="%" horiz-adv-x="1705" 
d="M1262 1513l104 -57l-922 -1519l-106 55zM438 1475q150 0 255.5 -104.5t105.5 -254.5q0 -146 -103.5 -252t-257.5 -106q-151 0 -255.5 105.5t-104.5 252.5q0 150 105.5 254.5t254.5 104.5zM201 1116q0 -98 69.5 -166.5t167.5 -68.5q99 0 168.5 68.5t69.5 166.5t-70.5 167
t-169.5 69q-94 0 -164.5 -69.5t-70.5 -166.5zM1268 692q148 0 254 -105t106 -253t-105.5 -253.5t-254.5 -105.5t-255 105t-106 254t105 253.5t256 104.5zM1030 334q0 -100 70.5 -168t167.5 -68q98 0 167.5 69t69.5 167t-68.5 166.5t-168.5 68.5q-99 0 -168.5 -68.5
t-69.5 -166.5z" />
    <glyph glyph-name="ampersand" unicode="&#x26;" horiz-adv-x="1441" 
d="M621 1487q153 0 251.5 -89t98.5 -237q0 -109 -77 -200t-243 -177l334 -344l199 344h166l-267 -448l326 -336h-209l-205 213q-98 -129 -203.5 -189.5t-238.5 -60.5q-195 0 -325 115.5t-130 298.5q0 274 330 428q-170 182 -170 342q0 153 101 246.5t262 93.5zM406 1141
q0 -58 45 -132.5t106 -129.5q87 45 143.5 85.5t81.5 76.5t33 62t8 58q0 81 -56.5 136t-145.5 55q-93 0 -154 -59.5t-61 -151.5zM258 377q0 -120 87 -199.5t210 -79.5q96 0 177 48.5t171 164.5l-383 402q-53 -31 -82.5 -50t-69.5 -51.5t-60 -63t-35 -75t-15 -96.5z" />
    <glyph glyph-name="quotesingle" unicode="'" horiz-adv-x="532" 
d="M205 1450h123v-481h-123v481z" />
    <glyph glyph-name="parenleft" unicode="(" horiz-adv-x="532" 
d="M408 1507l108 -69q-149 -246 -209.5 -424.5t-60.5 -423.5q0 -167 29.5 -303.5t81.5 -251.5t151 -281l-109 -82q-137 193 -212.5 433t-75.5 485q0 242 77.5 481.5t219.5 435.5z" />
    <glyph glyph-name="parenright" unicode=")" horiz-adv-x="532" 
d="M133 1507q140 -196 214.5 -435t74.5 -482q0 -244 -77 -482.5t-220 -435.5l-109 70q99 164 153.5 282.5t86 259.5t31.5 306t-30 302t-81.5 250.5t-150.5 282.5z" />
    <glyph glyph-name="asterisk" unicode="*" horiz-adv-x="909" 
d="M393 1450h123v-293l287 92l43 -114l-289 -93l184 -247l-98 -74l-188 254l-189 -254l-98 74l184 247l-289 93l43 114l287 -92v293z" />
    <glyph glyph-name="plus" unicode="+" horiz-adv-x="1363" 
d="M160 559v123h461v461h122v-461h461v-123h-461v-461h-122v461h-461z" />
    <glyph glyph-name="comma" unicode="," horiz-adv-x="569" 
d="M436 195l-166 -482h-137l137 482h166z" />
    <glyph glyph-name="hyphen" unicode="-" horiz-adv-x="681" 
d="M604 559v-135h-526v135h526z" />
    <glyph glyph-name="period" unicode="." horiz-adv-x="569" 
d="M285 209q46 0 78 -33t32 -78t-31.5 -77.5t-78.5 -32.5q-48 0 -79.5 32.5t-31.5 77.5t32 78t79 33z" />
    <glyph glyph-name="slash" unicode="/" horiz-adv-x="757" 
d="M631 1487l117 -41l-619 -1483l-119 39z" />
    <glyph glyph-name="zero" unicode="0" horiz-adv-x="1138" 
d="M569 1475q241 0 366.5 -192.5t125.5 -557.5q0 -366 -124.5 -558t-367.5 -192q-241 0 -366 192.5t-125 557.5t125 557.5t366 192.5zM225 725q0 -314 86 -464t258 -150q344 0 344 614q0 312 -86.5 463t-259.5 151q-342 0 -342 -614z" />
    <glyph glyph-name="one" unicode="1" horiz-adv-x="1138" 
d="M713 1450v-1450h-148v1266l-262 -230l-90 111l369 303h131z" />
    <glyph glyph-name="two" unicode="2" horiz-adv-x="1138" 
d="M569 1475q71 0 134.5 -14.5t119.5 -45.5t97 -76t64.5 -110t23.5 -144q0 -67 -19 -128.5t-60 -122.5t-84 -110t-112 -118l-475 -471h762v-135h-922v170l578 588q102 104 143 178t41 149q0 112 -78.5 183t-201.5 71q-106 0 -184.5 -61t-104.5 -166l-156 16
q31 159 148.5 253t285.5 94z" />
    <glyph glyph-name="three" unicode="3" horiz-adv-x="1138" 
d="M539 1475q183 0 301 -104.5t118 -270.5q0 -111 -67.5 -203.5t-179.5 -130.5q133 -32 209.5 -134t76.5 -239q0 -187 -130.5 -302.5t-331.5 -115.5q-344 0 -457 293l155 47q38 -106 113.5 -155t200.5 -49q126 0 214.5 82t88.5 204q0 140 -97 217.5t-300 77.5h-35v135h57
q173 0 254.5 71t81.5 196q0 118 -70 181.5t-198 63.5q-187 0 -277 -159l-129 65q128 230 402 230z" />
    <glyph glyph-name="four" unicode="4" horiz-adv-x="1138" 
d="M78 344v168l586 938h188v-971h209v-135h-209v-344h-147v344h-627zM700 1303l-499 -824h504v824h-5z" />
    <glyph glyph-name="five" unicode="5" horiz-adv-x="1138" 
d="M952 1450v-135h-594l-8 -436q86 34 195 34q201 0 330 -132t129 -332q0 -208 -138.5 -341t-349.5 -133q-138 0 -250 68t-168 190l146 64q44 -87 117 -136.5t167 -49.5q136 0 232 95t96 228q0 152 -100 248t-256 96q-151 0 -301 -80l14 752h739z" />
    <glyph glyph-name="six" unicode="6" horiz-adv-x="1138" 
d="M788 1450l-395 -623l4 -4q73 49 201 49q187 0 314.5 -128t127.5 -320q0 -197 -133 -323t-338 -126q-207 0 -339 127t-132 324q0 87 24.5 169t57.5 142.5t107 180.5l327 532h174zM246 424q0 -138 92 -225.5t231 -87.5q144 0 234 88.5t90 224.5q0 137 -90 225t-236 88
q-140 0 -230.5 -88.5t-90.5 -224.5z" />
    <glyph glyph-name="seven" unicode="7" horiz-adv-x="1138" 
d="M971 1450v-135l-584 -1315h-166l596 1315h-706v135h860z" />
    <glyph glyph-name="eight" unicode="8" horiz-adv-x="1138" 
d="M569 1475q172 0 289 -108t117 -271q0 -110 -61.5 -201t-155.5 -123v-4q123 -35 196.5 -138.5t73.5 -242.5q0 -177 -133.5 -294.5t-325.5 -117.5q-189 0 -323.5 117.5t-134.5 294.5q0 140 73.5 244.5t196.5 136.5v4q-94 32 -155.5 123t-61.5 201q0 162 117.5 270.5
t287.5 108.5zM311 1083q0 -108 74 -182t184 -74t184 74t74 182t-73.5 182t-186.5 74q-107 0 -181.5 -74.5t-74.5 -181.5zM258 408q0 -130 87 -213.5t224 -83.5q135 0 223.5 83.5t88.5 213.5t-87 213.5t-227 83.5q-135 0 -222 -83.5t-87 -213.5z" />
    <glyph glyph-name="nine" unicode="9" horiz-adv-x="1138" 
d="M569 1475q204 0 337.5 -127t133.5 -324q0 -95 -26 -182.5t-101 -208.5l-389 -633h-174l395 623l-4 4q-76 -49 -200 -49q-189 0 -316 128.5t-127 319.5q0 195 134 322t337 127zM246 1026q0 -138 92 -225.5t231 -87.5q144 0 234 88.5t90 224.5q0 137 -90 225t-236 88
q-140 0 -230.5 -88.5t-90.5 -224.5z" />
    <glyph glyph-name="colon" unicode=":" horiz-adv-x="569" 
d="M285 969q46 0 78 -33t32 -78t-31.5 -77.5t-78.5 -32.5q-48 0 -79.5 32.5t-31.5 77.5t32 78t79 33zM285 209q46 0 78 -33t32 -78t-31.5 -77.5t-78.5 -32.5q-48 0 -79.5 32.5t-31.5 77.5t32 78t79 33z" />
    <glyph glyph-name="semicolon" unicode=";" horiz-adv-x="569" 
d="M303 969q46 0 78.5 -33.5t32.5 -77.5q0 -45 -32 -77.5t-79 -32.5t-78.5 32.5t-31.5 77.5t32 78t78 33zM436 195l-166 -482h-137l137 482h166z" />
    <glyph glyph-name="less" unicode="&#x3c;" horiz-adv-x="1363" 
d="M160 573v95l1044 487v-123l-878 -411l878 -412v-123z" />
    <glyph glyph-name="equal" unicode="=" horiz-adv-x="1363" 
d="M1204 713h-1044v123h1044v-123zM160 528h1044v-122h-1044v122z" />
    <glyph glyph-name="greater" unicode="&#x3e;" horiz-adv-x="1363" 
d="M1204 573l-1044 -487v123l878 412l-878 411v123l1044 -487v-95z" />
    <glyph glyph-name="question" unicode="?" horiz-adv-x="987" 
d="M508 1475q172 0 280.5 -98t108.5 -261q0 -105 -39.5 -179.5t-144.5 -164.5q-97 -82 -122.5 -142t-25.5 -177v-60h-147v172q0 61 37.5 119.5t122.5 134.5q87 77 129.5 144t42.5 141q0 104 -67 169.5t-173 65.5q-100 0 -170 -59.5t-90 -163.5l-154 19q24 158 137 249
t275 91zM504 209q46 0 78 -33t32 -78t-31.5 -77.5t-78.5 -32.5q-48 0 -79.5 32.5t-31.5 77.5t32 78t79 33z" />
    <glyph glyph-name="at" unicode="@" horiz-adv-x="1638" 
d="M854 1487q190 0 349 -81t253 -226t94 -322q0 -120 -46 -230.5t-116 -184.5t-152.5 -118t-156.5 -44q-129 0 -143 120h-4q-66 -66 -124.5 -93t-131.5 -27q-129 0 -210 86t-81 223q0 109 36.5 213.5t99 184t152.5 128.5t191 49q177 0 234 -168h4l45 129h115l-168 -565
q-23 -84 -23 -117q0 -17 13.5 -29t33.5 -12q70 0 142.5 65.5t119.5 170.5t47 211q0 89 -31.5 171t-86.5 145.5t-127 111t-157 73t-171 25.5q-171 0 -320 -92t-236 -242t-87 -317q0 -166 85.5 -315.5t235 -242.5t322.5 -93q152 0 293 66.5t223 181.5h131q-97 -167 -272 -263
t-375 -96q-157 0 -299 60.5t-244 162.5t-162.5 243t-60.5 296q0 154 60.5 295t163 243.5t244.5 163t298 60.5zM520 600q0 -85 54.5 -141t138.5 -56q78 0 153.5 70.5t119.5 171.5t44 193q0 84 -49.5 144t-116.5 60q-86 0 -167 -66.5t-129 -169.5t-48 -206z" />
    <glyph glyph-name="A" unicode="A" horiz-adv-x="1404" 
d="M172 0h-172l631 1450h143l631 -1450h-172l-160 381h-741zM702 1278l-315 -762h629z" />
    <glyph glyph-name="B" unicode="B" horiz-adv-x="1290" 
d="M649 0h-452v1450h442q211 0 334 -95t123 -270q0 -118 -68 -203t-188 -114v-4q154 -13 240.5 -109.5t86.5 -251.5q0 -77 -32.5 -148t-94.5 -128.5t-163.5 -92t-227.5 -34.5zM344 135h293q168 0 269.5 73t101.5 202q0 143 -92 212.5t-261 69.5h-311v-557zM344 815h303
q126 0 207.5 68t81.5 184q0 109 -81 178.5t-220 69.5h-291v-500z" />
    <glyph glyph-name="C" unicode="C" horiz-adv-x="1441" 
d="M854 1487q152 0 283 -60t219 -170l-129 -96q-50 80 -160.5 135.5t-212.5 55.5q-172 0 -309 -83.5t-212 -226.5t-75 -317q0 -176 75.5 -319t212 -225.5t308.5 -82.5q272 0 416 217l121 -86q-80 -122 -225 -194t-312 -72q-159 0 -299.5 58.5t-240.5 160t-158 242.5t-58 301
q0 159 58 300t157.5 242.5t240.5 160.5t300 59z" />
    <glyph glyph-name="D" unicode="D" horiz-adv-x="1517" 
d="M655 1450q216 0 390.5 -93t274 -259t99.5 -373q0 -208 -101 -375t-272.5 -258.5t-379.5 -91.5h-490v1450h479zM612 135q195 0 343.5 77.5t226.5 211t78 301.5q0 256 -177.5 423t-461.5 167h-297v-1180h288z" />
    <glyph glyph-name="E" unicode="E" horiz-adv-x="1214" 
d="M197 0v1450h899v-135h-752v-494h703v-135h-703v-551h776v-135h-923z" />
    <glyph glyph-name="F" unicode="F" horiz-adv-x="1138" 
d="M197 0v1450h874v-135h-727v-494h676v-135h-676v-686h-147z" />
    <glyph glyph-name="G" unicode="G" horiz-adv-x="1593" 
d="M854 1487q329 0 524 -195l-110 -108q-158 168 -414 168q-172 0 -308.5 -82.5t-212 -225.5t-75.5 -319t75.5 -319t212 -225.5t308.5 -82.5q223 0 401 103v485h-346v135h494v-710q-122 -72 -267 -110t-282 -38q-214 0 -387.5 100t-271 274t-97.5 388q0 160 57.5 301
t157.5 242.5t240.5 160t300.5 58.5z" />
    <glyph glyph-name="H" unicode="H" horiz-adv-x="1478" 
d="M197 0v1450h147v-629h791v629h147v-1450h-147v686h-791v-686h-147z" />
    <glyph glyph-name="I" unicode="I" horiz-adv-x="540" 
d="M344 1450v-1450h-147v1450h147z" />
    <glyph glyph-name="J" unicode="J" horiz-adv-x="987" 
d="M811 1450v-1061q0 -118 -44.5 -213t-139 -154t-224.5 -59q-154 0 -251.5 78t-122.5 225l149 31q21 -94 78.5 -146.5t151.5 -52.5q256 0 256 351v1001h147z" />
    <glyph glyph-name="K" unicode="K" horiz-adv-x="1290" 
d="M197 0v1450h147v-629h21l682 629h210l-731 -657l772 -793h-217l-712 748h-25v-748h-147z" />
    <glyph glyph-name="L" unicode="L" horiz-adv-x="1024" 
d="M344 1450v-1315h676v-135h-823v1450h147z" />
    <glyph glyph-name="M" unicode="M" horiz-adv-x="1822" 
d="M197 0v1450h225l489 -1180l490 1180h225v-1450h-147v1253h-4l-525 -1253h-78l-524 1253h-4v-1253h-147z" />
    <glyph glyph-name="N" unicode="N" horiz-adv-x="1593" 
d="M344 0h-147v1450h184l864 -1229h4v1229h148v-1450h-185l-864 1241h-4v-1241z" />
    <glyph glyph-name="O" unicode="O" horiz-adv-x="1708" 
d="M854 1487q214 0 387.5 -100t271 -274t97.5 -388q0 -160 -58 -301.5t-158 -242.5t-240.5 -159.5t-299.5 -58.5t-299.5 58.5t-240.5 160t-158 242.5t-58 301t57.5 301t157.5 242.5t240.5 160t300.5 58.5zM258 725q0 -176 75.5 -319t212 -225.5t308.5 -82.5q175 0 312 84
t210.5 226.5t73.5 316.5q0 173 -75 316t-212.5 227t-310.5 84q-170 0 -306.5 -82.5t-212 -226t-75.5 -318.5z" />
    <glyph glyph-name="P" unicode="P" horiz-adv-x="1175" 
d="M344 0h-147v1450h432q220 0 343.5 -99.5t123.5 -287.5t-123.5 -288.5t-343.5 -100.5h-285v-674zM344 1315v-506h248q162 0 253 65.5t91 188.5q0 125 -91 188.5t-253 63.5h-248z" />
    <glyph glyph-name="Q" unicode="Q" horiz-adv-x="1708" 
d="M831 1487q156 0 292 -57.5t232.5 -156t152 -236.5t55.5 -294q0 -209 -87 -362.5t-253 -241.5v-4h438v-135h-840q-140 0 -271 54t-231 147t-160.5 230t-60.5 292q0 223 93.5 397.5t260.5 270.5t379 96zM258 743q0 -167 71.5 -305.5t203.5 -220.5t298 -82t298 82t203 220.5
t71 305.5q0 126 -42.5 237.5t-117 193.5t-182 130t-232.5 48q-162 0 -293 -80t-204.5 -219.5t-73.5 -309.5z" />
    <glyph glyph-name="R" unicode="R" horiz-adv-x="1214" 
d="M344 0h-147v1450h456q219 0 343 -99.5t124 -287.5q0 -156 -96 -257t-272 -118l415 -688h-180l-397 674h-246v-674zM344 809h272q165 0 255 66t90 188q0 123 -91.5 187.5t-253.5 64.5h-272v-506z" />
    <glyph glyph-name="S" unicode="S" horiz-adv-x="1138" 
d="M602 1487q137 0 236 -44t174 -132l-129 -101q-98 142 -281 142q-134 0 -221.5 -71.5t-87.5 -190.5q0 -98 64.5 -162t201.5 -107q56 -18 88 -28.5t80.5 -28.5t75.5 -32t64.5 -35.5t58.5 -42.5t45 -50t36 -61t20.5 -72t8.5 -86q1 -118 -65 -215.5t-176 -152t-238 -54.5
q-141 0 -259.5 55t-195.5 160l134 96q48 -83 132 -129.5t195 -46.5q127 0 220.5 75t93.5 189q0 107 -66.5 171.5t-232.5 115.5q-50 16 -81 26t-74.5 26.5t-70.5 30.5t-61 34.5t-54.5 41.5t-42.5 49.5t-34 60t-19.5 71.5t-7.5 86q0 125 63 219.5t168.5 143.5t237.5 49z" />
    <glyph glyph-name="T" unicode="T" horiz-adv-x="1175" 
d="M29 1315v135h1118v-135h-485v-1315h-148v1315h-485z" />
    <glyph glyph-name="U" unicode="U" horiz-adv-x="1404" 
d="M172 532v918h147v-903q0 -213 102 -331t281 -118t281 118t102 331v903h148v-918q0 -169 -58.5 -296t-179.5 -200t-293 -73q-256 0 -393 154t-137 415z" />
    <glyph glyph-name="V" unicode="V" horiz-adv-x="1251" 
d="M-6 1450h164l460 -1229h5l475 1229h159l-565 -1450h-147z" />
    <glyph glyph-name="W" unicode="W" horiz-adv-x="1933" 
d="M428 0l-428 1450h164l348 -1241h4l365 1241h176l364 -1241h4l344 1241h164l-428 -1450h-172l-364 1241h-4l-365 -1241h-172z" />
    <glyph glyph-name="X" unicode="X" horiz-adv-x="1290" 
d="M197 0h-185l531 762l-490 688h199l395 -580l408 580h182l-492 -688l533 -762h-195l-442 657z" />
    <glyph glyph-name="Y" unicode="Y" horiz-adv-x="1175" 
d="M-29 1450h185l432 -684l432 684h184l-542 -825v-625h-148v625z" />
    <glyph glyph-name="Z" unicode="Z" horiz-adv-x="1138" 
d="M1079 1450v-123l-846 -1192h859v-135h-1045v123l848 1192h-836v135h1020z" />
    <glyph glyph-name="bracketleft" unicode="[" horiz-adv-x="532" 
d="M133 -319v1818h332v-110h-197v-1598h197v-110h-332z" />
    <glyph glyph-name="backslash" unicode="\" horiz-adv-x="757" 
d="M127 1487l621 -1485l-119 -39l-619 1483z" />
    <glyph glyph-name="bracketright" unicode="]" horiz-adv-x="532" 
d="M399 -319h-331v110h196v1598h-196v110h331v-1818z" />
    <glyph glyph-name="asciicircum" unicode="^" horiz-adv-x="1363" 
d="M164 563l469 887h98l469 -887h-127l-391 740l-391 -740h-127z" />
    <glyph glyph-name="underscore" unicode="_" horiz-adv-x="1024" 
d="M1024 -154v-102h-1024v102h1024z" />
    <glyph glyph-name="grave" unicode="`" horiz-adv-x="491" 
d="M166 1450l205 -295h-121l-270 295h186z" />
    <glyph glyph-name="a" unicode="a" horiz-adv-x="1062" 
d="M428 -25q-144 0 -237 77.5t-93 203.5q0 169 141.5 250.5t460.5 81.5h62v20q0 130 -60.5 191t-185.5 61q-169 0 -293 -112l-82 96q136 139 404 139q163 0 257.5 -91.5t94.5 -242.5v-444q0 -87 16 -205h-131q-12 64 -12 156h-4q-60 -94 -141.5 -137.5t-196.5 -43.5z
M668 477q-197 0 -309.5 -51.5t-112.5 -151.5q0 -81 62 -128.5t163 -47.5q135 0 213 83.5t78 244.5v51h-94z" />
    <glyph glyph-name="b" unicode="b" horiz-adv-x="1251" 
d="M283 0h-136v1548h136v-749h4q59 86 160 135t212 49q222 0 366 -142.5t144 -361.5q0 -217 -144.5 -360.5t-365.5 -143.5q-110 0 -211.5 50t-160.5 135h-4v-160zM659 98q160 0 261.5 107t101.5 274q0 166 -102 273.5t-263 107.5q-162 0 -271.5 -110.5t-109.5 -270.5
q0 -161 110 -271t273 -110z" />
    <glyph glyph-name="c" unicode="c" horiz-adv-x="987" 
d="M598 983q101 0 194 -41.5t164 -124.5l-110 -84q-41 60 -105 93.5t-139 33.5q-159 0 -257.5 -106.5t-98.5 -274.5q0 -167 96.5 -274t253.5 -107q80 0 145.5 34.5t104.5 92.5l110 -84q-141 -166 -362 -166q-218 0 -357 141.5t-139 362.5t140 362.5t360 141.5z" />
    <glyph glyph-name="d" unicode="d" horiz-adv-x="1251" 
d="M592 -25q-220 0 -365 143.5t-145 360.5q0 218 145 361t365 143q111 0 212.5 -49.5t160.5 -134.5h4v749h135v-1548h-135v160h-4q-60 -86 -162.5 -135.5t-210.5 -49.5zM229 479q0 -166 101 -273.5t262 -107.5q163 0 273 110t110 271t-111 271t-274 110q-158 0 -259.5 -108
t-101.5 -273z" />
    <glyph glyph-name="e" unicode="e" horiz-adv-x="1138" 
d="M580 983q202 0 331 -132t129 -368v-41h-798q15 -150 115 -247t237 -97q93 0 175.5 44t131.5 122l105 -86q-163 -203 -412 -203q-215 0 -355.5 144.5t-140.5 359.5q0 214 140 359t342 145zM893 553q0 139 -85 223t-226 84q-126 0 -229.5 -91t-106.5 -216h647z" />
    <glyph glyph-name="f" unicode="f" horiz-adv-x="606" 
d="M29 958h202v273q0 164 81.5 253t240.5 89q57 0 117 -14l-25 -123q-55 14 -104 14q-90 0 -132 -55t-42 -183v-254h227v-122h-227v-836h-136v836h-202v122z" />
    <glyph glyph-name="g" unicode="g" horiz-adv-x="1251" 
d="M98 487q0 211 139.5 353.5t348.5 142.5q116 0 211.5 -47t156.5 -135h7v157h135v-958q0 -230 -132.5 -361t-381.5 -131q-280 0 -461 193l100 106q62 -82 157.5 -129t211.5 -47q178 0 274.5 98.5t96.5 270.5v180h-5q-119 -180 -358 -180q-139 0 -254 65.5t-180.5 177.5
t-65.5 244zM600 860q-145 0 -249.5 -108t-104.5 -260q0 -151 103.5 -260t252.5 -109q153 0 258 102t105 254q0 164 -100.5 272.5t-264.5 108.5z" />
    <glyph glyph-name="h" unicode="h" horiz-adv-x="1138" 
d="M283 0h-136v1548h136v-743h4q44 78 134 128t187 50q177 0 269 -96t92 -271v-616h-135v541q0 167 -59.5 243t-194.5 76q-56 0 -108 -22.5t-95 -66t-68.5 -116.5t-25.5 -166v-489z" />
    <glyph glyph-name="i" unicode="i" horiz-adv-x="491" 
d="M246 1425q38 0 68 -30t30 -68q0 -41 -29.5 -69.5t-68.5 -28.5q-38 0 -68.5 29t-30.5 69t30.5 69t68.5 29zM313 958v-958h-135v958h135z" />
    <glyph glyph-name="j" unicode="j" horiz-adv-x="491" 
d="M246 1425q38 0 68 -30t30 -68q0 -41 -29.5 -69.5t-68.5 -28.5q-38 0 -68.5 29t-30.5 69t30.5 69t68.5 29zM313 958v-1177q0 -132 -67.5 -202.5t-202.5 -70.5q-54 0 -106 21l18 117q45 -15 80 -15q72 0 107.5 47t35.5 146v1134h135z" />
    <glyph glyph-name="k" unicode="k" horiz-adv-x="987" 
d="M147 0v1548h136v-1022l452 432h203l-477 -438l528 -520h-209l-497 504v-504h-136z" />
    <glyph glyph-name="l" unicode="l" horiz-adv-x="491" 
d="M313 1548v-1548h-135v1548h135z" />
    <glyph glyph-name="m" unicode="m" horiz-adv-x="1744" 
d="M137 958h146v-145h4q44 75 130.5 122.5t178.5 47.5q113 0 190.5 -51.5t114.5 -147.5q42 92 130 145.5t188 53.5q175 0 266.5 -96t91.5 -271v-616h-135v569q0 151 -57 221t-185 70q-130 0 -200 -93t-70 -249v-518h-135v569q0 151 -57 221t-183 70q-116 0 -194 -98
t-78 -275v-487h-136v758q0 108 -10 200z" />
    <glyph glyph-name="n" unicode="n" horiz-adv-x="1138" 
d="M147 756l-10 202h139q7 -60 7 -153h4q44 78 134 128t187 50q177 0 269 -96t92 -271v-616h-135v541q0 163 -60.5 241t-191.5 78q-53 0 -103 -20t-95.5 -61.5t-73 -118t-27.5 -177.5v-483h-136v756z" />
    <glyph glyph-name="o" unicode="o" horiz-adv-x="1214" 
d="M606 983q217 0 363.5 -141t146.5 -363q0 -218 -144 -361t-366 -143q-220 0 -364 143t-144 361t144.5 361t363.5 143zM246 479q0 -167 101.5 -274t258.5 -107q161 0 262 107.5t101 273.5q0 165 -101 273t-264 108q-157 0 -257.5 -107t-100.5 -274z" />
    <glyph glyph-name="p" unicode="p" horiz-adv-x="1251" 
d="M147 -590v1548h136v-159h4q59 86 160 135t212 49q221 0 365.5 -143.5t144.5 -360.5t-144.5 -360.5t-365.5 -143.5q-110 0 -211.5 50t-160.5 135h-4v-750h-136zM659 98q160 0 261.5 107t101.5 274q0 166 -102 273.5t-263 107.5t-271 -110.5t-110 -270.5q0 -161 110 -271
t273 -110z" />
    <glyph glyph-name="q" unicode="q" horiz-adv-x="1251" 
d="M82 479q0 217 146 360.5t364 143.5q111 0 212.5 -49.5t160.5 -134.5h4v159h135v-1548h-135v750h-4q-60 -86 -162.5 -135.5t-210.5 -49.5q-220 0 -365 143.5t-145 360.5zM229 479q0 -166 101 -273.5t262 -107.5q163 0 273 110t110 271t-111 271t-274 110
q-158 0 -259.5 -108t-101.5 -273z" />
    <glyph glyph-name="r" unicode="r" horiz-adv-x="679" 
d="M598 983q54 0 100 -12l-26 -133q-23 10 -76 10q-134 0 -216.5 -92.5t-82.5 -223.5v-532h-135v666q0 77 -3.5 160t-4.5 132h133v-178h4q38 97 118 150t189 53z" />
    <glyph glyph-name="s" unicode="s" horiz-adv-x="872" 
d="M457 983q113 0 195.5 -44t123.5 -128l-121 -80q-66 129 -206 129q-88 0 -143.5 -39t-55.5 -104q0 -62 47 -97.5t174 -62.5q91 -20 141.5 -36.5t85.5 -41.5q111 -81 111 -209q0 -135 -102 -215t-271 -80q-243 0 -368 187l116 80q93 -144 252 -144q99 0 162 43t64 117
q2 65 -54 103.5t-205 68.5q-154 30 -227.5 96t-73.5 168q0 130 98 209.5t257 79.5z" />
    <glyph glyph-name="t" unicode="t" horiz-adv-x="679" 
d="M231 836h-202v122h202v271h136v-271h276v-122h-276v-574q0 -82 31.5 -123t107.5 -41q73 0 139 37l6 -125q-78 -35 -182 -35q-112 0 -175 65.5t-63 182.5v613z" />
    <glyph glyph-name="u" unicode="u" horiz-adv-x="1138" 
d="M147 342v616h136v-540q0 -166 61.5 -243t196.5 -77q121 0 207 97.5t86 263.5v499h135v-755q0 -14 4.5 -101t5.5 -102h-139q-6 40 -6 78v76h-5q-47 -79 -137 -129t-184 -50q-181 0 -271 97.5t-90 269.5z" />
    <glyph glyph-name="v" unicode="v" horiz-adv-x="987" 
d="M29 958h161l308 -811l307 811h153l-389 -958h-151z" />
    <glyph glyph-name="w" unicode="w" horiz-adv-x="1478" 
d="M332 0l-303 958h159l222 -778h4l256 778h139l256 -778h4l221 778h160l-303 -958h-152l-254 786h-4l-254 -786h-151z" />
    <glyph glyph-name="x" unicode="x" horiz-adv-x="987" 
d="M172 0h-172l395 512l-348 446h184l267 -358l254 358h168l-334 -446l401 -512h-184l-322 420z" />
    <glyph glyph-name="y" unicode="y" horiz-adv-x="987" 
d="M426 -12l-393 970h170l301 -792l293 792h164l-467 -1179q-62 -159 -134.5 -215t-181.5 -56q-62 0 -123 15l15 131q47 -23 102 -23q118 0 174 148z" />
    <glyph glyph-name="z" unicode="z" horiz-adv-x="872" 
d="M805 958v-98l-561 -737h581v-123h-778v98l561 738h-532v122h729z" />
    <glyph glyph-name="braceleft" unicode="{" horiz-adv-x="532" 
d="M25 651q80 1 131 66t51 155v379q0 115 58.5 181.5t158.5 66.5h135v-123h-117q-53 0 -76.5 -36t-23.5 -126v-366q0 -87 -49 -166.5t-131 -89.5v-4q82 -10 131 -88t49 -166v-371q0 -89 24 -124.5t76 -35.5h117v-122h-135q-100 0 -158.5 66t-58.5 181v379q0 89 -51 153
t-131 68v123z" />
    <glyph glyph-name="bar" unicode="|" horiz-adv-x="454" 
d="M166 1536h123v-2048h-123v2048z" />
    <glyph glyph-name="braceright" unicode="}" horiz-adv-x="532" 
d="M-27 1376v123h136q100 0 158.5 -66t58.5 -182v-379q0 -90 51 -155t131 -66v-123q-80 -4 -131 -68t-51 -153v-379q0 -116 -58.5 -181.5t-158.5 -65.5h-136v122h117q50 0 75 35.5t25 124.5v371q0 81 37 144t99 93q16 9 47 17v4q-84 10 -133.5 88t-49.5 168v366
q0 90 -24 126t-76 36h-117z" />
    <glyph glyph-name="asciitilde" unicode="~" horiz-adv-x="1363" 
d="M471 760q66 0 130.5 -24.5t106.5 -53.5t92.5 -53.5t92.5 -24.5q107 0 203 150l86 -82q-74 -103 -139 -147t-150 -44q-70 0 -134 24.5t-103.5 53.5t-89.5 53.5t-95 24.5q-107 0 -203 -150l-86 82q71 100 137.5 145.5t151.5 45.5z" />
    <glyph glyph-name="Aacute" unicode="&#xc1;" horiz-adv-x="1404" 
d="M0 0l631 1450h143l631 -1450h-172l-160 381h-741l-160 -381h-172zM702 1278l-315 -762h629zM698 1513h-120l204 295h187z" />
    <glyph glyph-name="Acircumflex" unicode="&#xc2;" horiz-adv-x="1404" 
d="M0 0l631 1450h143l631 -1450h-172l-160 381h-741l-160 -381h-172zM702 1278l-315 -762h629zM532 1513h-135l224 295h163l224 -295h-136l-170 222z" />
    <glyph glyph-name="Adieresis" unicode="&#xc4;" horiz-adv-x="1404" 
d="M0 0l631 1450h143l631 -1450h-172l-160 381h-741l-160 -381h-172zM702 1278l-315 -762h629zM899 1579q-44 0 -74 30.5t-30 73.5q0 44 29 74.5t75 30.5q44 0 74.5 -31t30.5 -74t-30.5 -73.5t-74.5 -30.5zM401 1683q0 44 29.5 74.5t75.5 30.5q44 0 74 -31t30 -74t-30 -73.5
t-74 -30.5t-74.5 30.5t-30.5 73.5z" />
    <glyph glyph-name="Agrave" unicode="&#xc0;" horiz-adv-x="1404" 
d="M172 0h-172l631 1450h143l631 -1450h-172l-160 381h-741zM702 1278l-315 -762h629zM436 1808h187l204 -295h-118z" />
    <glyph glyph-name="Aring" unicode="&#xc5;" horiz-adv-x="1404" 
d="M0 0l631 1450h143l631 -1450h-172l-160 381h-741l-160 -381h-172zM702 1278l-315 -762h629zM506 1690q0 81 58 137.5t138 56.5t138.5 -56.5t58.5 -137.5q0 -82 -57.5 -138.5t-139.5 -56.5t-139 56.5t-57 138.5zM702 1810q-50 0 -86 -35t-36 -85q0 -51 36 -86t86 -35
q51 0 87 35.5t36 85.5t-36 85t-87 35z" />
    <glyph glyph-name="Atilde" unicode="&#xc3;" horiz-adv-x="1404" 
d="M0 0l631 1450h143l631 -1450h-172l-160 381h-741l-160 -381h-172zM702 1278l-315 -762h629zM459 1538h-88q35 213 188 213q52 0 149.5 -47t137.5 -47q74 0 100 102h88q-17 -103 -65 -158t-123 -55q-49 0 -147 47t-140 47q-75 0 -100 -102z" />
    <glyph glyph-name="AE" unicode="&#xc6;" horiz-adv-x="1933" 
d="M174 0h-174l944 1450h852v-135h-602v-494h565v-135h-565v-551h627v-135h-774v406h-611zM1024 1315l-502 -774h525v774h-23z" />
    <glyph glyph-name="Ccedilla" unicode="&#xc7;" horiz-adv-x="1441" 
d="M854 1487q152 0 283 -60t219 -170l-129 -96q-50 80 -160.5 135.5t-212.5 55.5q-178 0 -315 -85.5t-209 -231t-72 -326.5q0 -165 74.5 -304t212.5 -223t309 -84q272 0 416 217l121 -86q-79 -123 -224 -194.5t-313 -71.5q-31 0 -43 2l-68 -88l5 -2q46 14 73 14
q68 0 113 -43t45 -110q0 -80 -68 -130t-168 -50q-108 0 -196 49l31 73q65 -36 149 -36q57 0 93 24.5t36 67.5q0 34 -26.5 58t-73.5 24q-48 0 -92 -23l-39 35l104 145q-289 47 -460 257t-171 507q0 159 59 299t160.5 238.5t241 155.5t295.5 57z" />
    <glyph glyph-name="Eth" unicode="&#xd0;" horiz-adv-x="1517" 
d="M27 821h149v629h479q154 0 293 -51.5t243.5 -144t166 -230t61.5 -299.5t-61.5 -299.5t-166 -229.5t-243.5 -144t-293 -52h-479v711h-149v110zM324 135h297q284 0 461.5 167t177.5 423q0 259 -178 424.5t-461 165.5h-297v-494h528v-110h-528v-576z" />
    <glyph glyph-name="Eacute" unicode="&#xc9;" horiz-adv-x="1214" 
d="M1120 0h-923v1450h899v-135h-752v-494h703v-135h-703v-551h776v-135zM483 1513l205 295h186l-270 -295h-121z" />
    <glyph glyph-name="Ecircumflex" unicode="&#xca;" horiz-adv-x="1214" 
d="M197 0v1450h899v-135h-752v-494h703v-135h-703v-551h776v-135h-923zM303 1513l223 295h164l223 -295h-135l-170 222l-170 -222h-135z" />
    <glyph glyph-name="Edieresis" unicode="&#xcb;" horiz-adv-x="1214" 
d="M1120 0h-923v1450h899v-135h-752v-494h703v-135h-703v-551h776v-135zM700 1683q0 44 29.5 74.5t75.5 30.5q44 0 74 -31t30 -74t-30 -73.5t-74 -30.5t-74.5 30.5t-30.5 73.5zM307 1683q0 44 29.5 74.5t75.5 30.5q44 0 74 -31t30 -74t-30 -73.5t-74 -30.5t-74.5 30.5
t-30.5 73.5z" />
    <glyph glyph-name="Egrave" unicode="&#xc8;" horiz-adv-x="1214" 
d="M197 0v1450h899v-135h-752v-494h703v-135h-703v-551h776v-135h-923zM342 1808h186l205 -295h-119z" />
    <glyph glyph-name="Iacute" unicode="&#xcd;" horiz-adv-x="540" 
d="M537 1808l-271 -295h-121l205 295h187zM344 1450v-1450h-147v1450h147z" />
    <glyph glyph-name="Icircumflex" unicode="&#xce;" horiz-adv-x="540" 
d="M197 0v1450h147v-1450h-147zM100 1513h-135l223 295h164l223 -295h-135l-170 222z" />
    <glyph glyph-name="Idieresis" unicode="&#xcf;" horiz-adv-x="540" 
d="M74 1788q44 0 74 -31t30 -74t-30 -73.5t-74 -30.5t-74.5 30.5t-30.5 73.5q0 44 29.5 74.5t75.5 30.5zM467 1788q44 0 74 -31t30 -74t-30 -73.5t-74 -30.5t-74.5 30.5t-30.5 73.5q0 44 29.5 74.5t75.5 30.5zM344 1450v-1450h-147v1450h147z" />
    <glyph glyph-name="Igrave" unicode="&#xcc;" horiz-adv-x="540" 
d="M190 1808l205 -295h-119l-272 295h186zM344 1450v-1450h-147v1450h147z" />
    <glyph glyph-name="Lslash" unicode="&#x141;" horiz-adv-x="1024" 
d="M29 471l168 143v836h147v-709l442 381v-143l-442 -381v-463h676v-135h-823v471l-168 -143v143z" />
    <glyph glyph-name="Ntilde" unicode="&#xd1;" horiz-adv-x="1593" 
d="M197 0v1450h184l864 -1229h4v1229h148v-1450h-185l-864 1241h-4v-1241h-147zM465 1538q35 213 188 213q52 0 149.5 -47t137.5 -47q74 0 100 102h88q-17 -103 -65 -158t-123 -55q-49 0 -147 47t-140 47q-75 0 -100 -102h-88z" />
    <glyph glyph-name="Oacute" unicode="&#xd3;" horiz-adv-x="1708" 
d="M1120 1808l-270 -295h-121l205 295h186zM854 1487q214 0 387.5 -100t271 -274t97.5 -388q0 -160 -58 -301.5t-158 -242.5t-240.5 -159.5t-299.5 -58.5t-299.5 58.5t-240.5 160t-158 242.5t-58 301t57.5 301t157.5 242.5t240.5 160t300.5 58.5zM258 725q0 -176 75.5 -319
t212 -225.5t308.5 -82.5q175 0 312 84t210.5 226.5t73.5 316.5q0 173 -75 316t-212.5 227t-310.5 84q-170 0 -306.5 -82.5t-212 -226t-75.5 -318.5z" />
    <glyph glyph-name="Ocircumflex" unicode="&#xd4;" horiz-adv-x="1708" 
d="M98 725q0 160 57.5 301t157.5 242.5t240.5 160t300.5 58.5q214 0 387.5 -100t271 -274t97.5 -388q0 -160 -58 -301.5t-158 -242.5t-240.5 -159.5t-299.5 -58.5t-299.5 58.5t-240.5 160t-158 242.5t-58 301zM258 725q0 -176 75.5 -319t212 -225.5t308.5 -82.5
q175 0 312 84t210.5 226.5t73.5 316.5q0 173 -75 316t-212.5 227t-310.5 84q-170 0 -306.5 -82.5t-212 -226t-75.5 -318.5zM549 1513l223 295h164l223 -295h-135l-170 222l-170 -222h-135z" />
    <glyph glyph-name="Odieresis" unicode="&#xd6;" horiz-adv-x="1708" 
d="M657 1788q44 0 74.5 -31t30.5 -74t-30.5 -73.5t-74.5 -30.5t-74 30.5t-30 73.5q0 44 29 74.5t75 30.5zM1051 1788q44 0 74 -31t30 -74t-30 -73.5t-74 -30.5t-74.5 30.5t-30.5 73.5q0 44 29.5 74.5t75.5 30.5zM854 1487q214 0 387.5 -100t271 -274t97.5 -388
q0 -160 -58 -301.5t-158 -242.5t-240.5 -159.5t-299.5 -58.5t-299.5 58.5t-240.5 160t-158 242.5t-58 301t57.5 301t157.5 242.5t240.5 160t300.5 58.5zM258 725q0 -176 75.5 -319t212 -225.5t308.5 -82.5q175 0 312 84t210.5 226.5t73.5 316.5q0 173 -75 316t-212.5 227
t-310.5 84q-170 0 -306.5 -82.5t-212 -226t-75.5 -318.5z" />
    <glyph glyph-name="Ograve" unicode="&#xd2;" horiz-adv-x="1708" 
d="M774 1808l205 -295h-119l-272 295h186zM854 1487q214 0 387.5 -100t271 -274t97.5 -388q0 -160 -58 -301.5t-158 -242.5t-240.5 -159.5t-299.5 -58.5t-299.5 58.5t-240.5 160t-158 242.5t-58 301t57.5 301t157.5 242.5t240.5 160t300.5 58.5zM258 725q0 -176 75.5 -319
t212 -225.5t308.5 -82.5q175 0 312 84t210.5 226.5t73.5 316.5q0 173 -75 316t-212.5 227t-310.5 84q-170 0 -306.5 -82.5t-212 -226t-75.5 -318.5z" />
    <glyph glyph-name="Oslash" unicode="&#xd8;" horiz-adv-x="1708" 
d="M854 1487q275 0 483 -166l156 166l76 -70l-156 -168q197 -210 197 -524q0 -213 -97 -387t-270.5 -274.5t-388.5 -100.5q-277 0 -483 166l-156 -166l-76 70l156 168q-197 210 -197 524q0 213 97 387t270.5 274.5t388.5 100.5zM258 725q0 -239 139 -414l842 903
q-154 138 -387 138q-170 0 -306.5 -82.5t-212 -226t-75.5 -318.5zM469 236q157 -138 385 -138q129 0 241 49t189.5 133.5t121.5 200t44 244.5q0 239 -139 414z" />
    <glyph glyph-name="Otilde" unicode="&#xd5;" horiz-adv-x="1708" 
d="M1098 1759h88q-17 -103 -65.5 -158t-123.5 -55q-49 0 -146.5 47t-139.5 47q-75 0 -101 -102h-88q35 213 189 213q52 0 149 -47t137 -47q75 0 101 102zM854 1487q214 0 387.5 -100t271 -274t97.5 -388q0 -160 -58 -301.5t-158 -242.5t-240.5 -159.5t-299.5 -58.5
t-299.5 58.5t-240.5 160t-158 242.5t-58 301t57.5 301t157.5 242.5t240.5 160t300.5 58.5zM258 725q0 -176 75.5 -319t212 -225.5t308.5 -82.5q175 0 312 84t210.5 226.5t73.5 316.5q0 173 -75 316t-212.5 227t-310.5 84q-170 0 -306.5 -82.5t-212 -226t-75.5 -318.5z" />
    <glyph glyph-name="OE" unicode="&#x152;" horiz-adv-x="1933" 
d="M129 727q0 217 108 383.5t288 253t401 86.5h889v-135h-603v-494h578v-135h-578v-551h627v-135h-928q-176 0 -324.5 58t-247.5 157t-154.5 231t-55.5 281zM289 723q0 -119 41 -224.5t117.5 -187t196.5 -129t269 -47.5h152v1180h-133q-184 0 -329 -69.5t-229.5 -205.5
t-84.5 -317z" />
    <glyph glyph-name="Thorn" unicode="&#xde;" horiz-adv-x="1175" 
d="M197 0v1450h147v-320h336q186 0 301 -102.5t115 -284.5q0 -183 -115 -286t-305 -103h-332v-354h-147zM344 489h248q185 0 264.5 61.5t79.5 192.5q0 130 -81.5 191t-262.5 61h-248v-506z" />
    <glyph glyph-name="Scaron" unicode="&#x160;" horiz-adv-x="1138" 
d="M102 178l134 96q48 -83 132 -129.5t195 -46.5q127 0 220.5 75t93.5 189q0 107 -66.5 171.5t-232.5 115.5q-50 16 -81 26t-74.5 26.5t-70.5 30.5t-61 34.5t-54.5 41.5t-42.5 49.5t-34 60t-19.5 71.5t-7.5 86q0 125 63 219.5t168.5 143.5t237.5 49q137 0 236 -44t174 -132
l-129 -101q-98 142 -281 142q-134 0 -221.5 -71.5t-87.5 -190.5q0 -98 64.5 -162t201.5 -107q56 -18 88 -28.5t80.5 -28.5t75.5 -32t64.5 -35.5t58.5 -42.5t45 -50t36 -61t20.5 -72t8.5 -86q1 -118 -65 -215.5t-176 -152t-238 -54.5q-141 0 -259.5 55t-195.5 160zM264 1808
h135l170 -221l170 221h135l-223 -295h-164z" />
    <glyph glyph-name="Germandbls" unicode="&#x1e9e;" horiz-adv-x="1339" 
d="M1104 1337q-178 0 -282.5 -68.5t-104.5 -195.5q0 -30 8 -57.5t17 -48t32.5 -45t36 -37t48.5 -37t48.5 -32t55.5 -34.5q149 -92 221.5 -192.5t72.5 -237.5q0 -170 -114 -279.5t-291 -109.5q-266 0 -401 191l127 92q43 -74 117.5 -111t158.5 -37q112 0 176.5 68t67.5 184
q2 70 -24 124t-72 93.5t-128 89.5q-63 38 -106 68.5t-86 70t-68.5 78.5t-41 88.5t-15.5 106.5q0 53 16 99.5t36 74.5t53 54.5t50.5 36.5t45.5 24h-39q-209 0 -302 -71.5t-93 -248.5v-1038h-148v1038q0 239 126 344t400 105q165 0 402 -19v-131z" />
    <glyph glyph-name="Uacute" unicode="&#xda;" horiz-adv-x="1404" 
d="M172 532v918h147v-903q0 -213 102 -331t281 -118t281 118t102 331v903h148v-918q0 -169 -58.5 -296t-179.5 -200t-293 -73q-256 0 -393 154t-137 415zM578 1513l204 295h187l-271 -295h-120z" />
    <glyph glyph-name="Ucircumflex" unicode="&#xdb;" horiz-adv-x="1404" 
d="M172 532v918h147v-903q0 -213 102 -331t281 -118t281 118t102 331v903h148v-918q0 -169 -58.5 -296t-179.5 -200t-293 -73q-256 0 -393 154t-137 415zM532 1513h-135l224 295h163l224 -295h-136l-170 222z" />
    <glyph glyph-name="Udieresis" unicode="&#xdc;" horiz-adv-x="1404" 
d="M172 532v918h147v-903q0 -213 102 -331t281 -118t281 118t102 331v903h148v-918q0 -169 -58.5 -296t-179.5 -200t-293 -73q-256 0 -393 154t-137 415zM795 1683q0 44 29 74.5t75 30.5q44 0 74.5 -31t30.5 -74t-30.5 -73.5t-74.5 -30.5t-74 30.5t-30 73.5zM401 1683
q0 44 29.5 74.5t75.5 30.5q44 0 74 -31t30 -74t-30 -73.5t-74 -30.5t-74.5 30.5t-30.5 73.5z" />
    <glyph glyph-name="Ugrave" unicode="&#xd9;" horiz-adv-x="1404" 
d="M172 532v918h147v-903q0 -213 102 -331t281 -118t281 118t102 331v903h148v-918q0 -169 -58.5 -296t-179.5 -200t-293 -73q-256 0 -393 154t-137 415zM436 1808h187l204 -295h-118z" />
    <glyph glyph-name="Yacute" unicode="&#xdd;" horiz-adv-x="1175" 
d="M514 625l-543 825h185l432 -684l432 684h184l-542 -825v-625h-148v625zM463 1513l205 295h186l-270 -295h-121z" />
    <glyph glyph-name="Ydieresis" unicode="&#x178;" horiz-adv-x="1175" 
d="M514 625l-543 825h185l432 -684l432 684h184l-542 -825v-625h-148v625zM784 1579q-44 0 -74 30.5t-30 73.5q0 44 29 74.5t75 30.5q44 0 74.5 -31t30.5 -74t-30.5 -73.5t-74.5 -30.5zM287 1683q0 44 29 74.5t75 30.5q44 0 74.5 -31t30.5 -74t-30.5 -73.5t-74.5 -30.5
t-74 30.5t-30 73.5z" />
    <glyph glyph-name="Zcaron" unicode="&#x17d;" horiz-adv-x="1138" 
d="M1092 0h-1045v123l848 1192h-836v135h1020v-123l-846 -1192h859v-135zM487 1513l-223 295h135l170 -221l170 221h135l-223 -295h-164z" />
    <glyph glyph-name="aacute" unicode="&#xe1;" horiz-adv-x="1062" 
d="M428 -25q-144 0 -237 77.5t-93 203.5q0 169 141.5 250.5t460.5 81.5h62v20q0 130 -60.5 191t-185.5 61q-169 0 -293 -112l-82 96q136 139 404 139q163 0 257.5 -91.5t94.5 -242.5v-444q0 -87 16 -205h-131q-12 64 -12 156h-4q-60 -94 -141.5 -137.5t-196.5 -43.5z
M668 477q-197 0 -309.5 -51.5t-112.5 -151.5q0 -81 62 -128.5t163 -47.5q135 0 213 83.5t78 244.5v51h-94zM528 1155h-120l204 295h187z" />
    <glyph glyph-name="acircumflex" unicode="&#xe2;" horiz-adv-x="1062" 
d="M98 256q0 169 141.5 250.5t460.5 81.5h62v20q0 130 -60.5 191t-185.5 61q-169 0 -293 -112l-82 96q136 139 404 139q163 0 257.5 -91.5t94.5 -242.5v-444q0 -87 16 -205h-131q-12 64 -12 156h-4q-60 -94 -141.5 -137.5t-196.5 -43.5q-144 0 -237 77.5t-93 203.5zM246 274
q0 -81 62 -128.5t163 -47.5q135 0 213 83.5t78 244.5v51h-94q-197 0 -309.5 -51.5t-112.5 -151.5zM227 1155l224 295h163l224 -295h-136l-170 221l-167 -221h-138z" />
    <glyph glyph-name="adieresis" unicode="&#xe4;" horiz-adv-x="1062" 
d="M98 256q0 169 141.5 250.5t460.5 81.5h62v20q0 130 -60.5 191t-185.5 61q-169 0 -293 -112l-82 96q136 139 404 139q163 0 257.5 -91.5t94.5 -242.5v-444q0 -87 16 -205h-131q-12 64 -12 156h-4q-60 -94 -141.5 -137.5t-196.5 -43.5q-144 0 -237 77.5t-93 203.5zM246 274
q0 -81 62 -128.5t163 -47.5q135 0 213 83.5t78 244.5v51h-94q-197 0 -309.5 -51.5t-112.5 -151.5zM625 1325q0 43 30.5 74t73.5 31t74 -31t31 -74t-31 -73.5t-74 -30.5t-73.5 30.5t-30.5 73.5zM231 1325q0 43 31 74t74 31t73.5 -31t30.5 -74t-30.5 -73.5t-73.5 -30.5
t-74 30.5t-31 73.5z" />
    <glyph glyph-name="agrave" unicode="&#xe0;" horiz-adv-x="1062" 
d="M428 -25q-144 0 -237 77.5t-93 203.5q0 169 141.5 250.5t460.5 81.5h62v20q0 130 -60.5 191t-185.5 61q-169 0 -293 -112l-82 96q136 139 404 139q163 0 257.5 -91.5t94.5 -242.5v-444q0 -87 16 -205h-131q-12 64 -12 156h-4q-60 -94 -141.5 -137.5t-196.5 -43.5z
M668 477q-197 0 -309.5 -51.5t-112.5 -151.5q0 -81 62 -128.5t163 -47.5q135 0 213 83.5t78 244.5v51h-94zM537 1155l-271 295h187l204 -295h-120z" />
    <glyph glyph-name="aring" unicode="&#xe5;" horiz-adv-x="1062" 
d="M98 256q0 169 141.5 250.5t460.5 81.5h62v20q0 130 -60.5 191t-185.5 61q-169 0 -293 -112l-82 96q136 139 404 139q163 0 257.5 -91.5t94.5 -242.5v-444q0 -87 16 -205h-131q-12 64 -12 156h-4q-60 -94 -141.5 -137.5t-196.5 -43.5q-144 0 -237 77.5t-93 203.5zM246 274
q0 -81 62 -128.5t163 -47.5q135 0 213 83.5t78 244.5v51h-94q-197 0 -309.5 -51.5t-112.5 -151.5zM336 1331q0 79 58 137t138 58t138.5 -58t58.5 -137q0 -81 -58.5 -137.5t-138.5 -56.5t-138 56.5t-58 137.5zM410 1331q0 -51 36 -86t86 -35q51 0 87 35.5t36 85.5t-36 85.5
t-87 35.5q-50 0 -86 -35t-36 -86z" />
    <glyph glyph-name="atilde" unicode="&#xe3;" horiz-adv-x="1062" 
d="M428 -25q-144 0 -237 77.5t-93 203.5q0 169 141.5 250.5t460.5 81.5h62v20q0 130 -60.5 191t-185.5 61q-169 0 -293 -112l-82 96q136 139 404 139q163 0 257.5 -91.5t94.5 -242.5v-444q0 -87 16 -205h-131q-12 64 -12 156h-4q-60 -94 -141.5 -137.5t-196.5 -43.5z
M668 477q-197 0 -309.5 -51.5t-112.5 -151.5q0 -81 62 -128.5t163 -47.5q135 0 213 83.5t78 244.5v51h-94zM201 1180q38 213 188 213q49 0 149.5 -47.5t137.5 -47.5q75 0 100 103h88q-37 -213 -188 -213q-46 0 -147 47t-140 47q-37 0 -63.5 -26.5t-36.5 -75.5h-88z" />
    <glyph glyph-name="ae" unicode="&#xe6;" horiz-adv-x="1744" 
d="M430 -25q-147 0 -239.5 77t-92.5 204q0 150 114 223.5t351 73.5h230v51q0 120 -74 188t-174 68q-168 0 -289 -115l-84 99q145 139 381 139q106 0 194 -51t123 -133q46 84 141.5 134t198.5 50q199 0 318 -128t119 -361v-52h-719v-12q0 -147 78.5 -239.5t201.5 -92.5
q98 0 169 36t130 120l107 -84q-76 -97 -181 -146t-221 -49q-118 0 -214.5 59.5t-143.5 164.5q-68 -115 -167.5 -169.5t-256.5 -54.5zM246 274q0 -81 62 -128.5t163 -47.5q143 0 232.5 91t89.5 239v14h-279q-121 0 -194.5 -45t-73.5 -123zM928 553h583q0 138 -82 222.5
t-212 84.5q-120 0 -204.5 -87.5t-84.5 -219.5z" />
    <glyph glyph-name="ccedilla" unicode="&#xe7;" horiz-adv-x="987" 
d="M598 983q101 0 194 -41.5t164 -124.5l-110 -84q-41 60 -105 93.5t-139 33.5q-161 0 -258.5 -106t-97.5 -275q0 -167 97 -274t255 -107q163 0 248 127l110 -84q-58 -73 -154 -119.5t-192 -46.5q-14 0 -18 2l-76 -100l4 -2q44 14 74 14q68 0 113 -43t45 -110
q0 -80 -68 -130t-168 -50q-111 0 -199 49l33 73q68 -36 152 -36q56 0 91.5 24.5t35.5 67.5q0 34 -27.5 58t-73.5 24q-43 0 -94 -23l-37 35l115 156q-191 27 -302.5 163.5t-111.5 331.5q0 221 138.5 362.5t361.5 141.5z" />
    <glyph glyph-name="eth" unicode="&#xf0;" horiz-adv-x="1214" 
d="M442 1595q128 -101 199 -170l209 109l82 -72l-211 -110q206 -206 300.5 -403.5t94.5 -418.5q0 -257 -133.5 -406t-376.5 -149q-221 0 -364.5 143.5t-143.5 360.5q0 218 144 361t364 143q87 0 159.5 -28t147.5 -91l5 2q-71 134 -147.5 232.5t-178.5 187.5l-225 -117
l-74 74l221 115q-98 95 -195 162zM246 479q0 -167 101.5 -274t258.5 -107q159 0 261 108t102 273t-101 273t-264 108q-157 0 -257.5 -107t-100.5 -274z" />
    <glyph glyph-name="eacute" unicode="&#xe9;" horiz-adv-x="1138" 
d="M836 1450l-271 -295h-121l205 295h187zM580 983q202 0 331 -132t129 -368v-41h-798q15 -150 115 -247t237 -97q93 0 175.5 44t131.5 122l105 -86q-163 -203 -412 -203q-215 0 -355.5 144.5t-140.5 359.5q0 214 140 359t342 145zM893 553q0 139 -85 223t-226 84
q-126 0 -229.5 -91t-106.5 -216h647z" />
    <glyph glyph-name="ecircumflex" unicode="&#xea;" horiz-adv-x="1138" 
d="M98 479q0 214 140 359t342 145t331 -132t129 -368v-41h-798q15 -150 115 -247t237 -97q93 0 175.5 44t131.5 122l105 -86q-163 -203 -412 -203q-215 0 -355.5 144.5t-140.5 359.5zM582 860q-126 0 -229.5 -91t-106.5 -216h647q0 139 -85 223t-226 84zM264 1155l223 295
h164l223 -295h-135l-170 221l-168 -221h-137z" />
    <glyph glyph-name="edieresis" unicode="&#xeb;" horiz-adv-x="1138" 
d="M373 1430q43 0 73.5 -31t30.5 -74t-30.5 -73.5t-73.5 -30.5t-74 30.5t-31 73.5t31 74t74 31zM766 1430q43 0 73.5 -31t30.5 -74t-30.5 -73.5t-73.5 -30.5t-73.5 30.5t-30.5 73.5t30.5 74t73.5 31zM580 983q202 0 331 -132t129 -368v-41h-798q15 -150 115 -247t237 -97
q93 0 175.5 44t131.5 122l105 -86q-163 -203 -412 -203q-215 0 -355.5 144.5t-140.5 359.5q0 214 140 359t342 145zM893 553q0 139 -85 223t-226 84q-126 0 -229.5 -91t-106.5 -216h647z" />
    <glyph glyph-name="egrave" unicode="&#xe8;" horiz-adv-x="1138" 
d="M489 1450l205 -295h-121l-270 295h186zM580 983q202 0 331 -132t129 -368v-41h-798q15 -150 115 -247t237 -97q93 0 175.5 44t131.5 122l105 -86q-163 -203 -412 -203q-215 0 -355.5 144.5t-140.5 359.5q0 214 140 359t342 145zM893 553q0 139 -85 223t-226 84
q-126 0 -229.5 -91t-106.5 -216h647z" />
    <glyph glyph-name="dotlessi" unicode="&#x131;" horiz-adv-x="491" 
d="M313 958v-958h-135v958h135z" />
    <glyph glyph-name="iacute" unicode="&#xed;" horiz-adv-x="491" 
d="M512 1450l-270 -295h-121l205 295h186zM313 958v-958h-135v958h135z" />
    <glyph glyph-name="icircumflex" unicode="&#xee;" horiz-adv-x="491" 
d="M328 1450l223 -295h-135l-170 221l-168 -221h-137l223 295h164zM313 958v-958h-135v958h135z" />
    <glyph glyph-name="idieresis" unicode="&#xef;" horiz-adv-x="491" 
d="M49 1430q43 0 74 -31t31 -74t-31 -73.5t-74 -30.5t-73.5 30.5t-30.5 73.5t30.5 74t73.5 31zM442 1430q43 0 74 -31t31 -74t-31 -73.5t-74 -30.5t-73.5 30.5t-30.5 73.5t30.5 74t73.5 31zM313 958v-958h-135v958h135z" />
    <glyph glyph-name="igrave" unicode="&#xec;" horiz-adv-x="491" 
d="M166 1450l205 -295h-121l-270 295h186zM313 958v-958h-135v958h135z" />
    <glyph glyph-name="lslash" unicode="&#x142;" horiz-adv-x="491" 
d="M178 649l-166 -170v150l166 168v751h135v-610l166 172v-149l-166 -170v-791h-135v649z" />
    <glyph glyph-name="ntilde" unicode="&#xf1;" horiz-adv-x="1138" 
d="M137 958h139q7 -60 7 -153h4q44 78 134 128t187 50q177 0 269 -96t92 -271v-616h-135v541q0 163 -60.5 241t-191.5 78q-53 0 -103 -20t-95.5 -61.5t-73 -118t-27.5 -177.5v-483h-136v756zM326 1180h-88q38 213 188 213q49 0 149.5 -47.5t137.5 -47.5q75 0 100 103h88
q-37 -213 -188 -213q-46 0 -147 47t-140 47q-37 0 -63.5 -26.5t-36.5 -75.5z" />
    <glyph glyph-name="oacute" unicode="&#xf3;" horiz-adv-x="1214" 
d="M874 1450l-270 -295h-121l205 295h186zM606 983q217 0 363.5 -141t146.5 -363q0 -218 -144 -361t-366 -143q-220 0 -364 143t-144 361t144.5 361t363.5 143zM246 479q0 -167 101.5 -274t258.5 -107q161 0 262 107.5t101 273.5q0 165 -101 273t-264 108
q-157 0 -257.5 -107t-100.5 -274z" />
    <glyph glyph-name="ocircumflex" unicode="&#xf4;" horiz-adv-x="1214" 
d="M98 479q0 218 144.5 361t363.5 143q217 0 363.5 -141t146.5 -363q0 -218 -144 -361t-366 -143q-220 0 -364 143t-144 361zM246 479q0 -167 101.5 -274t258.5 -107q161 0 262 107.5t101 273.5q0 165 -101 273t-264 108q-157 0 -257.5 -107t-100.5 -274zM303 1155l223 295
h164l223 -295h-135l-170 221l-168 -221h-137z" />
    <glyph glyph-name="odieresis" unicode="&#xf6;" horiz-adv-x="1214" 
d="M412 1430q43 0 73.5 -31t30.5 -74t-30.5 -73.5t-73.5 -30.5t-74 30.5t-31 73.5t31 74t74 31zM805 1430q43 0 73.5 -31t30.5 -74t-30.5 -73.5t-73.5 -30.5t-74 30.5t-31 73.5t31 74t74 31zM606 983q217 0 363.5 -141t146.5 -363q0 -218 -144 -361t-366 -143
q-220 0 -364 143t-144 361t144.5 361t363.5 143zM246 479q0 -167 101.5 -274t258.5 -107q161 0 262 107.5t101 273.5q0 165 -101 273t-264 108q-157 0 -257.5 -107t-100.5 -274z" />
    <glyph glyph-name="ograve" unicode="&#xf2;" horiz-adv-x="1214" 
d="M528 1450l205 -295h-121l-270 295h186zM606 983q217 0 363.5 -141t146.5 -363q0 -218 -144 -361t-366 -143q-220 0 -364 143t-144 361t144.5 361t363.5 143zM246 479q0 -167 101.5 -274t258.5 -107q161 0 262 107.5t101 273.5q0 165 -101 273t-264 108
q-157 0 -257.5 -107t-100.5 -274z" />
    <glyph glyph-name="oslash" unicode="&#xf8;" horiz-adv-x="1214" 
d="M1067 1016l66 -64l-136 -139q119 -135 119 -334q0 -215 -146 -359.5t-364 -144.5q-188 0 -321 107l-138 -139l-65 63l135 139q-119 138 -119 334q0 143 66.5 258.5t182.5 180.5t259 65q189 0 326 -106zM246 479q0 -141 69 -233l523 534q-96 80 -234 80
q-157 0 -257.5 -107t-100.5 -274zM377 176q94 -78 229 -78q159 0 261 108t102 273q0 136 -70 234z" />
    <glyph glyph-name="otilde" unicode="&#xf5;" horiz-adv-x="1214" 
d="M852 1401h88q-37 -213 -188 -213q-46 0 -147 47t-140 47q-37 0 -63.5 -26.5t-36.5 -75.5h-89q38 213 189 213q49 0 149.5 -47.5t137.5 -47.5q75 0 100 103zM606 983q217 0 363.5 -141t146.5 -363q0 -218 -144 -361t-366 -143q-220 0 -364 143t-144 361t144.5 361
t363.5 143zM246 479q0 -167 101.5 -274t258.5 -107q161 0 262 107.5t101 273.5q0 165 -101 273t-264 108q-157 0 -257.5 -107t-100.5 -274z" />
    <glyph glyph-name="oe" unicode="&#x153;" horiz-adv-x="1888" 
d="M584 983q134 0 239.5 -56t165.5 -159q77 115 163.5 165t201.5 50q199 0 317.5 -128t118.5 -372v-41h-719v-12q0 -147 79.5 -239.5t203.5 -92.5q95 0 165 36t132 120l106 -84q-73 -93 -178 -144t-223 -51q-127 0 -224.5 57.5t-148.5 160.5q-68 -101 -177.5 -159.5
t-221.5 -58.5q-213 0 -349.5 140.5t-136.5 363.5q0 139 62.5 254.5t174.5 182.5t249 67zM246 479q0 -162 96 -271.5t242 -109.5q153 0 246.5 107t93.5 274q0 165 -93.5 273t-248.5 108q-144 0 -240 -109.5t-96 -271.5zM1655 553q0 136 -81 221.5t-214 85.5
q-121 0 -203.5 -87t-85.5 -220h584z" />
    <glyph glyph-name="thorn" unicode="&#xfe;" horiz-adv-x="1251" 
d="M283 -467h-136v2015h136v-768h4q69 96 164 149.5t208 53.5q221 0 365.5 -143.5t144.5 -360.5t-144.5 -360.5t-365.5 -143.5q-110 0 -211.5 50t-160.5 135h-4v-627zM659 98q160 0 261.5 107t101.5 274q0 166 -102 273.5t-263 107.5t-271 -110.5t-110 -270.5
q0 -166 107.5 -273.5t275.5 -107.5z" />
    <glyph glyph-name="scaron" unicode="&#x161;" horiz-adv-x="872" 
d="M436 -25q-243 0 -368 187l116 80q93 -144 252 -144q99 0 162 43t64 117q2 65 -54 103.5t-205 68.5q-154 30 -227.5 96t-73.5 168q0 130 98 209.5t257 79.5q113 0 195.5 -44t123.5 -128l-121 -80q-66 129 -206 129q-88 0 -143.5 -39t-55.5 -104q0 -62 47 -97.5t174 -62.5
q91 -20 141.5 -36.5t85.5 -41.5q111 -81 111 -209q0 -135 -102 -215t-271 -80zM354 1155l-223 295h135l170 -221l170 221h135l-223 -295h-164z" />
    <glyph glyph-name="germandbls" unicode="&#xdf;" horiz-adv-x="1214" 
d="M602 1573q174 0 283.5 -101.5t109.5 -261.5q0 -242 -237 -325v-4q163 -12 256.5 -129.5t93.5 -294.5q0 -212 -132 -347t-351 -135q-55 0 -121 17v117q43 -11 98 -11q165 0 262 96t97 265q0 358 -412 358v123q146 0 222.5 66t76.5 186q0 115 -70.5 186.5t-181.5 71.5
q-134 0 -211.5 -90.5t-77.5 -226.5v-1133h-135v1122q0 214 109.5 332.5t320.5 118.5z" />
    <glyph glyph-name="uacute" unicode="&#xfa;" horiz-adv-x="1138" 
d="M147 342v616h136v-540q0 -166 61.5 -243t196.5 -77q121 0 207 97.5t86 263.5v499h135v-755q0 -14 4.5 -101t5.5 -102h-139q-6 40 -6 78v76h-5q-47 -79 -137 -129t-184 -50q-181 0 -271 97.5t-90 269.5zM565 1155h-121l205 295h187z" />
    <glyph glyph-name="ucircumflex" unicode="&#xfb;" horiz-adv-x="1138" 
d="M147 342v616h136v-540q0 -166 61.5 -243t196.5 -77q121 0 207 97.5t86 263.5v499h135v-755q0 -14 4.5 -101t5.5 -102h-139q-6 40 -6 78v76h-5q-47 -79 -137 -129t-184 -50q-181 0 -271 97.5t-90 269.5zM401 1155h-137l223 295h164l223 -295h-135l-170 221z" />
    <glyph glyph-name="udieresis" unicode="&#xfc;" horiz-adv-x="1138" 
d="M147 342v616h136v-540q0 -166 61.5 -243t196.5 -77q121 0 207 97.5t86 263.5v499h135v-755q0 -14 4.5 -101t5.5 -102h-139q-6 40 -6 78v76h-5q-47 -79 -137 -129t-184 -50q-181 0 -271 97.5t-90 269.5zM766 1221q-43 0 -73.5 30.5t-30.5 73.5t30.5 74t73.5 31t73.5 -31
t30.5 -74t-30.5 -73.5t-73.5 -30.5zM373 1221q-43 0 -74 30.5t-31 73.5t31 74t74 31t73.5 -31t30.5 -74t-30.5 -73.5t-73.5 -30.5z" />
    <glyph glyph-name="ugrave" unicode="&#xf9;" horiz-adv-x="1138" 
d="M147 342v616h136v-540q0 -166 61.5 -243t196.5 -77q121 0 207 97.5t86 263.5v499h135v-755q0 -14 4.5 -101t5.5 -102h-139q-6 40 -6 78v76h-5q-47 -79 -137 -129t-184 -50q-181 0 -271 97.5t-90 269.5zM303 1450h186l205 -295h-121z" />
    <glyph glyph-name="yacute" unicode="&#xfd;" horiz-adv-x="987" 
d="M426 -12l-393 970h170l301 -792l293 792h164l-467 -1179q-62 -159 -134.5 -215t-181.5 -56q-62 0 -123 15l15 131q47 -23 102 -23q118 0 174 148zM489 1155h-120l204 295h187z" />
    <glyph glyph-name="ydieresis" unicode="&#xff;" horiz-adv-x="987" 
d="M33 958h170l301 -792l293 792h164l-467 -1179q-62 -159 -134.5 -215t-181.5 -56q-62 0 -123 15l15 131q47 -23 102 -23q118 0 174 148l80 209zM586 1325q0 43 30.5 74t73.5 31t74 -31t31 -74t-31 -73.5t-74 -30.5t-73.5 30.5t-30.5 73.5zM193 1325q0 43 30.5 74t73.5 31
t73.5 -31t30.5 -74t-30.5 -73.5t-73.5 -30.5t-73.5 30.5t-30.5 73.5z" />
    <glyph glyph-name="zcaron" unicode="&#x17e;" horiz-adv-x="872" 
d="M825 0h-778v98l561 738h-532v122h729v-98l-561 -737h581v-123zM354 1155l-223 295h135l170 -221l170 221h135l-223 -295h-164z" />
    <glyph glyph-name="fi" unicode="&#xfb01;" horiz-adv-x="1099" 
d="M231 836h-202v122h202v273q0 164 81.5 253t240.5 89q57 0 117 -14l-25 -123q-55 14 -104 14q-90 0 -132 -55t-42 -183v-254h227v-122h-227v-836h-136v836zM786 0v958h136v-958h-136zM756 1327q0 40 30 69t68 29t68 -30t30 -68q0 -41 -29.5 -69.5t-68.5 -28.5
q-38 0 -68 29t-30 69z" />
    <glyph glyph-name="fl" unicode="&#xfb02;" horiz-adv-x="1099" 
d="M231 836h-202v122h202v273q0 164 81.5 253t240.5 89q57 0 117 -14l-25 -123q-55 14 -104 14q-90 0 -132 -55t-42 -183v-254h227v-122h-227v-836h-136v836zM786 8v1548h136v-1548h-136z" />
    <glyph glyph-name="ordfeminine" unicode="&#xaa;" horiz-adv-x="690" 
d="M332 1475q120 0 189 -53.5t69 -137.5v-311q0 -7 10 -92h-111l-6 75q-63 -88 -204 -88q-95 0 -155.5 46.5t-60.5 123.5q0 108 89 156.5t282 48.5h33v14q0 119 -131 119q-106 0 -182 -61l-66 76q89 84 244 84zM186 1044q0 -36 34 -56.5t87 -20.5q160 0 160 178h-59
q-98 0 -160 -25t-62 -76z" />
    <glyph glyph-name="ordmasculine" unicode="&#xba;" horiz-adv-x="788" 
d="M393 1475q143 0 237.5 -87t94.5 -219q0 -130 -94.5 -215.5t-237.5 -85.5q-140 0 -235 85.5t-95 215.5q0 133 94.5 219.5t235.5 86.5zM186 1169q0 -85 59.5 -143.5t147.5 -58.5q90 0 149.5 58.5t59.5 143.5q0 87 -60 147t-151 60q-86 0 -145.5 -60.5t-59.5 -146.5z" />
    <glyph glyph-name="uni0394" unicode="&#x394;" horiz-adv-x="1372" 
d="M758 1458l588 -1458h-1315l575 1458h152zM217 127h932l-469 1194z" />
    <glyph glyph-name="uni0394" unicode="&#x3b4;" horiz-adv-x="1372" 
d="M758 1458l588 -1458h-1315l575 1458h152zM217 127h932l-469 1194z" />
    <glyph glyph-name="uni03A9" unicode="&#x3a9;" horiz-adv-x="1523" 
d="M96 119h404v168q-186 50 -295 208.5t-109 356.5q0 132 53 249t142.5 199t209.5 129.5t251 47.5q130 0 249.5 -48t207.5 -129.5t141 -198t53 -247.5q0 -202 -107.5 -359.5t-296.5 -207.5v-168h404v-119h-514v371q178 32 277.5 159t99.5 320q0 142 -69.5 257.5t-187.5 180
t-259 64.5t-259.5 -65t-188 -180.5t-69.5 -256.5q0 -191 99.5 -320t277.5 -159v-371h-514v119z" />
    <glyph glyph-name="uni03A9" unicode="&#x3c9;" horiz-adv-x="1523" 
d="M96 119h404v168q-186 50 -295 208.5t-109 356.5q0 132 53 249t142.5 199t209.5 129.5t251 47.5q130 0 249.5 -48t207.5 -129.5t141 -198t53 -247.5q0 -202 -107.5 -359.5t-296.5 -207.5v-168h404v-119h-514v371q178 32 277.5 159t99.5 320q0 142 -69.5 257.5t-187.5 180
t-259 64.5t-259.5 -65t-188 -180.5t-69.5 -256.5q0 -191 99.5 -320t277.5 -159v-371h-514v119z" />
    <glyph glyph-name="uni03BC" unicode="&#x3bc;" horiz-adv-x="1138" 
d="M147 -467v1425h136v-540q0 -173 58 -246.5t202 -73.5q132 0 211.5 101.5t79.5 259.5v499h135v-759q0 -111 10 -199h-145v156h-5q-51 -79 -141 -130t-180 -51q-137 0 -225 60v-502h-136z" />
    <glyph glyph-name="pi" unicode="&#x3c0;" horiz-adv-x="1153" 
d="M209 838h-143v120h1011v-120h-155v-631q0 -59 17.5 -82t59.5 -23q37 0 86 21v-100q-69 -35 -131 -35q-87 0 -125 47t-38 178v625h-451v-838h-131v838z" />
    <glyph glyph-name="uni0621" unicode="&#x621;" horiz-adv-x="966" 
d="M115 119h194q-92 115 -92 260q0 158 113 264.5t288 106.5q101 0 203 -31l-26 -117q-90 23 -158 23q-133 0 -213 -69t-80 -189q0 -122 109 -248h411v-119h-749v119z" />
    <glyph glyph-name="uni0627" unicode="&#x627;" horiz-adv-x="458" 
d="M162 0v1548h135v-1548h-135z" />
    <glyph glyph-name="uni0623" unicode="&#x623;" horiz-adv-x="458" 
d="M162 1548h135v-1548h-135v1548zM70 1659v72h75q-30 49 -30 104q0 70 48 112t124 42q33 0 96 -13l-14 -69q-30 10 -70 10q-48 0 -78.5 -24t-30.5 -68q0 -43 31 -94h180v-72h-331z" />
    <glyph glyph-name="uni0625" unicode="&#x625;" horiz-adv-x="458" 
d="M162 1548h135v-1548h-135v1548zM61 -512v72h78q-30 50 -30 104q0 70 47 112t123 42q33 0 96 -13l-13 -69q-33 10 -71 10q-48 0 -78.5 -24t-30.5 -68q0 -43 31 -94h180v-72h-332z" />
    <glyph glyph-name="uni0622" unicode="&#x622;" horiz-adv-x="458" 
d="M354 1675q-55 0 -159.5 27t-135.5 27q-46 0 -96 -37l-49 57q75 70 152 70q38 0 139 -28t141 -28q33 0 55 10.5t60 41.5l55 -52q-58 -88 -162 -88zM162 0v1548h135v-1548h-135z" />
    <glyph glyph-name="uni0671" unicode="&#x671;" horiz-adv-x="458" 
d="M162 1548h135v-1548h-135v1548zM434 1659h-493v72h102v202h72v-92q74 105 180 105q73 0 115.5 -47.5t42.5 -126.5q0 -57 -19 -113zM289 1874q-55 0 -103.5 -39.5t-76.5 -103.5h270q6 24 6 43q0 48 -26.5 74t-69.5 26z" />
    <glyph glyph-name="uni066E" unicode="&#x66e;" horiz-adv-x="1894" 
d="M1638 825h136v-471q0 -160 -103.5 -257t-292.5 -97h-819q-221 0 -345 103.5t-124 281.5q0 143 66 322l125 -35q-54 -182 -54 -262q0 -281 351 -281h786q140 0 207 66.5t67 214.5v415z" />
    <glyph glyph-name="uni066E.fina" 
d="M2048 129q41 0 41 -66q0 -29 -10.5 -46t-30.5 -17q-246 0 -330 156q-47 -74 -133.5 -115t-206.5 -41h-819q-221 0 -345 103.5t-124 281.5q0 143 66 322l125 -35q-54 -182 -54 -262q0 -281 351 -281h786q140 0 207 66.5t67 214.5v415h136v-446q0 -250 274 -250z" />
    <glyph glyph-name="uni0628" unicode="&#x628;" horiz-adv-x="1894" 
d="M1638 825h136v-471q0 -160 -103.5 -257t-292.5 -97h-819q-221 0 -345 103.5t-124 281.5q0 143 66 322l125 -35q-54 -182 -54 -262q0 -281 351 -281h786q140 0 207 66.5t67 214.5v415zM901 -182q40 0 64 -25t24 -65q0 -39 -24.5 -64.5t-63.5 -25.5q-41 0 -66.5 25.5
t-25.5 64.5q0 40 25.5 65t66.5 25z" />
    <glyph glyph-name="uni067E" unicode="&#x67e;" horiz-adv-x="1894" 
d="M1638 825h136v-471q0 -160 -103.5 -257t-292.5 -97h-819q-221 0 -345 103.5t-124 281.5q0 143 66 322l125 -35q-54 -182 -54 -262q0 -281 351 -281h786q140 0 207 66.5t67 214.5v415zM846 -272q0 -40 -25 -66.5t-63 -26.5t-64 26.5t-26 66.5q0 38 26 63t64 25t63 -25
t25 -63zM1034 -184q38 0 63 -25t25 -63q0 -40 -25 -66.5t-63 -26.5t-64 26.5t-26 66.5q0 38 26 63t64 25zM899 -393q39 0 63.5 -26t24.5 -66q0 -37 -24.5 -62.5t-63.5 -25.5q-38 0 -64 25.5t-26 62.5q0 40 26 66t64 26z" />
    <glyph glyph-name="uniFBE9.wide" horiz-adv-x="665" 
d="M666 129q41 0 41 -66q0 -29 -10.5 -46t-30.5 -17q-244 0 -328 152q-89 -152 -328 -152h-10v129h12q129 0 186.5 66t57.5 215v415h135v-446q0 -250 275 -250z" />
    <glyph glyph-name="uniFBE8.wide" horiz-adv-x="573" 
d="M0 0v129h12q129 0 186.5 66t57.5 215v415h135v-436q0 -389 -381 -389h-10z" />
    <glyph glyph-name="uni062A" unicode="&#x62a;" horiz-adv-x="1894" 
d="M780 883q-39 0 -64.5 25.5t-25.5 64.5q0 38 26 64t64 26t63 -26t25 -64q0 -40 -25 -65t-63 -25zM1057 883q-39 0 -64.5 25.5t-25.5 64.5q0 38 26 64t64 26t63 -26t25 -64q0 -40 -25 -65t-63 -25zM1638 825h136v-471q0 -160 -103.5 -257t-292.5 -97h-819
q-221 0 -345 103.5t-124 281.5q0 143 66 322l125 -35q-54 -182 -54 -262q0 -281 351 -281h786q140 0 207 66.5t67 214.5v415z" />
    <glyph glyph-name="uni062B" unicode="&#x62b;" horiz-adv-x="1894" 
d="M924 1100q-39 0 -64.5 25.5t-25.5 64.5q0 37 26 63.5t64 26.5t63 -26.5t25 -63.5q0 -40 -25 -65t-63 -25zM780 887q-39 0 -64.5 25.5t-25.5 64.5q0 38 26 64t64 26t63 -26t25 -64q0 -40 -25 -65t-63 -25zM967 977q0 38 26 64t64 26t63 -26t25 -64q0 -40 -25 -65t-63 -25
q-39 0 -64.5 25.5t-25.5 64.5zM1638 825h136v-471q0 -160 -103.5 -257t-292.5 -97h-819q-221 0 -345 103.5t-124 281.5q0 143 66 322l125 -35q-54 -182 -54 -262q0 -281 351 -281h786q140 0 207 66.5t67 214.5v415z" />
    <glyph glyph-name="uni0679" unicode="&#x679;" horiz-adv-x="1894" 
d="M90 385q0 143 66 322l125 -35q-54 -182 -54 -262q0 -281 351 -281h786q140 0 207 66.5t67 214.5v415h136v-471q0 -160 -103.5 -257t-292.5 -97h-819q-221 0 -345 103.5t-124 281.5zM641 891v74h102v344h72v-215q77 100 182 100q79 0 125.5 -53t46.5 -140q0 -60 -18 -110
h-510zM993 1122q-53 0 -101.5 -41t-76.5 -116h281q4 28 4 39q0 54 -29.5 86t-77.5 32z" />
    <glyph glyph-name="uni062C" unicode="&#x62c;" horiz-adv-x="1257" 
d="M606 848q255 0 387.5 -146.5t132.5 -396.5q0 -143 -43 -305h-637q-108 0 -166.5 -51t-58.5 -146q0 -100 69.5 -152t198.5 -52q65 0 121 12l27 -125q-70 -18 -164 -18q-175 0 -283 88.5t-108 246.5q0 149 95 237.5t255 88.5h543q20 82 20 166q0 193 -104 306.5t-305 113.5
q-109 0 -230 -39l-30 123q140 49 280 49zM596 -102q37 0 58.5 -22.5t21.5 -59.5q0 -36 -22 -60t-58 -24q-38 0 -61 24t-23 60q0 37 23 59.5t61 22.5z" />
    <glyph glyph-name="uni0686" unicode="&#x686;" horiz-adv-x="1257" 
d="M606 848q255 0 387.5 -146.5t132.5 -396.5q0 -143 -43 -305h-637q-108 0 -166.5 -51t-58.5 -146q0 -100 69.5 -152t198.5 -52q65 0 121 12l27 -125q-70 -18 -164 -18q-175 0 -283 88.5t-108 246.5q0 149 95 237.5t255 88.5h543q20 82 20 166q0 193 -104 306.5t-305 113.5
q-109 0 -230 -39l-30 123q140 49 280 49zM604 -115q28 0 45 -17.5t17 -43.5q0 -28 -17.5 -47t-44.5 -19q-26 0 -44.5 19t-18.5 47q0 26 18.5 43.5t44.5 17.5zM799 -115q26 0 43.5 -17.5t17.5 -43.5q0 -28 -17.5 -47t-43.5 -19q-28 0 -46 19t-18 47q0 26 18 43.5t46 17.5z
M702 -260q29 0 46.5 -19t17.5 -47q0 -27 -17.5 -44t-46.5 -17q-26 0 -43.5 17.5t-17.5 43.5q0 28 17.5 47t43.5 19z" />
    <glyph glyph-name="uni062D" unicode="&#x62d;" horiz-adv-x="1257" 
d="M446 0q-108 0 -166.5 -51t-58.5 -146q0 -100 69.5 -152t198.5 -52q69 0 187 28l24 -123q-113 -36 -227 -36q-175 0 -283 88.5t-108 246.5q0 149 95 237.5t255 88.5h543q20 82 20 166q0 193 -104 306.5t-305 113.5q-109 0 -230 -39l-30 123q140 49 280 49
q255 0 387.5 -146.5t132.5 -396.5q0 -143 -43 -305h-637z" />
    <glyph glyph-name="uni062E" unicode="&#x62e;" horiz-adv-x="1257" 
d="M606 1090q-41 0 -66.5 25t-25.5 65q0 39 25.5 64.5t66.5 25.5q39 0 63.5 -25.5t24.5 -64.5q0 -40 -24 -65t-64 -25zM446 0q-108 0 -166.5 -51t-58.5 -146q0 -100 69.5 -152t198.5 -52q69 0 187 28l24 -123q-113 -36 -227 -36q-175 0 -283 88.5t-108 246.5q0 149 95 237.5
t255 88.5h543q20 82 20 166q0 193 -104 306.5t-305 113.5q-109 0 -230 -39l-30 123q140 49 280 49q255 0 387.5 -146.5t132.5 -396.5q0 -143 -43 -305h-637z" />
    <glyph glyph-name="uni062F" unicode="&#x62f;" horiz-adv-x="1042" 
d="M82 0v129h694v41q0 336 -416 606l80 111q136 -89 228.5 -178.5t145.5 -183.5t75 -188t22 -208v-129h-829z" />
    <glyph glyph-name="uni0630" unicode="&#x630;" horiz-adv-x="1042" 
d="M393 1075q-41 0 -66.5 25t-25.5 65q0 39 25.5 64.5t66.5 25.5q39 0 63.5 -25.5t24.5 -64.5q0 -40 -24 -65t-64 -25zM82 0v129h694v41q0 336 -416 606l80 111q136 -89 228.5 -178.5t145.5 -183.5t75 -188t22 -208v-129h-829z" />
    <glyph glyph-name="uni0688" unicode="&#x688;" horiz-adv-x="1042" 
d="M82 0v129h694v41q0 336 -416 606l80 111q136 -89 228.5 -178.5t145.5 -183.5t75 -188t22 -208v-129h-829zM623 1083h-510v74h102v344h72v-215q77 100 182 100q79 0 125.5 -52.5t46.5 -139.5q0 -61 -18 -111zM287 1157h280q4 28 4 39q0 54 -29.5 86.5t-76.5 32.5
q-53 0 -101.5 -41t-76.5 -117z" />
    <glyph glyph-name="uni0631" unicode="&#x631;" horiz-adv-x="591" 
d="M18 -352l-26 125q161 27 232 109t71 255v688h135v-659q0 -232 -100.5 -361.5t-311.5 -156.5z" />
    <glyph glyph-name="uni0632" unicode="&#x632;" horiz-adv-x="591" 
d="M362 1067q-41 0 -66.5 25t-25.5 65q0 39 25.5 64.5t66.5 25.5q39 0 64 -25.5t25 -64.5q0 -40 -24.5 -65t-64.5 -25zM18 -352l-26 125q161 27 232 109t71 255v688h135v-659q0 -232 -100.5 -361.5t-311.5 -156.5z" />
    <glyph glyph-name="uni0691" unicode="&#x691;" horiz-adv-x="591" 
d="M-8 -227q161 27 232 109t71 255v688h135v-659q0 -232 -100.5 -361.5t-311.5 -156.5zM82 1075v74h102v344h72v-215q77 100 182 100q79 0 125.5 -52.5t46.5 -139.5q0 -61 -18 -111h-510zM256 1149h281q4 28 4 39q0 54 -29.5 86.5t-77.5 32.5q-53 0 -101.5 -41t-76.5 -117z
" />
    <glyph glyph-name="uni0698" unicode="&#x698;" horiz-adv-x="591" 
d="M365 1284q-39 0 -65 25.5t-26 64.5q0 37 26.5 63.5t64.5 26.5t63 -26.5t25 -63.5q0 -40 -25 -65t-63 -25zM221 1071q-39 0 -64.5 25.5t-25.5 64.5q0 38 26 64t64 26t63 -26t25 -64q0 -40 -25 -65t-63 -25zM498 1071q-39 0 -64.5 25.5t-25.5 64.5q0 38 26 64t64 26t63 -26
t25 -64q0 -40 -25 -65t-63 -25zM18 -352l-26 125q161 27 232 109t71 255v688h135v-659q0 -232 -100.5 -361.5t-311.5 -156.5z" />
    <glyph glyph-name="uni0633" unicode="&#x633;" horiz-adv-x="2445" 
d="M627 -336q-258 0 -397.5 128.5t-139.5 338.5q0 161 84 363l121 -41q-68 -172 -68 -306q0 -176 106.5 -264t297.5 -88q407 0 407 395v486h136v-354q0 -193 212 -193q111 0 167.5 60t56.5 208v279h135v-348q0 -199 223 -199q117 0 169 66t52 215v415h135v-471
q0 -167 -93.5 -260.5t-260.5 -93.5q-101 0 -174 36.5t-110 104.5q-84 -145 -300 -145q-151 0 -217 84q-24 -202 -168 -309t-374 -107z" />
    <glyph glyph-name="uni0634" unicode="&#x634;" horiz-adv-x="2445" 
d="M627 -336q-258 0 -397.5 128.5t-139.5 338.5q0 161 84 363l121 -41q-68 -172 -68 -306q0 -176 106.5 -264t297.5 -88q407 0 407 395v486h136v-354q0 -193 212 -193q111 0 167.5 60t56.5 208v279h135v-348q0 -199 223 -199q117 0 169 66t52 215v415h135v-471
q0 -167 -93.5 -260.5t-260.5 -93.5q-101 0 -174 36.5t-110 104.5q-84 -145 -300 -145q-151 0 -217 84q-24 -202 -168 -309t-374 -107zM1538 922q-39 0 -64.5 25.5t-25.5 64.5q0 38 26 64t64 26t63 -26t25 -64q0 -40 -25 -65t-63 -25zM1815 922q-39 0 -65 25.5t-26 64.5
q0 38 26.5 64t64.5 26t63 -26t25 -64q0 -40 -25 -65t-63 -25zM1591 1225q0 37 26 63.5t64 26.5t63 -26.5t25 -63.5q0 -40 -25 -65t-63 -25q-39 0 -64.5 25.5t-25.5 64.5z" />
    <glyph glyph-name="uni0635" unicode="&#x635;" horiz-adv-x="2723" 
d="M2150 848q144 0 245 -65.5t149.5 -177t48.5 -259.5q0 -160 -62 -346h-1138q-144 0 -226 66q-27 -195 -171 -298.5t-369 -103.5q-258 0 -397.5 128.5t-139.5 338.5q0 161 84 363l121 -41q-68 -172 -68 -306q0 -176 106.5 -264t297.5 -88q407 0 407 395v486h136v-383
q0 -120 124 -154q93 170 192 299t185.5 205t175.5 124t159 64.5t140 16.5zM2423 129q33 106 33 211q0 167 -83.5 271t-236.5 104q-170 0 -346.5 -142t-347.5 -444h981z" />
    <glyph glyph-name="uni0636" unicode="&#x636;" horiz-adv-x="2723" 
d="M1970 1090q-41 0 -66.5 25t-25.5 65q0 39 25.5 64.5t66.5 25.5q39 0 63.5 -25.5t24.5 -64.5q0 -40 -24 -65t-64 -25zM2150 848q144 0 245 -65.5t149.5 -177t48.5 -259.5q0 -160 -62 -346h-1138q-144 0 -226 66q-27 -195 -171 -298.5t-369 -103.5q-258 0 -397.5 128.5
t-139.5 338.5q0 161 84 363l121 -41q-68 -172 -68 -306q0 -176 106.5 -264t297.5 -88q407 0 407 395v486h136v-383q0 -120 124 -154q93 170 192 299t185.5 205t175.5 124t159 64.5t140 16.5zM2423 129q33 106 33 211q0 167 -83.5 271t-236.5 104q-170 0 -346.5 -142
t-347.5 -444h981z" />
    <glyph glyph-name="uni0637" unicode="&#x637;" horiz-adv-x="1740" 
d="M90 0v129h225v1419h136v-1196q157 245 344.5 370.5t373.5 125.5q108 0 193.5 -39.5t139 -108.5t81 -159t27.5 -195q0 -163 -60 -346h-1460zM455 129h987q31 115 31 217q0 166 -81.5 267.5t-234.5 101.5q-114 0 -236 -64.5t-245 -199t-221 -322.5z" />
    <glyph glyph-name="uni0638" unicode="&#x638;" horiz-adv-x="1740" 
d="M90 0v129h225v1419h136v-1196q157 245 344.5 370.5t373.5 125.5q108 0 193.5 -39.5t139 -108.5t81 -159t27.5 -195q0 -163 -60 -346h-1460zM455 129h987q31 115 31 217q0 166 -81.5 267.5t-234.5 101.5q-114 0 -236 -64.5t-245 -199t-221 -322.5zM934 1180
q0 39 25.5 64.5t66.5 25.5q39 0 63.5 -25.5t24.5 -64.5q0 -40 -24 -65t-64 -25q-41 0 -66.5 25t-25.5 65z" />
    <glyph glyph-name="uni0639" unicode="&#x639;" horiz-adv-x="1050" 
d="M469 0q-117 0 -182.5 -51t-65.5 -142q0 -106 73.5 -157t201.5 -51q82 0 180 24l24 -123q-100 -32 -208 -32q-192 0 -301 87.5t-109 247.5q0 128 79 213t214 107q-125 150 -125 328q0 177 122 287t341 110q103 0 221 -31l-27 -129q-110 27 -196 27q-150 0 -235 -74
t-85 -199q0 -91 41 -172t98 -141h451v-129h-512z" />
    <glyph glyph-name="uni063A" unicode="&#x63a;" horiz-adv-x="1050" 
d="M713 1090q-41 0 -66.5 25t-25.5 65q0 39 25.5 64.5t66.5 25.5q39 0 63.5 -25.5t24.5 -64.5q0 -40 -24 -65t-64 -25zM469 0q-117 0 -182.5 -51t-65.5 -142q0 -106 73.5 -157t201.5 -51q82 0 180 24l24 -123q-100 -32 -208 -32q-192 0 -301 87.5t-109 247.5q0 128 79 213
t214 107q-125 150 -125 328q0 177 122 287t341 110q103 0 221 -31l-27 -129q-110 27 -196 27q-150 0 -235 -74t-85 -199q0 -91 41 -172t98 -141h451v-129h-512z" />
    <glyph glyph-name="uni0641" unicode="&#x641;" horiz-adv-x="2119" 
d="M559 0q-221 0 -345 103.5t-124 281.5q0 143 66 322l125 -35q-54 -182 -54 -262q0 -281 351 -281h704q-106 115 -106 289q0 188 120.5 309t313.5 121q100 0 176 -35t121.5 -96.5t68.5 -140t23 -170.5q0 -189 -90 -406h-1350zM1315 414q0 -154 121 -285h379q45 145 45 268
q0 147 -66.5 232.5t-194.5 85.5q-131 0 -207.5 -83.5t-76.5 -217.5zM1518 1180q0 39 25.5 64.5t66.5 25.5q39 0 63.5 -25.5t24.5 -64.5q0 -40 -24 -65t-64 -25q-41 0 -66.5 25t-25.5 65z" />
    <glyph glyph-name="uni06A4" unicode="&#x6a4;" horiz-adv-x="2119" 
d="M559 0q-221 0 -345 103.5t-124 281.5q0 143 66 322l125 -35q-54 -182 -54 -262q0 -281 351 -281h704q-106 115 -106 289q0 188 120.5 309t313.5 121q100 0 176 -35t121.5 -96.5t68.5 -140t23 -170.5q0 -189 -90 -406h-1350zM1315 414q0 -154 121 -285h379q45 145 45 268
q0 147 -66.5 232.5t-194.5 85.5q-131 0 -207.5 -83.5t-76.5 -217.5zM1378 1184q0 38 26 64t64 26t63 -26t25 -64q0 -40 -25 -65t-63 -25q-39 0 -64.5 25.5t-25.5 64.5zM1745 1094q-39 0 -64.5 25.5t-25.5 64.5q0 38 26 64t64 26t63 -26t25 -64q0 -40 -25 -65t-63 -25z
M1612 1307q-39 0 -64.5 25.5t-25.5 64.5q0 37 26 63.5t64 26.5t63 -26.5t25 -63.5q0 -40 -25 -65t-63 -25z" />
    <glyph glyph-name="uni06A1" unicode="&#x6a1;" horiz-adv-x="2119" 
d="M90 385q0 143 66 322l125 -35q-54 -182 -54 -262q0 -281 351 -281h704q-106 115 -106 289q0 188 120.5 309t313.5 121q100 0 176 -35t121.5 -96.5t68.5 -140t23 -170.5q0 -189 -90 -406h-1350q-221 0 -345 103.5t-124 281.5zM1315 414q0 -154 121 -285h379q45 145 45 268
q0 147 -66.5 232.5t-194.5 85.5q-131 0 -207.5 -83.5t-76.5 -217.5z" />
    <glyph glyph-name="uni06A1.fina" horiz-adv-x="2201" 
d="M90 385q0 143 66 322l125 -35q-54 -182 -54 -262q0 -281 351 -281h665q101 0 160 10q-92 59 -147.5 146.5t-55.5 195.5q0 160 114.5 263.5t297.5 103.5t292 -103t109 -264q0 -110 -53.5 -197.5t-147.5 -146.5q90 -8 150 -8h240q41 0 41 -66q0 -63 -41 -63h-230
q-200 0 -364 41q-155 -41 -373 -41h-676q-221 0 -345 103.5t-124 281.5zM1610 715q-121 0 -196 -64.5t-75 -169.5q0 -109 78.5 -191.5t190.5 -115.5q105 29 185.5 113.5t80.5 195.5q0 105 -73 168.5t-191 63.5z" />
    <glyph glyph-name="uni06A1.medi" horiz-adv-x="1179" 
d="M0 129h221q101 0 160 10q-92 59 -147.5 146.5t-55.5 195.5q0 160 114.5 263.5t297.5 103.5t292 -103t109 -264q0 -218 -200 -344q90 -8 149 -8h240q41 0 41 -66q0 -63 -41 -63h-230q-200 0 -364 41q-155 -41 -373 -41h-213v129zM317 481q0 -109 78.5 -191.5t190.5 -115.5
q105 29 185.5 113.5t80.5 195.5q0 105 -73 168.5t-191 63.5q-121 0 -196 -64.5t-75 -169.5z" />
    <glyph glyph-name="uni06A1.init" horiz-adv-x="1132" 
d="M911 0h-911v129h285q-107 116 -107 289q0 188 120.5 309t313.5 121q100 0 176 -35t121.5 -96.5t68.5 -140t23 -170.5q0 -189 -90 -406zM317 414q0 -154 121 -285h379q45 145 45 268q0 147 -66 232.5t-194 85.5q-131 0 -208 -83.5t-77 -217.5z" />
    <glyph glyph-name="uni066F" unicode="&#x66f;" horiz-adv-x="1579" 
d="M793 -336q-703 0 -703 475q0 128 47 267l125 -33q-35 -112 -35 -215q0 -184 136 -273.5t430 -89.5q519 0 528 248q-104 -43 -229 -43q-193 0 -304.5 107.5t-111.5 295.5t110.5 316.5t296.5 128.5q180 0 277.5 -116t97.5 -304v-313q0 -230 -160.5 -340.5t-504.5 -110.5z
M1110 131q115 0 213 37v225q0 153 -61 237.5t-187 84.5q-116 0 -188 -79t-72 -218q0 -143 77.5 -215t217.5 -72z" />
    <glyph glyph-name="uni066F.fina" horiz-adv-x="1693" 
d="M90 139q0 128 47 267l125 -33q-35 -112 -35 -215q0 -184 136 -273.5t430 -89.5q252 0 378 49.5t146 155.5h-162q-479 0 -479 414q0 83 27 160t76.5 138.5t129 98.5t176.5 37q171 0 272 -107t101 -301v-311h236q41 0 41 -66q0 -29 -10.5 -46t-30.5 -17h-244
q-30 -185 -187.5 -260.5t-469.5 -75.5q-703 0 -703 475zM815 416q0 -151 89 -219t267 -68h152v281q0 147 -62.5 226t-185.5 79q-117 0 -188.5 -80t-71.5 -219z" />
    <glyph glyph-name="uni0642" unicode="&#x642;" horiz-adv-x="1579" 
d="M942 1090q-39 0 -64.5 25.5t-25.5 64.5q0 38 26 64t64 26t63 -26t25 -64q0 -40 -25 -65t-63 -25zM1219 1090q-39 0 -65 25.5t-26 64.5q0 38 26.5 64t64.5 26t63 -26t25 -64q0 -40 -25 -65t-63 -25zM793 -336q-703 0 -703 475q0 128 47 267l125 -33q-35 -112 -35 -215
q0 -184 136 -273.5t430 -89.5q519 0 528 248q-104 -43 -229 -43q-193 0 -304.5 107.5t-111.5 295.5t110.5 316.5t296.5 128.5q180 0 277.5 -116t97.5 -304v-313q0 -230 -160.5 -340.5t-504.5 -110.5zM1110 131q115 0 213 37v225q0 153 -61 237.5t-187 84.5q-116 0 -188 -79
t-72 -218q0 -143 77.5 -215t217.5 -72z" />
    <glyph glyph-name="uni0643" unicode="&#x643;" horiz-adv-x="1693" 
d="M559 0q-221 0 -345 103.5t-124 281.5q0 143 66 322l125 -35q-54 -182 -54 -262q0 -281 351 -281h571q142 0 195 62t53 219v1138h135v-1194q0 -354 -383 -354h-590zM1038 651h-403v86h110q-36 53 -36 121q0 80 56.5 135.5t149.5 55.5q35 0 101 -17l-17 -84q-54 13 -81 13
q-54 0 -87.5 -28t-33.5 -81q0 -62 47 -115h194v-86z" />
    <glyph glyph-name="uni06A9" unicode="&#x6a9;" horiz-adv-x="1738" 
d="M995 913q144 -48 250.5 -106.5t175.5 -123.5t111 -145t59 -163t17 -185v-190h-1049q-221 0 -345 103.5t-124 281.5q0 143 66 322l125 -35q-54 -182 -54 -262q0 -281 351 -281h899v84q0 230 -139 369t-480 243v133l580 560l88 -91z" />
    <glyph glyph-name="uni06AF" unicode="&#x6af;" horiz-adv-x="1738" 
d="M1368 1591l-516 -495l-94 92l520 493zM995 913q144 -48 250.5 -106.5t175.5 -123.5t111 -145t59 -163t17 -185v-190h-1049q-221 0 -345 103.5t-124 281.5q0 143 66 322l125 -35q-54 -182 -54 -262q0 -281 351 -281h899v84q0 230 -139 369t-480 243v133l580 560l88 -91z
" />
    <glyph glyph-name="uni0644" unicode="&#x644;" horiz-adv-x="1335" 
d="M621 -336q-244 0 -387.5 126.5t-143.5 340.5q0 161 84 363l119 -41q-35 -104 -50.5 -172t-15.5 -136q0 -175 103.5 -262.5t298.5 -87.5q202 0 305.5 100.5t103.5 297.5v1355h136v-1388q0 -232 -148.5 -364t-404.5 -132z" />
    <glyph glyph-name="uni0645" unicode="&#x645;" horiz-adv-x="1304" 
d="M82 -532v335q0 155 83 240.5t236 85.5h50q-89 144 -89 289q0 190 121.5 310t307.5 120q184 0 289.5 -121.5t105.5 -308.5q0 -88 -26 -161.5t-79.5 -132t-144 -91.5t-211.5 -33h-322q-91 0 -140.5 -50t-49.5 -147v-335h-131zM776 715q-123 0 -198.5 -78.5t-75.5 -216.5
q0 -57 17 -114.5t35.5 -92t49.5 -84.5h133q157 0 233.5 81t76.5 210q0 135 -74 215t-197 80z" />
    <glyph glyph-name="uni0646" unicode="&#x646;" horiz-adv-x="1335" 
d="M651 842q-41 0 -66.5 25t-25.5 65q0 39 25.5 64.5t66.5 25.5q39 0 63.5 -25.5t24.5 -64.5q0 -40 -24 -65t-64 -25zM627 -336q-258 0 -397.5 128.5t-139.5 338.5q0 161 84 363l121 -41q-68 -172 -68 -306q0 -176 106.5 -264t297.5 -88q407 0 407 395v486h136v-520
q0 -238 -147.5 -365t-399.5 -127z" />
    <glyph glyph-name="uni06BA" unicode="&#x6ba;" horiz-adv-x="1335" 
d="M627 -336q-258 0 -397.5 128.5t-139.5 338.5q0 161 84 363l121 -41q-68 -172 -68 -306q0 -176 106.5 -264t297.5 -88q407 0 407 395v486h136v-520q0 -238 -147.5 -365t-399.5 -127z" />
    <glyph glyph-name="uni0647" unicode="&#x647;" horiz-adv-x="1042" 
d="M502 -10q-136 0 -232.5 55t-142 145.5t-45.5 206.5q0 90 27.5 170.5t79 143.5t132.5 100t181 37t181.5 -37.5t133.5 -101t79.5 -143.5t27.5 -169q0 -183 -113.5 -295t-308.5 -112zM506 121q132 0 205 69.5t73 210.5t-72 227.5t-210 86.5t-209.5 -87t-71.5 -225
q0 -143 75.5 -212.5t209.5 -69.5z" />
    <glyph glyph-name="uni06C1" unicode="&#x6c1;" horiz-adv-x="1042" 
d="M502 -10q-136 0 -232.5 55t-142 145.5t-45.5 206.5q0 90 27.5 170.5t79 143.5t132.5 100t181 37t181.5 -37.5t133.5 -101t79.5 -143.5t27.5 -169q0 -183 -113.5 -295t-308.5 -112zM506 121q132 0 205 69.5t73 210.5t-72 227.5t-210 86.5t-209.5 -87t-71.5 -225
q0 -143 75.5 -212.5t209.5 -69.5z" />
    <glyph glyph-name="uni06C2" unicode="&#x6c2;" horiz-adv-x="1042" 
d="M502 -10q-136 0 -232.5 55t-142 145.5t-45.5 206.5q0 90 27.5 170.5t79 143.5t132.5 100t181 37t181.5 -37.5t133.5 -101t79.5 -143.5t27.5 -169q0 -183 -113.5 -295t-308.5 -112zM502 715q-138 0 -209.5 -87t-71.5 -225q0 -143 75.5 -212.5t209.5 -69.5q132 0 205 69.5
t73 210.5t-72 227.5t-210 86.5zM276 1108v88h101q-41 68 -41 139q0 88 58.5 139.5t152.5 51.5q54 0 127 -15l-17 -86q-74 11 -92 11q-57 0 -97 -28.5t-40 -88.5q0 -55 41 -123h229v-88h-422z" />
    <glyph glyph-name="uni06C2.fina" horiz-adv-x="1105" 
d="M203 111q-119 123 -119 301q0 87 31.5 163t90.5 134t150 91.5t203 33.5h293v-496q0 -121 55 -165t199 -44q41 0 41 -66q0 -29 -10.5 -46t-30.5 -17h-82q-156 0 -234.5 76.5t-78.5 216.5v412h-152q-147 0 -241.5 -76t-94.5 -219q0 -71 20 -118.5t62 -98.5zM334 1094v88
h100q-41 68 -41 139q0 88 58.5 139t152.5 51q59 0 127 -14l-16 -86q-68 10 -92 10q-58 0 -98 -28t-40 -88q0 -55 41 -123h230v-88h-422z" />
    <glyph glyph-name="uni06BE" unicode="&#x6be;" horiz-adv-x="1486" 
d="M389 872q187 -14 335 -43t272.5 -79.5t206.5 -122t127.5 -173t45.5 -229.5q0 -110 -28 -225h-363q-171 0 -291 45q-119 -45 -286 -45q-190 0 -326 59l41 121q127 -51 285 -51q70 0 129 10q-64 48 -104 127.5t-40 173.5q0 92 45 173.5t123 125.5q-141 13 -194 15zM516 444
q0 -96 49.5 -165.5t126.5 -106.5q86 32 142.5 102.5t56.5 171.5t-53.5 165.5t-132.5 64.5q-83 0 -136 -66.5t-53 -165.5zM956 129h283q10 58 10 111q0 282 -297 409q62 -94 62 -203q0 -98 -46 -180.5t-118 -130.5q56 -6 106 -6z" />
    <glyph glyph-name="uni0629" unicode="&#x629;" horiz-adv-x="1042" 
d="M360 1090q-39 0 -64.5 25.5t-25.5 64.5q0 38 26 64t64 26t63.5 -26t25.5 -64q0 -40 -25.5 -65t-63.5 -25zM637 1090q-39 0 -64.5 25.5t-25.5 64.5q0 38 26 64t64 26t63 -26t25 -64q0 -40 -25 -65t-63 -25zM502 -10q-136 0 -232.5 55t-142 145.5t-45.5 206.5
q0 90 27.5 170.5t79 143.5t132.5 100t181 37t181.5 -37.5t133.5 -101t79.5 -143.5t27.5 -169q0 -183 -113.5 -295t-308.5 -112zM506 121q132 0 205 69.5t73 210.5t-72 227.5t-210 86.5t-209.5 -87t-71.5 -225q0 -143 75.5 -212.5t209.5 -69.5z" />
    <glyph glyph-name="uni06C3" unicode="&#x6c3;" horiz-adv-x="1042" 
d="M360 1090q-39 0 -64.5 25.5t-25.5 64.5q0 38 26 64t64 26t63.5 -26t25.5 -64q0 -40 -25.5 -65t-63.5 -25zM637 1090q-39 0 -64.5 25.5t-25.5 64.5q0 38 26 64t64 26t63 -26t25 -64q0 -40 -25 -65t-63 -25zM502 -10q-136 0 -232.5 55t-142 145.5t-45.5 206.5
q0 90 27.5 170.5t79 143.5t132.5 100t181 37t181.5 -37.5t133.5 -101t79.5 -143.5t27.5 -169q0 -183 -113.5 -295t-308.5 -112zM506 121q132 0 205 69.5t73 210.5t-72 227.5t-210 86.5t-209.5 -87t-71.5 -225q0 -143 75.5 -212.5t209.5 -69.5z" />
    <glyph glyph-name="uni06C3.fina" horiz-adv-x="1128" 
d="M416 1067q-39 0 -64.5 25.5t-25.5 64.5q0 38 26 64t64 26t63 -26t25 -64q0 -40 -25 -65t-63 -25zM692 1067q-39 0 -64.5 25.5t-25.5 64.5q0 38 26 64t64 26t63 -26t25 -64q0 -40 -25 -65t-63 -25zM1128 129q41 0 41 -66q0 -29 -10.5 -46t-30.5 -17q-148 0 -231 27
t-113 88q-139 -68 -284 -68q-191 0 -304.5 95.5t-113.5 265.5q0 191 126.5 304t348.5 113h334v-499q0 -115 51.5 -156t185.5 -41zM748 236v460h-216q-143 0 -227 -70t-84 -204q0 -119 75 -180.5t214 -61.5t238 56z" />
    <glyph glyph-name="uni0648" unicode="&#x648;" horiz-adv-x="1015" 
d="M244 -352l-6 123q29 -2 84 -2q427 0 436 274q-104 -43 -230 -43q-193 0 -304 107.5t-111 295.5t110.5 316.5t296.5 128.5q180 0 277.5 -108t97.5 -283v-367q0 -77 -18 -142t-60 -122t-105.5 -96t-159.5 -61.5t-218 -22.5q-53 0 -90 2zM545 131q117 0 215 37v242
q0 152 -65 229.5t-183 77.5q-115 0 -187.5 -80t-72.5 -219q0 -143 77 -215t216 -72z" />
    <glyph glyph-name="uni0624" unicode="&#x624;" horiz-adv-x="1015" 
d="M528 0q-193 0 -304 107.5t-111 295.5t110.5 316.5t296.5 128.5q180 0 277.5 -108t97.5 -283v-367q0 -77 -18 -142t-60 -122t-105.5 -96t-159.5 -61.5t-218 -22.5q-53 0 -90 2l-6 123q29 -2 84 -2q427 0 436 274q-104 -43 -230 -43zM252 418q0 -143 77 -215t216 -72
q117 0 215 37v242q0 152 -65 229.5t-183 77.5q-115 0 -187.5 -80t-72.5 -219zM293 1108v88h100q-41 68 -41 139q0 88 58.5 139.5t152.5 51.5q54 0 127 -15l-16 -86q-74 11 -92 11q-58 0 -98 -28.5t-40 -88.5q0 -55 41 -123h230v-88h-422z" />
    <glyph glyph-name="uni0649" unicode="&#x649;" horiz-adv-x="1548" 
d="M758 -336q-323 0 -495.5 106t-172.5 322q0 118 47 264l125 -32q-35 -140 -35 -215q0 -165 132.5 -239.5t398.5 -74.5q245 0 382.5 58t137.5 153q0 39 -28 73.5t-73 61.5t-99.5 54t-109 59t-99.5 69t-73 90t-28 117q0 136 107.5 227t295.5 91q92 0 220 -31l-25 -129
q-109 29 -199 29q-122 0 -191 -50t-69 -130q0 -47 28 -85.5t73 -66.5t99 -54.5t108 -55.5t99 -62.5t73 -83t28 -109.5q0 -160 -179.5 -258t-477.5 -98z" />
    <glyph glyph-name="uni064A" unicode="&#x64a;" horiz-adv-x="1548" 
d="M758 -336q-323 0 -495.5 106t-172.5 322q0 118 47 264l125 -32q-35 -140 -35 -215q0 -165 132.5 -239.5t398.5 -74.5q245 0 382.5 58t137.5 153q0 39 -28 73.5t-73 61.5t-99.5 54t-109 59t-99.5 69t-73 90t-28 117q0 136 107.5 227t295.5 91q92 0 220 -31l-25 -129
q-109 29 -199 29q-122 0 -191 -50t-69 -130q0 -47 28 -85.5t73 -66.5t99 -54.5t108 -55.5t99 -62.5t73 -83t28 -109.5q0 -160 -179.5 -258t-477.5 -98zM610 -698q-38 0 -64 26t-26 64q0 39 25.5 64.5t64.5 25.5q38 0 63 -25t25 -65q0 -38 -25 -64t-63 -26zM887 -698
q-38 0 -64 26t-26 64q0 39 25.5 64.5t64.5 25.5q38 0 63 -25t25 -65q0 -38 -25 -64t-63 -26z" />
    <glyph glyph-name="uni0626" unicode="&#x626;" horiz-adv-x="1548" 
d="M758 -336q-323 0 -495.5 106t-172.5 322q0 118 47 264l125 -32q-35 -140 -35 -215q0 -165 132.5 -239.5t398.5 -74.5q245 0 382.5 58t137.5 153q0 39 -28 73.5t-73 61.5t-99.5 54t-109 59t-99.5 69t-73 90t-28 117q0 136 107.5 227t295.5 91q92 0 220 -31l-25 -129
q-109 29 -199 29q-122 0 -191 -50t-69 -130q0 -47 28 -85.5t73 -66.5t99 -54.5t108 -55.5t99 -62.5t73 -83t28 -109.5q0 -160 -179.5 -258t-477.5 -98zM150 639h100q-41 68 -41 139q0 88 58.5 139.5t152.5 51.5q54 0 127 -15l-17 -86q-74 11 -92 11q-57 0 -97 -28.5
t-40 -88.5q0 -55 41 -123h229v-88h-421v88z" />
    <glyph glyph-name="uni06CC" unicode="&#x6cc;" horiz-adv-x="1548" 
d="M758 -336q-323 0 -495.5 106t-172.5 322q0 118 47 264l125 -32q-35 -140 -35 -215q0 -165 132.5 -239.5t398.5 -74.5q245 0 382.5 58t137.5 153q0 39 -28 73.5t-73 61.5t-99.5 54t-109 59t-99.5 69t-73 90t-28 117q0 136 107.5 227t295.5 91q92 0 220 -31l-25 -129
q-109 29 -199 29q-122 0 -191 -50t-69 -130q0 -47 28 -85.5t73 -66.5t99 -54.5t108 -55.5t99 -62.5t73 -83t28 -109.5q0 -160 -179.5 -258t-477.5 -98z" />
    <glyph glyph-name="uni06D2" unicode="&#x6d2;" horiz-adv-x="1505" 
d="M715 -18q-238 0 -380 30t-202.5 88.5t-60.5 153.5q0 60 22.5 110t58 84.5t78.5 64.5t86.5 56.5t79 54t58 64.5t22.5 80v66h127v-72q0 -57 -22.5 -105.5t-58 -81.5t-78.5 -62.5t-86.5 -55.5t-79 -52.5t-58 -61t-22.5 -75.5q0 -87 125.5 -121t423.5 -34q334 0 747 71
l6 -127q-454 -75 -786 -75z" />
    <glyph glyph-name="uniFBAF.wide" horiz-adv-x="1572" 
d="M709 -532q-330 0 -486.5 80t-156.5 259q0 155 116 238.5t326 83.5h1065q41 0 41 -66q0 -63 -41 -63h-1079q-157 0 -228 -48t-71 -140q0 -114 124 -163.5t422 -49.5q323 0 748 73l8 -129q-454 -75 -788 -75z" />
    <glyph glyph-name="uni06D3" unicode="&#x6d3;" horiz-adv-x="1505" 
d="M715 -18q-238 0 -380 30t-202.5 88.5t-60.5 153.5q0 60 22.5 110t58 84.5t78.5 64.5t86.5 56.5t79 54t58 64.5t22.5 80v66h127v-72q0 -57 -22.5 -105.5t-58 -81.5t-78.5 -62.5t-86.5 -55.5t-79 -52.5t-58 -61t-22.5 -75.5q0 -87 125.5 -121t423.5 -34q334 0 747 71
l6 -127q-454 -75 -786 -75zM737 1092h-422v88h101q-41 68 -41 139q0 88 58.5 139t152.5 51q59 0 127 -14l-17 -86q-68 10 -92 10q-58 0 -97.5 -28t-39.5 -88q0 -55 41 -123h229v-88z" />
    <glyph glyph-name="uniFBB1.wide" horiz-adv-x="1572" 
d="M66 -193q0 155 116 238.5t326 83.5h1065q41 0 41 -66q0 -63 -41 -63h-1079q-157 0 -228 -48t-71 -140q0 -114 124 -163.5t422 -49.5q323 0 748 73l8 -129q-454 -75 -788 -75q-330 0 -486.5 80t-156.5 259zM635 360h-332v72h76q-31 51 -31 105q0 70 48 111.5t124 41.5
q38 0 96 -12l-14 -70q-30 10 -70 10q-48 0 -78 -24t-30 -68q0 -43 31 -94h180v-72z" />
    <glyph glyph-name="uni06D5" unicode="&#x6d5;" horiz-adv-x="1042" 
d="M502 -10q-136 0 -232.5 55t-142 145.5t-45.5 206.5q0 90 27.5 170.5t79 143.5t132.5 100t181 37t181.5 -37.5t133.5 -101t79.5 -143.5t27.5 -169q0 -183 -113.5 -295t-308.5 -112zM506 121q132 0 205 69.5t73 210.5t-72 227.5t-210 86.5t-209.5 -87t-71.5 -225
q0 -143 75.5 -212.5t209.5 -69.5z" />
    <glyph glyph-name="uni06D5.fina" horiz-adv-x="1128" 
d="M1128 129q41 0 41 -66q0 -29 -10.5 -46t-30.5 -17q-148 0 -231 27t-113 88q-139 -68 -284 -68q-191 0 -304.5 95.5t-113.5 265.5q0 191 126.5 304t348.5 113h334v-499q0 -115 51.5 -156t185.5 -41zM748 236v460h-216q-143 0 -227 -70t-84 -204q0 -119 75 -180.5
t214 -61.5t238 56z" />
    <glyph glyph-name="uni0640" unicode="&#x640;" horiz-adv-x="106" 
d="M0 0v129h106q41 0 41 -66q0 -29 -10.5 -46t-30.5 -17h-106z" />
    <glyph glyph-name="uni06440671" horiz-adv-x="1349" 
d="M61 0v129h441v997h135v-997h133q144 0 213.5 67.5t69.5 219.5v1132h135v-1169q0 -180 -104.5 -279.5t-299.5 -99.5h-723zM281 1280v72h102v202h72v-92q74 105 180 105q73 0 115.5 -47.5t42.5 -126.5q0 -57 -19 -113h-493zM449 1352h270q6 24 6 43q0 48 -26.5 74t-69.5 26
q-55 0 -103.5 -39.5t-76.5 -103.5z" />
    <glyph glyph-name="uni06440671.fina" horiz-adv-x="1462" 
d="M61 0v129h441v997h135v-997h133q144 0 213.5 67.5t69.5 219.5v1132h135v-1169q0 -250 274 -250q41 0 41 -66q0 -29 -10.5 -46t-30.5 -17q-248 0 -329 158q-104 -158 -349 -158h-723zM281 1280v72h102v202h72v-92q74 105 180 105q73 0 115.5 -47.5t42.5 -126.5
q0 -57 -19 -113h-493zM629 1495q-55 0 -103.5 -39.5t-76.5 -103.5h270q6 24 6 43q0 48 -26.5 74t-69.5 26z" />
    <glyph glyph-name="onesuperior" unicode="&#xb9;" horiz-adv-x="739" 
d="M350 1462h111v-870h-123v747l-168 -137l-59 78z" />
    <glyph glyph-name="twosuperior" unicode="&#xb2;" horiz-adv-x="739" 
d="M377 1475q128 0 206.5 -63t78.5 -163q0 -66 -38 -135t-159 -178l-260 -234h465v-110h-600v117l379 362q90 84 90 170q0 47 -48 85t-108 38q-63 0 -113 -32t-67 -83l-115 19q19 97 96 152t193 55z" />
    <glyph glyph-name="threesuperior" unicode="&#xb3;" horiz-adv-x="739" 
d="M371 1475q119 0 195.5 -63.5t76.5 -162.5q0 -68 -45.5 -123.5t-122.5 -78.5v-5q93 -19 144 -75.5t51 -137.5q0 -110 -85 -179.5t-216 -69.5q-220 0 -299 176l106 61q26 -67 74 -97t127 -30q62 0 116 46.5t54 94.5q0 72 -56.5 115t-173.5 43h-51v111h39q104 0 159.5 37
t55.5 100q0 55 -42.5 91t-104.5 36q-61 0 -98 -19.5t-78 -74.5l-97 67q53 73 118.5 105.5t152.5 32.5z" />
    <glyph glyph-name="fraction" unicode="&#x2044;" horiz-adv-x="344" 
d="M582 1516l104 -64l-922 -1518l-106 66z" />
    <glyph glyph-name="onehalf" unicode="&#xbd;" horiz-adv-x="1708" 
d="M1186 1516l104 -64l-921 -1518l-107 66zM319 1462h111v-870h-123v747l-168 -137l-59 78zM1335 883q128 0 206.5 -63t78.5 -163q0 -66 -38 -135t-159 -178l-260 -233h465v-111h-600v117l379 362q90 84 90 170q0 47 -48 85t-108 38q-63 0 -113 -32t-67 -83l-114 19
q19 97 95.5 152t192.5 55z" />
    <glyph glyph-name="onequarter" unicode="&#xbc;" horiz-adv-x="1708" 
d="M938 319l367 551h149v-567h123v-110h-123v-193h-123v193h-393v126zM313 0l924 1516l104 -64l-921 -1518zM190 1202l-59 78l240 182h110v-870h-123v747zM1049 303h282v445h-4z" />
    <glyph glyph-name="threequarters" unicode="&#xbe;" horiz-adv-x="1708" 
d="M979 319l367 551h149v-567h123v-110h-123v-193h-123v193h-393v126zM90 756l105 61q26 -67 73.5 -97t126.5 -30q63 0 116.5 45.5t53.5 95.5q0 72 -56 115t-173 43h-51v111h39q104 0 159.5 37t55.5 100q0 55 -42.5 91t-105.5 36q-61 0 -98 -19.5t-78 -74.5l-96 67
q52 75 117 106.5t153 31.5q121 0 197 -63t76 -163q0 -68 -45.5 -123.5t-122.5 -78.5v-5q95 -18 144.5 -75t49.5 -138q0 -110 -85 -179.5t-216 -69.5q-222 0 -297 176zM395 0l924 1516l104 -64l-921 -1518zM1368 748l-278 -445h282v445h-4z" />
    <glyph glyph-name="uni066B" unicode="&#x66b;" horiz-adv-x="503" 
d="M397 152l-166 -482h-137l137 482h166z" />
    <glyph glyph-name="uni066C" unicode="&#x66c;" horiz-adv-x="423" 
d="M317 264l-110 -332h-113l96 332h127z" />
    <glyph glyph-name="uni0660" unicode="&#x660;" horiz-adv-x="1105" 
d="M553 465l-139 139l139 133l137 -135z" />
    <glyph glyph-name="uni0661" unicode="&#x661;" horiz-adv-x="1105" 
d="M485 0v1337h136v-1337h-136z" />
    <glyph glyph-name="uni0662" unicode="&#x662;" horiz-adv-x="1105" 
d="M190 0v1337h136v-290q139 -66 270 -66q129 0 175.5 82t31.5 266l135 8q15 -248 -66 -364.5t-278 -116.5q-131 0 -268 62v-918h-136z" />
    <glyph glyph-name="uni0663" unicode="&#x663;" horiz-adv-x="1105" 
d="M88 1337h135v-299q78 -28 152 -28q94 0 129 75.5t20 241.5l135 10q15 -193 -30 -301q77 -26 141 -26q94 0 129.5 75.5t20.5 241.5l135 10q19 -221 -47.5 -334.5t-210.5 -113.5q-111 0 -236 51q-63 -51 -160 -51q-85 0 -178 33v-922h-135v1337z" />
    <glyph glyph-name="uni0664" unicode="&#x664;" horiz-adv-x="1105" 
d="M932 127l6 -123q-134 -16 -254 -16q-243 0 -372.5 78t-129.5 237q0 121 80 220t225 161q-102 38 -170.5 110.5t-68.5 174.5q0 177 151 274.5t422 97.5q22 0 49 -2v-125q-34 3 -67 3q-197 0 -306.5 -65t-109.5 -185q0 -96 87.5 -152.5t248.5 -56.5q51 0 113 6v-127
q-257 -22 -385.5 -110.5t-128.5 -200.5q0 -108 95.5 -158.5t287.5 -50.5q97 0 227 10z" />
    <glyph glyph-name="uni0665" unicode="&#x665;" horiz-adv-x="1105" 
d="M553 -16q-101 0 -178.5 28.5t-138.5 91.5t-93 174t-32 267q0 162 25 296.5t68 225t100 153t119.5 91t129.5 28.5t130 -28.5t120 -91t99.5 -153t67.5 -225t25 -296.5q0 -156 -32 -267t-93 -174t-138.5 -91.5t-178.5 -28.5zM553 115q303 0 303 434q0 303 -90 481t-213 178
t-213 -178t-90 -481q0 -220 78.5 -327t224.5 -107z" />
    <glyph glyph-name="uni0666" unicode="&#x666;" horiz-adv-x="1105" 
d="M737 0v1210h-639v127h774v-1337h-135z" />
    <glyph glyph-name="uni0667" unicode="&#x667;" horiz-adv-x="1105" 
d="M932 1350l143 -43l-446 -1307h-150l-450 1311l143 39l381 -1153z" />
    <glyph glyph-name="uni0668" unicode="&#x668;" horiz-adv-x="1105" 
d="M1075 25l-143 -41l-381 1153l-379 -1153l-143 43l446 1306h150z" />
    <glyph glyph-name="uni0669" unicode="&#x669;" horiz-adv-x="1105" 
d="M135 934q0 187 117.5 295t318.5 108h320v-1337h-135v573q-62 -6 -119 -6q-235 0 -368.5 92.5t-133.5 274.5zM274 934q0 -81 49 -136.5t129.5 -80.5t188.5 -25q57 0 115 6v512h-154q-155 0 -241.5 -72t-86.5 -204z" />
    <glyph glyph-name="uni06F0" unicode="&#x6f0;" horiz-adv-x="1105" 
d="M553 465l-139 139l139 133l137 -135z" />
    <glyph glyph-name="uni06F1" unicode="&#x6f1;" horiz-adv-x="1105" 
d="M485 0v1337h136v-1337h-136z" />
    <glyph glyph-name="uni06F2" unicode="&#x6f2;" horiz-adv-x="1105" 
d="M190 0v1337h136v-290q139 -66 270 -66q129 0 175.5 82t31.5 266l135 8q15 -248 -66 -364.5t-278 -116.5q-131 0 -268 62v-918h-136z" />
    <glyph glyph-name="uni06F3" unicode="&#x6f3;" horiz-adv-x="1105" 
d="M88 1337h135v-299q78 -28 152 -28q94 0 129 75.5t20 241.5l135 10q15 -193 -30 -301q77 -26 141 -26q94 0 129.5 75.5t20.5 241.5l135 10q19 -221 -47.5 -334.5t-210.5 -113.5q-111 0 -236 51q-63 -51 -160 -51q-85 0 -178 33v-922h-135v1337z" />
    <glyph glyph-name="uni06F4" unicode="&#x6f4;" horiz-adv-x="1105" 
d="M113 1337h135v-329q135 -46 284 -60q-30 74 -30 154q0 123 69 186.5t203 63.5q96 0 182 -25l-30 -123q-71 23 -142 23q-159 0 -159 -154q0 -69 28 -133h13q189 0 360 33l16 -121q-182 -37 -380 -37q-223 0 -414 66v-881h-135v1337z" />
    <glyph glyph-name="uni06F5" unicode="&#x6f5;" horiz-adv-x="1105" 
d="M395 -12q-136 0 -215.5 127.5t-79.5 402.5q0 161 29 299t76.5 232t108 161t123 98t122.5 31q64 0 126 -29t120.5 -94t103 -158.5t71 -233t26.5 -306.5q0 -257 -75.5 -393.5t-195.5 -136.5q-94 0 -178 80q-80 -80 -162 -80zM414 117q26 0 53 13t51.5 29.5t36.5 20.5
q10 -3 34 -20t53.5 -30t62.5 -13q70 0 115.5 107t45.5 298q0 313 -94 500.5t-213 187.5q-56 0 -112 -49t-102.5 -135.5t-75.5 -218.5t-29 -283q0 -204 50.5 -305.5t123.5 -101.5z" />
    <glyph glyph-name="uni06F6" unicode="&#x6f6;" horiz-adv-x="1105" 
d="M879 891l106 -90l-717 -842l-106 90l485 569q-198 23 -310 115t-112 236q0 171 146 271.5t424 100.5q22 0 53 -2v-125q-35 3 -66 3q-206 0 -311.5 -67t-105.5 -183q0 -100 101 -159.5t284 -68.5z" />
    <glyph glyph-name="uni06F7" unicode="&#x6f7;" horiz-adv-x="1105" 
d="M932 1350l143 -43l-446 -1307h-150l-450 1311l143 39l381 -1153z" />
    <glyph glyph-name="uni06F8" unicode="&#x6f8;" horiz-adv-x="1105" 
d="M1075 25l-143 -41l-381 1153l-379 -1153l-143 43l446 1306h150z" />
    <glyph glyph-name="uni06F9" unicode="&#x6f9;" horiz-adv-x="1105" 
d="M135 934q0 187 117.5 295t318.5 108h320v-1337h-135v573q-62 -6 -119 -6q-235 0 -368.5 92.5t-133.5 274.5zM274 934q0 -81 49 -136.5t129.5 -80.5t188.5 -25q57 0 115 6v512h-154q-155 0 -241.5 -72t-86.5 -204z" />
    <glyph glyph-name="uni0660.lf" horiz-adv-x="481" 
d="M242 465l-140 139l140 133l137 -135z" />
    <glyph glyph-name="uni0661.lf" horiz-adv-x="585" 
d="M225 0v1337h135v-1337h-135z" />
    <glyph glyph-name="uni0662.lf" horiz-adv-x="1067" 
d="M225 0v1337h135v-290q139 -66 271 -66q129 0 175.5 82t31.5 266l135 8q15 -248 -66 -364.5t-278 -116.5q-132 0 -269 62v-918h-135z" />
    <glyph glyph-name="uni0663.lf" horiz-adv-x="1288" 
d="M225 1337h135v-299q78 -28 152 -28q94 0 129.5 75.5t20.5 241.5l135 10q15 -191 -31 -301q77 -26 141 -26q94 0 129.5 75.5t20.5 241.5l135 10q19 -221 -47.5 -334.5t-210.5 -113.5q-111 0 -236 51q-63 -51 -159 -51q-85 0 -179 33v-922h-135v1337z" />
    <glyph glyph-name="uni0664.lf" horiz-adv-x="1032" 
d="M903 127l6 -123q-134 -16 -254 -16q-243 0 -372 77.5t-129 237.5q0 121 80 220t225 161q-102 39 -171 111t-69 174q0 177 151.5 274.5t422.5 97.5q22 0 49 -2v-125q-35 3 -68 3q-197 0 -306.5 -65t-109.5 -185q0 -96 87.5 -152.5t248.5 -56.5q52 0 113 6v-127
q-257 -22 -385.5 -110.5t-128.5 -200.5q0 -108 95.5 -158.5t287.5 -50.5q97 0 227 10z" />
    <glyph glyph-name="uni0665.lf" horiz-adv-x="1212" 
d="M606 -16q-101 0 -178.5 28.5t-138.5 91.5t-93 174t-32 267q0 162 25 296.5t68 225t100 153t119.5 91t129.5 28.5t130 -28.5t120.5 -91t100 -153t67.5 -225t25 -296.5q0 -125 -21.5 -221.5t-59.5 -160t-94.5 -104.5t-122 -58t-145.5 -17zM606 115q303 0 303 434
q0 303 -90 481t-213 178t-213 -178t-90 -481q0 -220 78.5 -327t224.5 -107z" />
    <glyph glyph-name="uni0666.lf" horiz-adv-x="1071" 
d="M711 0v1210h-639v127h774v-1337h-135z" />
    <glyph glyph-name="uni0667.lf" horiz-adv-x="1230" 
d="M995 1350l144 -43l-447 -1307h-149l-451 1311l144 39l380 -1153z" />
    <glyph glyph-name="uni0668.lf" horiz-adv-x="1230" 
d="M1139 25l-144 -41l-381 1153l-378 -1153l-144 43l447 1306h149z" />
    <glyph glyph-name="uni0669.lf" horiz-adv-x="1114" 
d="M133 934q0 187 117.5 295t318.5 108h320v-1337h-135v573q-62 -6 -119 -6q-235 0 -368.5 92.5t-133.5 274.5zM272 934q0 -81 49 -136.5t129.5 -80.5t188.5 -25q57 0 115 6v512h-154q-155 0 -241.5 -72t-86.5 -204z" />
    <glyph glyph-name="uni06F0.lf" horiz-adv-x="481" 
d="M242 465l-140 139l140 133l137 -135z" />
    <glyph glyph-name="uni06F1.lf" horiz-adv-x="585" 
d="M225 0v1337h135v-1337h-135z" />
    <glyph glyph-name="uni06F2.lf" horiz-adv-x="1067" 
d="M225 0v1337h135v-290q139 -66 271 -66q129 0 175.5 82t31.5 266l135 8q15 -248 -66 -364.5t-278 -116.5q-132 0 -269 62v-918h-135z" />
    <glyph glyph-name="uni06F3.lf" horiz-adv-x="1288" 
d="M225 1337h135v-299q78 -28 152 -28q94 0 129.5 75.5t20.5 241.5l135 10q15 -191 -31 -301q77 -26 141 -26q94 0 129.5 75.5t20.5 241.5l135 10q19 -221 -47.5 -334.5t-210.5 -113.5q-111 0 -236 51q-63 -51 -159 -51q-85 0 -179 33v-922h-135v1337z" />
    <glyph glyph-name="uni06F4.lf" horiz-adv-x="1247" 
d="M225 1337h135v-329q135 -46 285 -60q-31 76 -31 154q0 123 69.5 186.5t203.5 63.5q96 0 182 -25l-31 -123q-71 23 -141 23q-160 0 -160 -154q0 -67 29 -133h12q190 0 361 33l16 -121q-182 -37 -381 -37q-223 0 -414 66v-881h-135v1337z" />
    <glyph glyph-name="uni06F5.lf" horiz-adv-x="1232" 
d="M459 -12q-136 0 -215.5 127.5t-79.5 402.5q0 161 29 299t76.5 232t108 161t123 98t122.5 31q64 0 126 -29t120.5 -94t102.5 -158.5t70.5 -233t26.5 -306.5q0 -257 -75 -393.5t-195 -136.5q-94 0 -178 80q-80 -80 -162 -80zM477 117q26 0 53 13t51.5 29.5t36.5 20.5
q10 -3 34 -20t53.5 -30t62.5 -13q70 0 116 107t46 298q0 313 -94 500.5t-213 187.5q-56 0 -112.5 -49t-103 -135.5t-75.5 -218.5t-29 -283q0 -204 50.5 -305.5t123.5 -101.5z" />
    <glyph glyph-name="uni06F6.lf" horiz-adv-x="1026" 
d="M823 891l107 -90l-717 -842l-107 90l486 569q-198 23 -310 115t-112 236q0 171 145.5 271.5t423.5 100.5q23 0 54 -2v-125q-34 3 -66 3q-207 0 -312.5 -67t-105.5 -183q0 -100 101 -159.5t284 -68.5z" />
    <glyph glyph-name="uni06F7.lf" horiz-adv-x="1230" 
d="M995 1350l144 -43l-447 -1307h-149l-451 1311l144 39l380 -1153z" />
    <glyph glyph-name="uni06F8.lf" horiz-adv-x="1230" 
d="M1139 25l-144 -41l-381 1153l-378 -1153l-144 43l447 1306h149z" />
    <glyph glyph-name="uni06F9.lf" horiz-adv-x="1114" 
d="M133 934q0 187 117.5 295t318.5 108h320v-1337h-135v573q-62 -6 -119 -6q-235 0 -368.5 92.5t-133.5 274.5zM272 934q0 -81 49 -136.5t129.5 -80.5t188.5 -25q57 0 115 6v512h-154q-155 0 -241.5 -72t-86.5 -204z" />
    <glyph glyph-name="uni06F4.urdu" horiz-adv-x="1105" 
d="M715 965q-41 117 -93.5 180t-123.5 63q-63 0 -99.5 -51.5t-36.5 -146.5v-1010h-135v1008q0 167 71.5 254.5t188.5 87.5q173 0 291 -238q61 85 199 217l90 -92q-135 -123 -246 -272h-106z" />
    <glyph glyph-name="uni06F7.urdu" horiz-adv-x="1105" 
d="M217 0l-84 129l576 1206l133 -59l-553 -1147h682v-129h-754z" />
    <glyph glyph-name="uni06F4.urdu.lf" horiz-adv-x="1024" 
d="M672 965q-41 117 -93.5 180t-123.5 63q-63 0 -99.5 -51.5t-36.5 -146.5v-1010h-135v1008q0 167 71.5 254.5t188.5 87.5q173 0 291 -238q61 85 199 217l90 -92q-135 -123 -246 -272h-106z" />
    <glyph glyph-name="uni06F7.urdu.lf" horiz-adv-x="980" 
d="M166 0l-84 129l575 1206l134 -59l-553 -1147h682v-129h-754z" />
    <glyph glyph-name="ellipsis" unicode="&#x2026;" 
d="M342 209q47 0 79 -33t32 -78t-32 -77.5t-79 -32.5q-48 0 -79.5 32.5t-31.5 77.5t32 78t79 33zM1024 209q47 0 79 -33t32 -78t-32 -77.5t-79 -32.5q-48 0 -79.5 32.5t-31.5 77.5t32 78t79 33zM1706 209q47 0 79 -33t32 -78t-32 -77.5t-79 -32.5q-48 0 -79.5 32.5
t-31.5 77.5t32 78t79 33z" />
    <glyph glyph-name="exclamdown" unicode="&#xa1;" horiz-adv-x="569" 
d="M285 995q47 0 78.5 -32.5t31.5 -77.5t-32 -78t-78 -33q-47 0 -79 33t-32 78t32 77.5t79 32.5zM358 590v-1057h-147v1057h147z" />
    <glyph glyph-name="questiondown" unicode="&#xbf;" horiz-adv-x="987" 
d="M483 995q48 0 79.5 -32.5t31.5 -77.5t-32 -78t-79 -33q-46 0 -78 33t-32 78t31.5 77.5t78.5 32.5zM569 590v-172q0 -60 -38.5 -120.5t-122.5 -135.5q-87 -79 -128.5 -144t-41.5 -139q0 -103 67 -169t172 -66q100 0 170 59.5t90 163.5l154 -19q-24 -158 -137 -249
t-275 -91q-174 0 -281.5 97.5t-107.5 261.5q0 105 39.5 179.5t144.5 164.5q93 79 120.5 138t27.5 140v101h147z" />
    <glyph glyph-name="periodcentered" unicode="&#xb7;" horiz-adv-x="569" 
d="M285 754q46 0 78 -33t32 -78t-32 -78t-78 -33q-47 0 -79 33t-32 78t32 78t79 33z" />
    <glyph glyph-name="bullet" unicode="&#x2022;" horiz-adv-x="1024" 
d="M512 1087q149 0 255.5 -106.5t106.5 -255.5t-106.5 -256t-255.5 -107t-255.5 107t-106.5 256t106.5 255.5t255.5 106.5z" />
    <glyph glyph-name="uni00AD" unicode="&#xad;" horiz-adv-x="681" 
d="M604 559v-135h-526v135h526z" />
    <glyph glyph-name="endash" unicode="&#x2013;" horiz-adv-x="1024" 
d="M1024 559v-135h-1024v135h1024z" />
    <glyph glyph-name="emdash" unicode="&#x2014;" 
d="M2048 559v-135h-2048v135h2048z" />
    <glyph glyph-name="uni2011" unicode="&#x2011;" horiz-adv-x="681" 
d="M604 559v-135h-526v135h526z" />
    <glyph glyph-name="quotesinglbase" unicode="&#x201a;" horiz-adv-x="532" 
d="M418 195l-166 -482h-137l137 482h166z" />
    <glyph glyph-name="quotedblbase" unicode="&#x201e;" horiz-adv-x="1062" 
d="M702 -287h-137l137 482h166zM332 -287h-137l137 482h166z" />
    <glyph glyph-name="quotedblleft" unicode="&#x201c;" horiz-adv-x="1062" 
d="M731 969h-166l166 481h137zM360 969h-165l165 481h138z" />
    <glyph glyph-name="quotedblright" unicode="&#x201d;" horiz-adv-x="1062" 
d="M702 969h-137l137 481h166zM332 969h-137l137 481h166z" />
    <glyph glyph-name="quoteleft" unicode="&#x2018;" horiz-adv-x="532" 
d="M418 1450l-137 -481h-166l166 481h137z" />
    <glyph glyph-name="quoteright" unicode="&#x2019;" horiz-adv-x="532" 
d="M418 1450l-166 -481h-137l137 481h166z" />
    <glyph glyph-name="guillemotleft" unicode="&#xab;" horiz-adv-x="987" 
d="M393 920l96 -68l-235 -360l235 -361l-96 -68l-287 429zM766 920l96 -68l-235 -360l235 -361l-96 -68l-287 429z" />
    <glyph glyph-name="guillemotright" unicode="&#xbb;" horiz-adv-x="987" 
d="M221 920l287 -428l-287 -429l-96 68l235 361l-235 360zM594 920l287 -428l-287 -429l-96 68l235 361l-235 360z" />
    <glyph glyph-name="guilsinglleft" unicode="&#x2039;" horiz-adv-x="645" 
d="M408 920l96 -68l-236 -360l236 -361l-96 -68l-287 429z" />
    <glyph glyph-name="guilsinglright" unicode="&#x203a;" horiz-adv-x="645" 
d="M238 920l286 -428l-286 -429l-97 68l236 361l-236 360z" />
    <glyph glyph-name="uni06D4" unicode="&#x6d4;" horiz-adv-x="710" 
d="M113 199q76 -70 219 -70h317v-129h-317q-173 0 -271 90z" />
    <glyph glyph-name="uni060C" unicode="&#x60c;" horiz-adv-x="569" 
d="M143 0l166 481h137l-137 -481h-166z" />
    <glyph glyph-name="uni061B" unicode="&#x61b;" horiz-adv-x="569" 
d="M174 393l166 481h137l-137 -481h-166zM246 -12q-48 0 -79.5 33t-31.5 77t31.5 77.5t79.5 33.5t79 -33.5t31 -77.5t-31 -77t-79 -33z" />
    <glyph glyph-name="uni061F" unicode="&#x61f;" horiz-adv-x="987" 
d="M428 393v105q0 92 -43.5 159t-122.5 131q-166 134 -166 328q0 167 108 263t281 96q164 0 276 -90.5t136 -249.5l-154 -19q-19 101 -88 162t-172 61q-106 0 -172.5 -65.5t-66.5 -169.5q0 -137 164 -277q75 -66 121 -130t46 -134v-170h-147zM489 -12q-48 0 -79 33t-31 77
t31 77.5t79 33.5t79.5 -33.5t31.5 -77.5t-31.5 -77t-79.5 -33z" />
    <glyph glyph-name="uni066D" unicode="&#x66d;" horiz-adv-x="1724" 
d="M416 -201l-49 41l231 545l-514 307l16 76l613 -76l129 590h61l121 -590l612 76l23 -76l-535 -305l250 -547l-55 -41l-447 406z" />
    <glyph glyph-name="uniFD3E" unicode="&#xfd3e;" horiz-adv-x="1048" 
d="M182 604q-121 59 -121 101q0 39 121 98v112q0 41 29 41q5 0 29 -18l147 -131q20 -14 29 -14q24 0 24 18q0 22 -16 35l-117 162q-11 17 -5.5 32t22.5 15h6l139 -23q22 82 90 187t144.5 188t147 141t99.5 58q17 0 17.5 -11t-13.5 -26q-128 -153 -203.5 -270t-99.5 -224
q-4 -13 -8 -47l98 12q2 0 7.5 1t7.5 1q21 0 24.5 -11.5t-10.5 -26.5l-129 -152q-23 -27 -23 -35q0 -14 21 -14h12q1 1 7.5 2.5t9.5 3.5l151 111q22 16 37 16q14 0 14 -21v-112q46 -16 84.5 -42t38.5 -56q0 -31 -38.5 -58t-84.5 -43v-115q0 -20 -14 -20q-15 0 -37 16
l-151 113q-3 2 -9.5 3.5t-7.5 2.5h-12q-21 0 -21 -16q0 -2 23 -37l129 -148q14 -15 10.5 -26.5t-24.5 -11.5q-2 0 -7.5 1t-7.5 1l-90 12h-8q35 -264 311 -541q10 -9 13 -17.5t-1.5 -14t-15.5 -5.5q-29 0 -99.5 58t-147 141t-144.5 188t-90 187l-139 -23h-6q-17 0 -23 15
t6 32l117 162q16 13 16 35q0 16 -24 16q-15 0 -29 -14l-147 -131q-16 -16 -29 -16q-29 0 -29 38v115zM498 975l-125 31l96 -140v56h45l41 65v-65h37v-54l129 131l-137 -26q10 80 67 215v86q-50 -52 -92 -137.5t-61 -161.5zM469 539l-96 -138l125 29q20 -75 61.5 -161.5
t91.5 -137.5v88q-57 132 -67 213l137 -26l-129 133v-58h-37v-63l-41 63h-45v58zM434 705q0 -41 35 -76q29 -25 61 -25q43 0 71 29t28 72q0 41 -29 69.5t-70 28.5q-38 0 -67 -30t-29 -68zM684 643l143 -108v106q117 32 117 64q0 19 -41 36.5t-76 24.5v106l-143 -108h82v-37
q35 -3 61 -25q-27 -19 -61 -22v-37h-82zM182 748q-69 -25 -69 -43q0 -13 42.5 -33.5t73.5 -30.5v-109l148 115h-90v35q-40 10 -58 23q16 10 58 20v33h90l-148 116v-108q-23 -8 -47 -18z" />
    <glyph glyph-name="uniFD3F" unicode="&#xfd3f;" horiz-adv-x="1048" 
d="M61 705q0 30 38.5 56t84.5 42v112q0 21 15 21t37 -16l151 -111q3 -2 9 -3.5t7 -2.5h13q20 0 20 14q0 9 -22 35l-129 152q-14 15 -10.5 26.5t24.5 11.5q2 0 7 -1t7 -1l99 -12q-3 28 -9 47q-24 107 -99.5 224t-203.5 270q-14 15 -13.5 26t17.5 11q40 0 143 -93t207 -233
t132 -248l139 23h6q17 0 22.5 -15t-5.5 -32l-117 -162q-17 -14 -17 -35q0 -18 25 -18q9 0 29 14l147 131q24 18 29 18q28 0 28 -41v-112q121 -59 121 -98q0 -42 -121 -101v-115q0 -38 -28 -38q-13 0 -29 16l-147 131q-14 14 -29 14q-25 0 -25 -16q0 -21 17 -35l117 -162
q12 -17 6 -32t-23 -15h-6l-139 23q-28 -108 -132 -248t-207 -233t-143 -93q-11 0 -15.5 5.5t-1.5 14t13 17.5q278 278 312 541h-9l-90 -12q-2 0 -7 -1t-7 -1q-21 0 -24.5 11.5t10.5 26.5l129 148q22 33 22 37q0 16 -20 16h-13q-1 -1 -7 -2.5t-9 -3.5l-151 -113
q-22 -16 -37 -16t-15 20v115q-46 16 -84.5 43t-38.5 58zM334 999l129 -131v54h37v65l41 -65h45v-56l96 140l-125 -31q-19 75 -61.5 161t-92.5 138v-86q59 -139 68 -215zM471 432q-9 -78 -68 -213v-88q50 51 92 137.5t62 161.5l125 -29l-96 138v-58h-45l-41 -63v63h-37v58
l-129 -133zM426 705q0 -43 28 -72t70 -29q33 0 62 25q35 35 35 76q0 38 -29.5 68t-67.5 30q-41 0 -69.5 -28.5t-28.5 -69.5zM227 641v-106l144 108h-82v37q-38 3 -62 27q31 17 62 20v37h82l-144 108v-106q-34 -7 -75 -24.5t-41 -36.5q0 -32 116 -64zM678 758h90v-33
q41 -10 57 -20q-18 -14 -57 -23v-35h-90l147 -115v109q31 10 74 30.5t43 33.5q0 18 -70 43q-24 10 -47 18v108z" />
    <glyph glyph-name="uni2003" unicode="&#x2003;" horiz-adv-x="2340" 
 />
    <glyph glyph-name="uni2002" unicode="&#x2002;" horiz-adv-x="1171" 
 />
    <glyph glyph-name="uni200A" unicode="&#x200a;" horiz-adv-x="47" 
 />
    <glyph glyph-name="uni00A0" unicode="&#xa0;" horiz-adv-x="569" 
 />
    <glyph glyph-name="uni2009" unicode="&#x2009;" horiz-adv-x="233" 
 />
    <glyph glyph-name="uni200E" unicode="&#x200e;" 
d="M61 1839l-38 41l96 96h-295v54h295l-96 92l38 41l162 -162z" />
    <glyph glyph-name="uni200F" unicode="&#x200f;" 
d="M-61 1841l-162 160l162 162l38 -37l-96 -96h297v-54h-295l94 -96z" />
    <glyph glyph-name="uni200D" unicode="&#x200d;" 
d="M-231 2030h464v-162h-53v108h-358v-108h-53v162z" />
    <glyph glyph-name="uni200C" unicode="&#x200c;" 
d="M-160 2122l37 41l123 -125l121 123l37 -39l-119 -121l119 -121l-37 -39l-121 121l-123 -123l-37 41l121 121z" />
    <glyph glyph-name="uni202A" unicode="&#x202a;" 
d="M119 1976h-117v54h117l-96 92l38 41l162 -162l-162 -162l-38 41zM-66 1976h-133v54h133v-54z" />
    <glyph glyph-name="uni202D" unicode="&#x202d;" 
d="M-49 1839l-37 41l96 96h-252v54h250l-94 92l37 41l162 -162zM102 1839l-36 41l124 121l-124 121l36 41l162 -162z" />
    <glyph glyph-name="uni202C" unicode="&#x202c;" 
d="M-29 1837v238l-92 -95l-39 39l160 160l160 -160l-39 -39l-94 95v-238h-56z" />
    <glyph glyph-name="uni202B" unicode="&#x202b;" 
d="M-223 2001l162 162l38 -37l-96 -96h117v-54h-115l94 -96l-38 -39zM66 1976v54h133v-54h-133z" />
    <glyph glyph-name="uni202E" unicode="&#x202e;" 
d="M-102 1896l-162 162l162 162l36 -39l-122 -123l122 -123zM49 1896l-160 162l160 162l39 -39l-96 -98h252v-51h-252l96 -97z" />
    <glyph glyph-name="cent" unicode="&#xa2;" horiz-adv-x="1138" 
d="M160 479q0 201 116.5 339t313.5 159v129h98v-125q202 -10 330 -164l-111 -84q-32 52 -90 86.5t-129 38.5v-758q71 4 128 38.5t91 86.5l111 -84q-131 -154 -330 -164v-124h-98v129q-197 22 -313.5 158.5t-116.5 338.5zM590 854q-133 -26 -208 -128t-75 -247
q0 -144 77 -247t206 -128v750z" />
    <glyph glyph-name="currency" unicode="&#xa4;" horiz-adv-x="1138" 
d="M154 1235l108 -109q140 109 307 109q168 0 308 -109l108 109l90 -90l-108 -109q108 -135 108 -307q0 -180 -108 -315l108 -109l-90 -90l-108 109q-140 -109 -308 -109t-307 109l-108 -109l-91 90l109 109q-109 138 -109 303q0 181 109 319l-109 109zM199 725
q0 -158 107.5 -272.5t264.5 -114.5q153 0 261 113t108 274q0 162 -108.5 274.5t-262.5 112.5q-153 0 -261.5 -113t-108.5 -274z" />
    <glyph glyph-name="Euro" unicode="&#x20ac;" horiz-adv-x="1138" 
d="M47 477l41 113h100q-4 101 -4 135q0 79 6 133h-141l41 115h117q49 244 188 373t350 129q74 0 163 -22.5t153 -59.5l-43 -127q-112 80 -275 80q-307 0 -381 -373h580l-35 -115h-563q0 -9 -3 -67.5t-3 -88.5q0 -18 4 -112h492l-37 -113h-443q31 -188 119.5 -283.5
t228.5 -95.5q76 0 145 35t111 96l97 -69q-55 -87 -154 -136t-217 -49q-201 0 -323.5 128t-159.5 374h-154z" />
    <glyph glyph-name="florin" unicode="&#x192;" horiz-adv-x="1138" 
d="M170 -285q-101 0 -170 49l66 99q52 -25 106 -25q71 0 111.5 46t64.5 173l129 691h-221v110h244l55 297q31 164 107 242t204 78q107 0 195 -60l-70 -98q-68 35 -117 35q-144 0 -182 -222l-47 -272h221v-110h-243l-138 -721q-58 -312 -315 -312z" />
    <glyph glyph-name="uni20BA" unicode="&#x20ba;" horiz-adv-x="1138" 
d="M39 1024l197 82v344h143v-285l414 185v-117l-410 -182v-213l410 184v-117l-410 -184v-598q36 -4 66 -4q223 0 346 163t123 480h147q0 -379 -164 -578.5t-459 -199.5q-57 0 -124 5.5t-82 10.5v659l-197 -81v116l197 82v213l-197 -82v117z" />
    <glyph glyph-name="uni20B9" unicode="&#x20b9;" horiz-adv-x="1138" 
d="M199 713v92h102q358 0 397 215h-499v110h499q-32 205 -340 205h-159v115h866v-111h-336q103 -77 117 -209h219v-110h-219q-23 -154 -136.5 -242t-324.5 -88l471 -690h-174z" />
    <glyph glyph-name="sterling" unicode="&#xa3;" horiz-adv-x="1138" 
d="M172 0v123h209v563h-197v123h197v180q0 236 109 361t323 125q203 0 320 -123l-97 -105q-95 105 -227 105q-138 0 -209.5 -95t-71.5 -274v-174h344v-123h-344v-563h519v-123h-875z" />
    <glyph glyph-name="yen" unicode="&#xa5;" horiz-adv-x="1138" 
d="M-4 1450h174l399 -696l400 696h174l-418 -700h252v-111h-320l-14 -25v-157h334v-111h-334v-346h-147v346h-334v111h334v157l-15 25h-319v111h254z" />
    <glyph glyph-name="uni2219" unicode="&#x2219;" horiz-adv-x="569" 
d="M285 754q46 0 78 -33t32 -78t-32 -78t-78 -33q-47 0 -79 33t-32 78t32 78t79 33z" />
    <glyph glyph-name="uni2215" unicode="&#x2215;" horiz-adv-x="344" 
d="M582 1516l104 -64l-922 -1518l-106 66z" />
    <glyph glyph-name="minus" unicode="&#x2212;" horiz-adv-x="1363" 
d="M1204 682v-123h-1044v123h1044z" />
    <glyph glyph-name="multiply" unicode="&#xd7;" horiz-adv-x="1363" 
d="M1006 1034l88 -86l-326 -327l326 -326l-88 -88l-324 325l-326 -325l-86 88l326 326l-326 327l86 86l326 -325z" />
    <glyph glyph-name="divide" unicode="&#xf7;" horiz-adv-x="1363" 
d="M682 1063q47 0 79 -33t32 -78t-32 -77.5t-79 -32.5q-48 0 -79.5 32.5t-31.5 77.5t32 78t79 33zM1204 682v-123h-1044v123h1044zM682 399q48 0 79.5 -32.5t31.5 -77.5t-32 -78t-79 -33t-79 33t-32 78t32 77.5t79 32.5z" />
    <glyph glyph-name="notequal" unicode="&#x2260;" horiz-adv-x="1363" 
d="M168 246v123h371l139 266h-510v123h577l158 301l107 -58l-129 -243h315v-123h-381l-141 -266h522v-123h-588l-155 -295l-107 55l127 240h-305z" />
    <glyph glyph-name="greaterequal" unicode="&#x2265;" horiz-adv-x="1363" 
d="M168 354l860 318l-860 321v133l1028 -387v-133l-1028 -385v133zM1196 12h-1028v121h1028v-121z" />
    <glyph glyph-name="lessequal" unicode="&#x2264;" horiz-adv-x="1363" 
d="M168 606v133l1028 387v-133l-858 -321l858 -318v-133zM168 12v121h1028v-121h-1028z" />
    <glyph glyph-name="plusminus" unicode="&#xb1;" horiz-adv-x="1363" 
d="M621 711h-461v123h461v319h122v-319h461v-123h-461v-310h-122v310zM160 98v123h1044v-123h-1044z" />
    <glyph glyph-name="approxequal" unicode="&#x2248;" horiz-adv-x="1363" 
d="M1221 823q-17 -133 -83 -206.5t-169 -73.5q-59 0 -141 23.5t-150.5 51t-147.5 51t-131 23.5q-60 0 -104 -44.5t-57 -119.5h-93q17 135 84 210t170 75q62 0 144.5 -23.5t149 -51t145 -51t133.5 -23.5q127 0 162 159h88zM1221 475q-17 -132 -84 -207t-170 -75
q-58 0 -140.5 23.5t-152 51t-147.5 51t-128 23.5q-60 0 -104 -44.5t-57 -119.5h-93q48 287 252 287q67 0 150 -23.5t148 -51.5t142 -51.5t134 -23.5q122 0 159 160h91z" />
    <glyph glyph-name="logicalnot" unicode="&#xac;" horiz-adv-x="1363" 
d="M1204 836v-570h-123v447h-921v123h1044z" />
    <glyph glyph-name="infinity" unicode="&#x221e;" horiz-adv-x="1517" 
d="M1434 516q0 -131 -81.5 -217t-205.5 -86q-91 0 -181 50.5t-206 168.5q-14 -12 -57.5 -49.5t-62.5 -53t-58.5 -43.5t-67 -40t-66.5 -22.5t-77 -10.5q-126 0 -206.5 84t-80.5 213q0 128 78 215.5t205 87.5q99 0 182 -54t211 -175q119 114 155 142q107 85 216 89h12
q127 0 209 -84t82 -215zM838 508q103 -96 175.5 -136t139.5 -40q75 0 119.5 49t44.5 129q0 86 -46 137t-124 51q-19 0 -39 -4.5t-35 -9t-37.5 -18.5t-34.5 -21.5t-38.5 -29.5t-37 -30.5t-43.5 -37.5t-44 -39zM373 332q119 0 309 178q-110 99 -183 142.5t-134 43.5
q-71 0 -117.5 -52.5t-46.5 -131.5q0 -82 47 -131t125 -49z" />
    <glyph glyph-name="integral" unicode="&#x222b;" horiz-adv-x="1112" 
d="M686 1610q63 0 104 -28.5t41 -74.5q0 -34 -20.5 -51.5t-54.5 -17.5q-24 0 -42 13t-25.5 28t-18 28t-21.5 13q-18 0 -33 -18t-28 -79t-13 -161q0 -19 2.5 -63.5t2.5 -65.5v-1084q0 -85 -5.5 -150.5t-21.5 -131t-42.5 -108t-72 -69t-106.5 -26.5q-56 0 -90.5 26t-34.5 70
q0 29 19 47.5t48 18.5q24 0 40.5 -12t24 -27t17.5 -27t21 -12q65 0 65 286q0 21 1 51.5t1 55.5v1003q0 13 -1 69.5t-1 94.5q0 95 13.5 167t35.5 116t54.5 71.5t66 37.5t74.5 10z" />
    <glyph glyph-name="Omega" unicode="&#x2126;" horiz-adv-x="1523" 
d="M96 119h404v168q-186 50 -295 208.5t-109 356.5q0 132 53 249t142.5 199t209.5 129.5t251 47.5q130 0 249.5 -48t207.5 -129.5t141 -198t53 -247.5q0 -202 -107.5 -359.5t-296.5 -207.5v-168h404v-119h-514v371q178 32 277.5 159t99.5 320q0 142 -69.5 257.5t-187.5 180
t-259 64.5t-259.5 -65t-188 -180.5t-69.5 -256.5q0 -191 99.5 -320t277.5 -159v-371h-514v119z" />
    <glyph glyph-name="Delta" unicode="&#x2206;" horiz-adv-x="1372" 
d="M758 1458l588 -1458h-1315l575 1458h152zM217 127h932l-469 1194z" />
    <glyph glyph-name="product" unicode="&#x220f;" horiz-adv-x="1456" 
d="M145 -438v2048h1168v-2048h-135v1921h-897v-1921h-136z" />
    <glyph glyph-name="summation" unicode="&#x2211;" horiz-adv-x="1236" 
d="M1159 1610v-127h-905l633 -891l-672 -905h969v-125h-1133v112l674 918l-645 903v115h1079z" />
    <glyph glyph-name="radical" unicode="&#x221a;" horiz-adv-x="1009" 
d="M1028 1610l-430 -2048h-135l-336 696l-94 -45l-49 102l204 99l324 -676l387 1872h129z" />
    <glyph glyph-name="mu" unicode="&#xb5;" horiz-adv-x="1138" 
d="M147 -467v1425h136v-540q0 -173 58 -246.5t202 -73.5q132 0 211.5 101.5t79.5 259.5v499h135v-759q0 -111 10 -199h-145v156h-5q-51 -79 -141 -130t-180 -51q-137 0 -225 60v-502h-136z" />
    <glyph glyph-name="partialdiff" unicode="&#x2202;" horiz-adv-x="1015" 
d="M430 1477q110 0 197.5 -43.5t143.5 -114.5t93 -168t52.5 -198.5t15.5 -211.5q0 -367 -118.5 -566.5t-342.5 -199.5q-123 0 -217.5 64.5t-142.5 168.5t-48 226q0 186 108.5 311t289.5 125q98 0 187 -46t153 -126q0 10 1 49t1 62q0 153 -40.5 276.5t-125 201t-201.5 77.5
q-60 0 -111 -21.5t-118 -72.5l-74 88q54 52 133 85.5t164 33.5zM193 430q0 -89 31 -166t96.5 -128.5t152.5 -51.5q134 0 217.5 126.5t100.5 358.5q-68 91 -151 139t-169 48q-124 0 -201 -91.5t-77 -234.5z" />
    <glyph glyph-name="perthousand" unicode="&#x2030;" 
d="M1073 1513l105 -55l-922 -1521l-106 55zM365 1475q128 0 220.5 -94.5t92.5 -221.5q0 -129 -93 -222t-220 -93q-126 0 -220 92.5t-94 222.5q0 128 92 222t222 94zM162 1159q0 -83 60 -144t143 -61q84 0 143 60t59 145q0 83 -58.5 144t-143.5 61t-144 -60t-59 -145z
M967 606q128 0 220.5 -93t92.5 -222q0 -128 -91.5 -222t-221.5 -94q-128 0 -221 94t-93 222t93.5 221.5t220.5 93.5zM1683 606q128 0 221 -93t93 -222q0 -125 -92 -220.5t-222 -95.5q-127 0 -220 95.5t-93 220.5q0 129 93 222t220 93zM764 291q0 -82 60 -143.5t143 -61.5
q85 0 143.5 61t58.5 144q0 85 -59 145t-143 60q-81 0 -142 -60t-61 -145zM1481 291q0 -83 58.5 -144t143.5 -61q83 0 143 61.5t60 143.5q0 85 -60 145t-145 60q-78 0 -139 -60.5t-61 -144.5z" />
    <glyph glyph-name="uni25CC" unicode="&#x25cc;" horiz-adv-x="942" 
d="M471 700q-55 0 -55 58q0 55 55 55t55 -55q0 -58 -55 -58zM293 655q-53 0 -53 60q0 53 53 53q59 0 59 -53q0 -60 -59 -60zM647 655q-59 0 -59 60q0 53 59 53q53 0 53 -53q0 -60 -53 -60zM164 526q-53 0 -53 58q0 55 53 55q57 0 57 -55q0 -58 -57 -58zM776 526
q-55 0 -55 58q0 55 55 55t55 -55q0 -58 -55 -58zM119 352q-53 0 -53 56q0 55 53 55q57 0 57 -55q0 -56 -57 -56zM821 352q-55 0 -55 56q0 55 55 55q56 0 56 -55q0 -56 -56 -56zM164 176q-53 0 -53 55q0 56 53 56q57 0 57 -56q0 -55 -57 -55zM776 176q-55 0 -55 55
q0 56 55 56t55 -56q0 -55 -55 -55zM293 47q-53 0 -53 55q0 56 53 56q59 0 59 -56q0 -55 -59 -55zM647 47q-59 0 -59 55q0 26 15.5 41t43.5 15q53 0 53 -56q0 -55 -53 -55zM471 2q-55 0 -55 55q0 58 55 58t55 -58q0 -55 -55 -55z" />
    <glyph glyph-name="lozenge" unicode="&#x25ca;" horiz-adv-x="1214" 
d="M670 1530l350 -801l-350 -801h-129l-346 799l346 803h129zM328 729l278 -666l281 666l-281 666z" />
    <glyph glyph-name="uni274A" unicode="&#x274a;" horiz-adv-x="1298" 
d="M461 14l-107 52l201 395l-422 -99l-22 109l424 86l-351 272l78 95l336 -287l-8 442h121l-11 -442l342 281l72 -93l-350 -270l424 -90l-27 -109l-420 105l193 -398l-103 -51l-182 404z" />
    <glyph glyph-name="paragraph" unicode="&#xb6;" horiz-adv-x="1228" 
d="M98 1028q0 200 125.5 311t343.5 111h484v-1708h-136v1597h-253v-1597h-136v905q-188 3 -308 112t-120 269z" />
    <glyph glyph-name="section" unicode="&#xa7;" horiz-adv-x="1138" 
d="M575 1475q128 0 224.5 -53t128.5 -140l-121 -61q-73 131 -221 131q-103 0 -162 -55t-59 -132q0 -44 15 -75.5t66.5 -67t88.5 -54.5t141 -68q7 -3 10 -5q155 -73 211.5 -146.5t56.5 -175.5q0 -172 -178 -268q76 -53 109 -109.5t33 -146.5q0 -151 -106.5 -242.5
t-279.5 -91.5q-144 0 -250 60.5t-155 175.5l135 65q31 -86 101.5 -132t168.5 -46q109 0 173.5 55.5t64.5 151.5q0 109 -121 168q-8 3 -148 75t-155 79q-184 91 -184 264q0 174 213 274q-87 54 -122.5 113.5t-35.5 132.5q0 146 99.5 235t258.5 89zM309 641q0 -103 144 -172
l204 -98q64 25 107 77t43 105q0 133 -180 215l-131 59q-187 -68 -187 -186z" />
    <glyph glyph-name="copyright" unicode="&#xa9;" horiz-adv-x="1638" 
d="M819 1487q206 0 382.5 -100t281 -275t104.5 -383q0 -211 -103.5 -387.5t-280 -277.5t-384.5 -101q-154 0 -295.5 59t-245.5 159.5t-165.5 241.5t-61.5 298q0 212 104.5 388.5t280.5 277t383 100.5zM174 721q0 -179 87.5 -328t235.5 -234t322 -85q132 0 251.5 51
t205.5 138t137 208.5t51 257.5q0 133 -51 253t-137.5 206.5t-206 137t-252.5 50.5q-131 0 -250 -51t-205.5 -138t-137 -208.5t-50.5 -257.5zM844 1190q157 0 262 -83t125 -228h-115q-19 91 -93 145.5t-177 54.5q-147 0 -238.5 -98t-91.5 -252q0 -149 97 -254.5t237 -105.5
q102 0 174.5 58t91.5 151h117q-35 -148 -140 -234t-243 -86q-201 0 -329 131.5t-128 335.5q0 206 123.5 335.5t327.5 129.5z" />
    <glyph glyph-name="registered" unicode="&#xae;" horiz-adv-x="1638" 
d="M51 721q0 212 104.5 389t280.5 277t383 100q154 0 295.5 -59t245.5 -159.5t165.5 -241.5t61.5 -298q0 -211 -103.5 -387.5t-280 -277.5t-384.5 -101q-154 0 -295.5 59t-245.5 159.5t-165.5 241.5t-61.5 298zM817 1376q-131 0 -250 -51t-205.5 -138t-137 -208.5
t-50.5 -257.5q0 -180 87.5 -329t235.5 -233.5t322 -84.5q132 0 251.5 51t205.5 138t137 208.5t51 257.5q0 133 -51 253t-137.5 206.5t-206 137t-252.5 50.5zM657 279h-122v882h331q151 0 227 -61t76 -193q0 -104 -59.5 -165.5t-171.5 -73.5l252 -389h-133l-242 378h-158
v-378zM856 1051h-199v-283h164q130 0 178 34t48 111q0 138 -191 138z" />
    <glyph glyph-name="trademark" unicode="&#x2122;" 
d="M997 606v844h191l264 -647l264 647h185v-844h-123v709h-4l-285 -709h-80l-285 709h-4v-709h-123zM426 1339h-279v111h674v-111h-272v-733h-123v733z" />
    <glyph glyph-name="degree" unicode="&#xb0;" horiz-adv-x="819" 
d="M410 1475q131 0 218 -88t87 -218q0 -129 -86.5 -217t-218.5 -88q-131 0 -218.5 86t-87.5 219q0 132 88.5 219t217.5 87zM203 1169q0 -86 60.5 -146t146.5 -60t146 60t60 146t-60 146.5t-146 60.5t-146.5 -60.5t-60.5 -146.5z" />
    <glyph glyph-name="brokenbar" unicode="&#xa6;" horiz-adv-x="454" 
d="M166 1382h123v-716h-123v716zM289 -358h-123v716h123v-716z" />
    <glyph glyph-name="uni2113" unicode="&#x2113;" horiz-adv-x="1024" 
d="M147 416l177 172v538q0 52 10 102t31 95t51.5 79.5t74.5 54.5t97 20q101 0 163 -71.5t62 -191.5q0 -150 -87 -310t-263 -341v-313q0 -79 42 -125.5t111 -46.5q90 0 183 80l51 -74q-122 -113 -266 -113q-122 0 -191 68.5t-69 185.5v242l-121 -129zM463 1149v-463
q114 129 173.5 263.5t59.5 254.5q0 78 -29.5 126t-78.5 48q-54 0 -89.5 -63.5t-35.5 -165.5z" />
    <glyph glyph-name="dagger" unicode="&#x2020;" horiz-adv-x="1138" 
d="M84 909v123h418v418h135v-418h418v-123h-418v-1167h-135v1167h-418z" />
    <glyph glyph-name="daggerdbl" unicode="&#x2021;" horiz-adv-x="1138" 
d="M102 934v123h400v393h135v-393h399v-123h-399v-676h399v-123h-399v-393h-135v393h-400v123h400v676h-400z" />
    <glyph glyph-name="estimated" unicode="&#x212e;" horiz-adv-x="1998" 
d="M1001 -39q-197 0 -359 60t-267.5 162t-163 235.5t-57.5 283.5t59 290t165 249t267.5 174.5t351.5 65.5q135 0 251 -24.5t201 -67.5t153 -103t112.5 -128.5t74 -147t42 -155.5t12.5 -157h-1366q-12 0 -12 -12v-389q0 -42 16 -61q84 -107 216 -164.5t298 -57.5
q168 0 298 63t253 179h148q-86 -104 -177 -166.5t-217.5 -95.5t-298.5 -33zM465 754q0 -13 12 -13h1045q12 0 12 13v397q0 28 -25 57q-50 63 -118 108t-140 68t-136 33t-126 10q-133 0 -266 -53t-238 -162q-20 -23 -20 -59v-399z" />
    <glyph glyph-name="uni066A" unicode="&#x66a;" horiz-adv-x="1146" 
d="M297 1059l-145 147l145 144l145 -146zM311 -39l-100 37l596 1352l100 -37zM852 0l-145 145l145 144l145 -146z" />
    <glyph glyph-name="uni02C9" unicode="&#x2c9;" horiz-adv-x="491" 
d="M522 1339v-110h-553v110h553z" />
    <glyph glyph-name="acute" unicode="&#xb4;" horiz-adv-x="491" 
d="M512 1450l-270 -295h-121l205 295h186z" />
    <glyph glyph-name="breve" unicode="&#x2d8;" horiz-adv-x="491" 
d="M-55 1450h90q13 -76 70 -118t141 -42q85 0 142 43.5t69 116.5h90q-7 -127 -88 -198.5t-213 -71.5q-130 0 -212 72t-89 198z" />
    <glyph glyph-name="caron" unicode="&#x2c7;" horiz-adv-x="491" 
d="M-59 1450h135l170 -221l170 221h135l-223 -295h-164z" />
    <glyph glyph-name="cedilla" unicode="&#xb8;" horiz-adv-x="491" 
d="M236 0h83l-92 -123l4 -2q54 14 74 14q68 0 113 -43t45 -110q0 -80 -68 -130t-168 -50q-104 0 -198 49l32 73q65 -36 152 -36q56 0 91.5 24.5t35.5 67.5q0 34 -26.5 58t-73.5 24q-44 0 -95 -23l-36 35z" />
    <glyph glyph-name="circumflex" unicode="&#x2c6;" horiz-adv-x="491" 
d="M328 1450l223 -295h-135l-170 221l-168 -221h-137l223 295h164z" />
    <glyph glyph-name="dieresis" unicode="&#xa8;" horiz-adv-x="491" 
d="M49 1430q43 0 74 -31t31 -74t-31 -73.5t-74 -30.5t-73.5 30.5t-30.5 73.5t30.5 74t73.5 31zM442 1430q43 0 74 -31t31 -74t-31 -73.5t-74 -30.5t-73.5 30.5t-30.5 73.5t30.5 74t73.5 31z" />
    <glyph glyph-name="dotaccent" unicode="&#x2d9;" horiz-adv-x="491" 
d="M246 1450q44 0 74 -30.5t30 -73.5q0 -44 -29 -74.5t-75 -30.5q-44 0 -74.5 31t-30.5 74t30.5 73.5t74.5 30.5z" />
    <glyph glyph-name="hungarumlaut" unicode="&#x2dd;" horiz-adv-x="491" 
d="M377 1155h-121l205 295h186zM-35 1155h-121l207 295h187z" />
    <glyph glyph-name="macron" unicode="&#xaf;" horiz-adv-x="491" 
d="M522 1339v-110h-553v110h553z" />
    <glyph glyph-name="ogonek" unicode="&#x2db;" horiz-adv-x="491" 
d="M244 12h98q-90 -90 -124 -142.5t-34 -105.5q0 -42 30.5 -70t72.5 -28q67 0 104 45l39 -82q-73 -73 -184 -73q-76 0 -130.5 50.5t-54.5 123.5q0 68 46.5 141t136.5 141z" />
    <glyph glyph-name="ring" unicode="&#x2da;" horiz-adv-x="491" 
d="M246 1526q80 0 138 -58t58 -137q0 -81 -58 -137.5t-138 -56.5t-138.5 56.5t-58.5 137.5q0 79 58.5 137t138.5 58zM123 1331q0 -50 36.5 -85.5t86.5 -35.5q51 0 87 35.5t36 85.5t-36 85.5t-87 35.5q-50 0 -86.5 -35.5t-36.5 -85.5z" />
    <glyph glyph-name="tilde" unicode="&#x2dc;" horiz-adv-x="491" 
d="M489 1401h89q-37 -213 -189 -213q-46 0 -147 47t-140 47q-37 0 -63.5 -26.5t-36.5 -75.5h-88q38 213 188 213q49 0 149.5 -47.5t137.5 -47.5q75 0 100 103z" />
    <glyph glyph-name="acute.case" horiz-adv-x="491" 
d="M512 1851l-270 -295h-121l205 295h186z" />
    <glyph glyph-name="breve.case" horiz-adv-x="491" 
d="M-55 1839h90q13 -76 70 -118t141 -42q85 0 142 43.5t69 116.5h90q-7 -127 -88 -198.5t-213 -71.5q-130 0 -212 72t-89 198z" />
    <glyph glyph-name="caron.case" horiz-adv-x="491" 
d="M-59 1851h135l170 -221l170 221h135l-223 -295h-164z" />
    <glyph glyph-name="circumflex.case" horiz-adv-x="491" 
d="M76 1556h-135l223 295h164l223 -295h-135l-170 222z" />
    <glyph glyph-name="dieresis.case" horiz-adv-x="491" 
d="M49 1788q44 0 74.5 -31t30.5 -74t-30.5 -73.5t-74.5 -30.5t-74 30.5t-30 73.5q0 44 29 74.5t75 30.5zM442 1788q44 0 74.5 -31t30.5 -74t-30.5 -73.5t-74.5 -30.5t-74 30.5t-30 73.5q0 44 29 74.5t75 30.5z" />
    <glyph glyph-name="dotaccent.case" horiz-adv-x="491" 
d="M246 1778q46 0 75 -30.5t29 -74.5q0 -43 -30 -73.5t-74 -30.5t-74.5 30.5t-30.5 73.5t30.5 74t74.5 31z" />
    <glyph glyph-name="grave.case" horiz-adv-x="491" 
d="M166 1851l205 -295h-119l-272 295h186z" />
    <glyph glyph-name="hungarumlaut.case" horiz-adv-x="491" 
d="M418 1556h-121l205 295h186zM6 1556h-121l207 295h187z" />
    <glyph glyph-name="macron.case" horiz-adv-x="491" 
d="M522 1731v-111h-553v111h553z" />
    <glyph glyph-name="ring.case" horiz-adv-x="491" 
d="M246 1905q80 0 138 -57t58 -138q0 -82 -57 -138t-139 -56t-139.5 56.5t-57.5 137.5t58.5 138t138.5 57zM123 1710q0 -50 36.5 -85.5t86.5 -35.5q51 0 87 35.5t36 85.5t-36 85.5t-87 35.5q-50 0 -86.5 -35.5t-36.5 -85.5z" />
    <glyph glyph-name="tilde.case" horiz-adv-x="491" 
d="M489 1800h89q-17 -103 -65.5 -158t-123.5 -55q-49 0 -147 47t-140 47q-74 0 -100 -102h-88q35 213 188 213q52 0 149.5 -47t137.5 -47q75 0 100 102z" />
    <glyph glyph-name="uni0615" unicode="&#x615;" 
d="M-264 1130v74h102v344h72v-215q78 101 182 101q79 0 125.5 -53t46.5 -140q0 -61 -18 -111h-510zM-90 1204h280q5 35 5 39q0 54 -29.5 86.5t-77.5 32.5q-53 0 -101.5 -41t-76.5 -117z" />
    <glyph glyph-name="uniFBB2" unicode="&#xfbb2;" 
d="M2 1122q-41 0 -66.5 25t-25.5 65q0 39 25.5 65t66.5 26q39 0 63.5 -26t24.5 -65q0 -40 -24 -65t-64 -25z" />
    <glyph glyph-name="uniFBB3" unicode="&#xfbb3;" 
d="M2 -362q-41 0 -66.5 25.5t-25.5 64.5q0 40 25.5 65t66.5 25q40 0 64 -25t24 -65q0 -39 -24.5 -64.5t-63.5 -25.5z" />
    <glyph glyph-name="uniFBB4" unicode="&#xfbb4;" 
d="M-137 1122q-39 0 -64.5 25.5t-25.5 64.5q0 38 26 64.5t64 26.5t63 -26t25 -65q0 -40 -25 -65t-63 -25zM139 1122q-39 0 -64.5 25.5t-25.5 64.5q0 38 26 64.5t64 26.5t63 -26t25 -65q0 -40 -25 -65t-63 -25z" />
    <glyph glyph-name="uniFBB5" unicode="&#xfbb5;" 
d="M-137 -362q-38 0 -64 26t-26 64q0 39 25.5 64.5t64.5 25.5q38 0 63 -25t25 -65q0 -38 -25 -64t-63 -26zM139 -362q-38 0 -64 26t-26 64q0 39 25.5 64.5t64.5 25.5q38 0 63 -25t25 -65q0 -38 -25 -64t-63 -26z" />
    <glyph glyph-name="uniFBB9" unicode="&#xfbb9;" 
d="M-137 -365q-38 0 -64 26.5t-26 66.5q0 38 26 63t64 25t63 -25t25 -63q0 -40 -25 -66.5t-63 -26.5zM139 -365q-38 0 -64 26.5t-26 66.5q0 38 26 63t64 25t63 -25t25 -63q0 -40 -25 -66.5t-63 -26.5zM4 -573q-38 0 -64 25.5t-26 62.5q0 40 26 66t64 26q39 0 63.5 -26
t24.5 -66q0 -37 -24.5 -62.5t-63.5 -25.5z" />
    <glyph glyph-name="uniFBB6" unicode="&#xfbb6;" 
d="M6 1339q-38 0 -64 25.5t-26 65.5q0 37 26 63.5t64 26.5t63 -26.5t25 -63.5q0 -40 -25 -65.5t-63 -25.5zM-137 1126q-39 0 -64.5 26t-25.5 65q0 38 26 64t64 26t63 -26t25 -64q0 -40 -25 -65.5t-63 -25.5zM139 1126q-39 0 -64.5 26t-25.5 65q0 38 26 64t64 26t63 -26
t25 -64q0 -40 -25 -65.5t-63 -25.5z" />
    <glyph glyph-name="waslaar" 
d="M-256 1112v72h102v202h72v-92q74 105 180 105q73 0 115.5 -47.5t42.5 -126.5q0 -60 -18 -113h-494zM92 1327q-55 0 -103.5 -39.5t-76.5 -103.5h270q6 24 6 43q0 48 -26.5 74t-69.5 26z" />
    <glyph glyph-name="gafsarkashabovear" 
d="M-211 803l-94 92l520 494l90 -91z" />
    <glyph glyph-name="uni0670" unicode="&#x670;" 
d="M-37 1139v358h74v-338l-64 -20h-10z" />
    <glyph glyph-name="uni0656" unicode="&#x656;" 
d="M-37 -567v358h74v-338l-64 -20h-10z" />
    <glyph glyph-name="uni0654" unicode="&#x654;" 
d="M-166 1184h76q-31 51 -31 104q0 70 48 112t124 42q38 0 96 -12l-14 -70q-30 10 -70 10q-48 0 -78 -24t-30 -68q0 -43 31 -94h180v-72h-332v72z" />
    <glyph glyph-name="uni0654.big" 
d="M-211 1229h100q-41 68 -41 139q0 88 58.5 139.5t152.5 51.5q54 0 127 -15l-16 -86q-67 10 -92 10q-58 0 -97.5 -28t-39.5 -88q0 -55 41 -123h229v-88h-422v88z" />
    <glyph glyph-name="uni0655" unicode="&#x655;" 
d="M-166 -440h78q-31 51 -31 104q0 70 47 112t123 42q33 0 96 -13l-12 -69q-33 10 -72 10q-48 0 -78 -24t-30 -68q0 -43 31 -94h180v-72h-332v72z" />
    <glyph glyph-name="uni0654064F" 
d="M-160 1583l29 62q44 -23 86 -23q45 0 80.5 27t54.5 73q-24 -4 -37 -4q-64 0 -105.5 30.5t-41.5 90.5q0 62 40.5 109t98.5 47q57 0 92 -50.5t35 -132.5q0 -123 -62.5 -191.5t-154.5 -68.5q-62 0 -115 31zM166 1112h-332v72h76q-31 51 -31 104q0 70 48 112t124 42
q38 0 96 -12l-14 -70q-30 10 -70 10q-48 0 -78 -24t-30 -68q0 -43 31 -94h180v-72zM-31 1847q0 -61 97 -61q12 0 40 4v20q0 50 -17 82.5t-50 32.5q-32 0 -51 -23.5t-19 -54.5z" />
    <glyph glyph-name="uni0654064C" 
d="M-276 1630l-46 43q67 96 138 96q31 0 60.5 -23t49 -50.5t47 -50.5t54.5 -23q40 0 74 27.5t53 72.5q-24 -4 -39 -4q-62 0 -104 31t-42 90q0 62 40.5 109t96.5 47q57 0 93.5 -51t36.5 -132q0 -115 -65 -187.5t-148 -72.5q-32 0 -60.5 15t-48.5 37t-37 44t-34 37t-33 15
q-34 0 -86 -70zM166 1112h-332v72h76q-31 51 -31 104q0 70 48 112t124 42q38 0 96 -12l-14 -70q-30 10 -70 10q-48 0 -78 -24t-30 -68q0 -43 31 -94h180v-72zM102 1925q-30 0 -49.5 -23.5t-19.5 -54.5q0 -61 96 -61q13 0 41 4v20q0 50 -17 82.5t-51 32.5z" />
    <glyph glyph-name="uni0654064E" 
d="M-166 1184h76q-31 51 -31 104q0 70 48 112t124 42q38 0 96 -12l-14 -70q-30 10 -70 10q-48 0 -78 -24t-30 -68q0 -43 31 -94h180v-72h-332v72zM-227 1542l10 70l459 69l6 -2l-10 -69l-459 -70z" />
    <glyph glyph-name="uni0654064B" 
d="M166 1112h-332v72h76q-31 51 -31 104q0 70 48 112t124 42q38 0 96 -12l-14 -70q-30 10 -70 10q-48 0 -78 -24t-30 -68q0 -43 31 -94h180v-72zM-221 1540l-6 2l10 70l459 69l6 -2l-10 -69zM-221 1724l-6 2l10 70l459 70l6 -2l-10 -70z" />
    <glyph glyph-name="uni06540652" 
d="M-111 1683q0 63 38.5 113.5t99.5 50.5t99 -50.5t38 -113.5q0 -64 -36 -99.5t-101 -35.5q-66 0 -102 35t-36 100zM166 1112h-332v72h76q-31 51 -31 104q0 70 48 112t124 42q38 0 96 -12l-14 -70q-30 10 -70 10q-48 0 -78 -24t-30 -68q0 -43 31 -94h180v-72zM27 1776
q-30 0 -48 -25t-18 -63q0 -70 66 -70q65 0 65 70q0 38 -17.5 63t-47.5 25z" />
    <glyph glyph-name="uni06550650" 
d="M-166 -512v72h78q-31 51 -31 104q0 70 47 112t123 42q33 0 96 -13l-12 -69q-33 10 -72 10q-48 0 -78 -24t-30 -68q0 -43 31 -94h180v-72h-332zM-221 -774l-6 2l10 67l459 70l6 -2l-10 -68z" />
    <glyph glyph-name="uni0655064D" 
d="M166 -512h-332v72h78q-31 51 -31 104q0 70 47 112t123 42q33 0 96 -13l-12 -69q-33 10 -72 10q-48 0 -78 -24t-30 -68q0 -43 31 -94h180v-72zM-221 -940l-6 2l10 68l459 69l6 -2l-10 -67zM-221 -774l-6 2l10 67l459 70l6 -2l-10 -68z" />
    <glyph glyph-name="uni064B" unicode="&#x64b;" 
d="M-231 1298l-7 2l11 70l458 70l7 -2l-11 -70zM-231 1114l-7 2l11 70l458 69l7 -2l-11 -69z" />
    <glyph glyph-name="uni064C" unicode="&#x64c;" 
d="M150 1569q57 0 93 -50.5t36 -132.5q0 -115 -65 -187.5t-148 -72.5q-32 0 -60.5 15t-48.5 37t-37 44t-34 37t-33 15q-34 0 -86 -70l-46 43q67 96 138 96q31 0 60.5 -23t49 -50.5t47 -50.5t54.5 -23q40 0 74 27.5t53 72.5q-24 -4 -39 -4q-62 0 -104 31t-42 90q0 62 41 109
t97 47zM172 1360q13 0 41 4v20q0 50 -17 82.5t-51 32.5q-30 0 -49.5 -23.5t-19.5 -54.5q0 -61 96 -61z" />
    <glyph glyph-name="uni064D" unicode="&#x64d;" 
d="M-233 -328l-7 2l11 68l458 70l7 -2l-11 -68zM-233 -494l-7 2l11 68l458 70l7 -2l-11 -68z" />
    <glyph glyph-name="uni064E" unicode="&#x64e;" 
d="M-231 1114l-7 2l11 70l458 69l7 -2l-11 -69z" />
    <glyph glyph-name="uni064F" unicode="&#x64f;" 
d="M39 1569q57 0 92 -50.5t35 -132.5q0 -123 -62.5 -191.5t-154.5 -68.5q-62 0 -115 31l29 62q44 -23 86 -23q45 0 80.5 27t54.5 73q-24 -4 -37 -4q-64 0 -105.5 30.5t-41.5 90.5q0 62 40.5 109t98.5 47zM59 1360q13 0 41 4v20q0 50 -17 82.5t-50 32.5q-32 0 -51 -23.5
t-19 -54.5q0 -61 96 -61z" />
    <glyph glyph-name="uni0650" unicode="&#x650;" 
d="M-231 -328l-7 2l11 68l458 70l7 -2l-11 -68z" />
    <glyph glyph-name="uni0651" unicode="&#x651;" 
d="M203 1403q30 -51 30 -117q0 -61 -32.5 -100t-91.5 -39q-60 0 -97 37q-33 -58 -108 -58q-64 0 -100.5 36t-36.5 95q0 51 22 99l49 -15q-8 -31 -8 -59q0 -78 74 -78q63 0 63 78q0 29 -2 45l51 12q13 -47 13 -79v-5q32 -32 75 -32q66 0 66 67q0 36 -18 92z" />
    <glyph glyph-name="uni0652" unicode="&#x652;" 
d="M0 1122q-66 0 -101.5 35t-35.5 100q0 63 38 113.5t99 50.5t99 -50.5t38 -113.5q0 -64 -36 -99.5t-101 -35.5zM0 1192q66 0 66 70q0 38 -18 63t-48 25t-48 -25t-18 -63q0 -70 66 -70z" />
    <glyph glyph-name="uni0653" unicode="&#x653;" 
d="M139 1128q-55 0 -159.5 27t-135.5 27q-46 0 -96 -37l-49 57q75 70 151 70q38 0 139 -27.5t142 -27.5q33 0 55.5 10t59.5 41l55 -51q-59 -89 -162 -89z" />
    <glyph glyph-name="uni06510670" 
d="M27 1466l-64 -20h-10v358h74v-338zM203 1403q30 -51 30 -117q0 -61 -32.5 -100t-91.5 -39q-60 0 -97 37q-33 -58 -108 -58q-64 0 -100.5 36t-36.5 95q0 51 22 99l49 -15q-8 -31 -8 -59q0 -78 74 -78q63 0 63 78q0 29 -2 45l51 12q13 -47 13 -79v-5q32 -32 75 -32
q66 0 66 67q0 36 -18 92z" />
    <glyph glyph-name="uni0651064F" 
d="M150 1694q0 -123 -63 -191.5t-155 -68.5q-62 0 -114 30l28 62q44 -23 86 -23q45 0 81 27t55 74q-30 -5 -37 -5q-64 0 -106 30.5t-42 90.5q0 62 41 109t99 47q57 0 92 -50t35 -132zM43 1667q13 0 41 4v21q0 49 -17.5 81.5t-50.5 32.5q-32 0 -50.5 -23t-18.5 -54
q0 -62 96 -62zM203 1403q30 -51 30 -117q0 -61 -32.5 -100t-91.5 -39q-60 0 -97 37q-33 -58 -108 -58q-64 0 -100.5 36t-36.5 95q0 51 22 99l49 -15q-8 -31 -8 -59q0 -78 74 -78q63 0 63 78q0 29 -2 45l51 12q13 -47 13 -79v-5q32 -32 75 -32q66 0 66 67q0 36 -18 92z" />
    <glyph glyph-name="uni0651064C" 
d="M0 1434q-32 0 -60.5 15t-48.5 37t-37 43.5t-34 36.5t-33 15q-34 0 -86 -70l-45 43q68 97 137 97q25 0 48.5 -15t42 -37t36.5 -44t40 -37t44 -15q40 0 74 27.5t53 73.5q-30 -5 -39 -5q-62 0 -103.5 30.5t-41.5 90.5q0 62 40.5 109t96.5 47q57 0 93 -50.5t36 -131.5
q0 -115 -65 -187.5t-148 -72.5zM106 1667q13 0 41 4v21q0 51 -16.5 82.5t-50.5 31.5q-30 0 -50 -23.5t-20 -53.5q0 -62 96 -62zM203 1403q30 -51 30 -117q0 -61 -32.5 -100t-91.5 -39q-60 0 -97 37q-33 -58 -108 -58q-64 0 -100.5 36t-36.5 95q0 51 22 99l49 -15
q-8 -31 -8 -59q0 -78 74 -78q63 0 63 78q0 29 -2 45l51 12q13 -47 13 -79v-5q32 -32 75 -32q66 0 66 67q0 36 -18 92z" />
    <glyph glyph-name="uni0651064E" 
d="M225 1561l-10 -70l-459 -70l-6 2l10 70l459 70zM203 1403q30 -51 30 -117q0 -61 -32.5 -100t-91.5 -39q-60 0 -97 37q-33 -58 -108 -58q-64 0 -100.5 36t-36.5 95q0 51 22 99l49 -15q-8 -31 -8 -59q0 -78 74 -78q63 0 63 78q0 29 -2 45l51 12q13 -47 13 -79v-5
q32 -32 75 -32q66 0 66 67q0 36 -18 92z" />
    <glyph glyph-name="uni0651064B.1" 
d="M215 1675l-459 -69l-6 2l10 69l459 70l6 -2zM225 1561l-10 -70l-459 -70l-6 2l10 70l459 70zM203 1403q30 -51 30 -117q0 -61 -32.5 -100t-91.5 -39q-60 0 -97 37q-33 -58 -108 -58q-64 0 -100.5 36t-36.5 95q0 51 22 99l49 -15q-8 -31 -8 -59q0 -78 74 -78q63 0 63 78
q0 29 -2 45l51 12q13 -47 13 -79v-5q32 -32 75 -32q66 0 66 67q0 36 -18 92z" />
    <glyph glyph-name="uni06510650" 
d="M-84 1311q-64 0 -100.5 36.5t-36.5 94.5q0 50 22 98l49 -14q-8 -31 -8 -60q0 -77 74 -77q64 0 64 77q0 21 -3 45l52 13q12 -44 12 -80v-4q33 -33 76 -33q65 0 65 68q0 36 -18 92l51 20q31 -53 31 -117q0 -61 -33 -100t-92 -39t-96 37q-33 -57 -109 -57zM-227 1186l458 69
l7 -2l-11 -69l-458 -70l-7 2z" />
    <glyph glyph-name="uni0651064D" 
d="M-84 1495q-64 0 -100.5 36.5t-36.5 94.5q0 50 22 98l49 -14q-8 -31 -8 -59q0 -78 74 -78q64 0 64 78q0 21 -3 45l52 12q12 -44 12 -80v-4q33 -33 76 -33q65 0 65 68q0 36 -18 92l51 21q31 -53 31 -117q0 -61 -33 -100t-92 -39q-60 0 -96 36q-33 -57 -109 -57zM-227 1370
l458 70l7 -2l-11 -70l-458 -70l-7 2zM-227 1186l458 69l7 -2l-11 -69l-458 -70l-7 2z" />
    <glyph glyph-name="uni0658" unicode="&#x658;" 
d="M-127 1364l66 -23q-25 -65 -25 -96q0 -80 90 -80q43 0 62.5 23.5t19.5 73.5v104h72v-104q0 -80 -40.5 -124t-113.5 -44q-74 0 -118 38.5t-44 106.5q0 54 31 125z" />
    </font>
</defs>
</svg>
